<?xml version="1.0" encoding="UTF-8"?>
<svg version="1.1" xmlns="http://www.w3.org/2000/svg" width="1024" height="340">
<path d="M0 0 C0.66257813 0.16628906 1.32515625 0.33257812 2.0078125 0.50390625 C17.49343594 4.53973475 30.96206792 11.84652556 44 21 C45.05058594 21.68964844 46.10117187 22.37929687 47.18359375 23.08984375 C50.20457768 25.13874963 52.48230916 27.35949498 55 30 C56.26817747 31.27348365 57.53911224 32.54422624 58.8125 33.8125 C59.875 34.875 60.9375 35.9375 62 37 C60.58330822 42.19453651 57.07891809 45.66182883 53 49 C52.34 49 51.68 49 51 49 C50.731875 49.598125 50.46375 50.19625 50.1875 50.8125 C49.00082594 52.99847854 47.90400887 54.41332594 46 56 C45.34 56 44.68 56 44 56 C44 56.66 44 57.32 44 58 C42.64453125 59.26171875 42.64453125 59.26171875 40.8125 60.6875 C37.09743288 63.74563452 34.64419518 66.99364367 32 71 C27.06878651 70.5861303 25.24372412 68.53229792 22 64.9375 C10.89915285 53.18760366 -4.41033989 45.18577012 -20.66796875 44.6640625 C-23.17440039 44.64030485 -25.68095708 44.6275695 -28.1875 44.625 C-29.42564453 44.60050781 -30.66378906 44.57601562 -31.93945312 44.55078125 C-49.15642584 44.49666819 -63.94281726 51.02294426 -77 62 C-78.24523437 62.96292969 -78.24523437 62.96292969 -79.515625 63.9453125 C-92.27571142 74.49846573 -100.31580354 92.81487203 -102 109 C-103.36202962 129.09878127 -100.50299779 149.31247745 -87.92578125 165.703125 C-86.73833183 167.04231745 -85.51842534 168.35442477 -84.25 169.6171875 C-83 171 -83 171 -83 173 C-82.40445313 173.27328125 -81.80890625 173.5465625 -81.1953125 173.828125 C-79.07352802 174.96075016 -77.62253164 176.11662872 -75.875 177.75 C-62.09388194 189.72471358 -43.89598571 194.67369615 -25.8359375 194.25 C-6.01333691 192.50255312 11.08002277 184.04982777 25 170 C26.02900482 168.68892149 27.04031105 167.36263528 28 166 C31.26488369 166.58212823 32.90649106 167.52995878 35.234375 169.87109375 C36.09482422 170.73250977 36.09482422 170.73250977 36.97265625 171.61132812 C37.55917969 172.21396484 38.14570313 172.81660156 38.75 173.4375 C39.35199219 174.03626953 39.95398438 174.63503906 40.57421875 175.25195312 C45 179.73293119 45 179.73293119 45 182 C45.59256592 182.27021973 46.18513184 182.54043945 46.7956543 182.81884766 C50.36017704 184.7288223 52.95733696 187.54785928 55.8125 190.375 C56.42287109 190.9525 57.03324219 191.53 57.66210938 192.125 C58.23380859 192.68960938 58.80550781 193.25421875 59.39453125 193.8359375 C60.18114136 194.60236572 60.18114136 194.60236572 60.98364258 195.38427734 C62 197 62 197 61.78393555 199.05712891 C60.7155657 201.70492935 59.15948027 203.16771371 57 205 C56.34 205 55.68 205 55 205 C55 205.66 55 206.32 55 207 C53.3603279 208.36639342 51.68889872 209.6949419 50 211 C49.4121875 211.60585937 48.824375 212.21171875 48.21875 212.8359375 C26.32958394 234.18558187 -4.50262698 241.54517228 -34.11645508 241.42163086 C-65.43953413 240.80513895 -91.4584844 228.26988503 -115 208 C-116.03253906 207.11441406 -116.03253906 207.11441406 -117.0859375 206.2109375 C-139.73969745 185.22153542 -150.44644782 153.01222033 -151.74755859 123.05297852 C-151.84913573 120.36881456 -151.93178976 117.68520996 -152 115 C-152.02046387 114.21262451 -152.04092773 113.42524902 -152.06201172 112.61401367 C-152.37293782 90.4114981 -144.20472608 68.30708912 -132 50 C-131.34 50 -130.68 50 -130 50 C-129.814375 49.34 -129.62875 48.68 -129.4375 48 C-127.34308397 43.6290448 -124.30745122 40.51089725 -121 37 C-120.15308594 36.07703125 -119.30617187 35.1540625 -118.43359375 34.203125 C-88.92201538 2.81297563 -41.70974779 -10.59427594 0 0 Z " fill="#121A27" transform="translate(226,44)"/>
<path d="M0 0 C0.93392578 0.61681641 0.93392578 0.61681641 1.88671875 1.24609375 C7.16912047 5.15529251 9.03575442 9.86437267 11 16 C11.33 16.99 11.66 17.98 12 19 C12.08932308 21.10090021 12.11759269 23.20457877 12.11352539 25.30737305 C12.11344986 26.60849533 12.11337433 27.90961761 12.11329651 29.25016785 C12.10818985 30.6706852 12.10297385 32.09120217 12.09765625 33.51171875 C12.09579091 34.96474662 12.09436756 36.41777511 12.09336853 37.87080383 C12.08955246 41.69306172 12.07972993 45.51528155 12.06866455 49.33752441 C12.05843087 53.23868291 12.05386671 57.13984757 12.04882812 61.04101562 C12.03810686 68.69402776 12.02104135 76.34700854 12 84 C8.47843642 85.76078179 4.44108049 85.184646 0.5625 85.1875 C-0.74557617 85.20586914 -0.74557617 85.20586914 -2.08007812 85.22460938 C-3.33788086 85.22750977 -3.33788086 85.22750977 -4.62109375 85.23046875 C-5.77242798 85.23663208 -5.77242798 85.23663208 -6.94702148 85.24291992 C-9 85 -9 85 -12 83 C-12.37854004 80.5912323 -12.37854004 80.5912323 -12.38476562 77.52807617 C-12.39487671 76.38316208 -12.40498779 75.23824799 -12.41540527 74.05863953 C-12.41238403 72.81596817 -12.40936279 71.57329681 -12.40625 70.29296875 C-12.41708618 69.02028641 -12.42792236 67.74760406 -12.43908691 66.43635559 C-12.4734803 62.35334526 -12.48957623 58.27062194 -12.5 54.1875 C-12.51372456 48.82656248 -12.54820857 43.46625757 -12.59375 38.10546875 C-12.59072876 36.86887009 -12.58770752 35.63227142 -12.58459473 34.35820007 C-12.59470581 33.2038295 -12.60481689 32.04945892 -12.61523438 30.86010742 C-12.61728882 29.84687912 -12.61934326 28.83365082 -12.62145996 27.78971863 C-13.06684985 24.50733803 -14.03981407 22.65246155 -16 20 C-21.16307686 16.77307696 -25.40891897 16.59713869 -31.40625 17.36328125 C-35.52549623 18.37448176 -37.2142223 19.78564112 -40 23 C-42.74035996 28.79696027 -42.21790308 34.81078697 -42.125 41.07421875 C-42.11742676 42.23500443 -42.10985352 43.3957901 -42.10205078 44.5917511 C-42.07766492 48.29048656 -42.04039288 51.98890679 -42 55.6875 C-41.94694448 60.56639751 -41.90691116 65.44514236 -41.875 70.32421875 C-41.85840332 71.44922287 -41.84180664 72.57422699 -41.82470703 73.73332214 C-41.81479736 75.29558281 -41.81479736 75.29558281 -41.8046875 76.8894043 C-41.79421387 77.80618454 -41.78374023 78.72296478 -41.77294922 79.66752625 C-42 82 -42 82 -44 85 C-46.23071289 85.35644531 -46.23071289 85.35644531 -48.97265625 85.328125 C-50.44508789 85.32039063 -50.44508789 85.32039063 -51.94726562 85.3125 C-52.97529297 85.291875 -54.00332031 85.27125 -55.0625 85.25 C-56.09439453 85.24484375 -57.12628906 85.2396875 -58.18945312 85.234375 C-65.84616902 85.15383098 -65.84616902 85.15383098 -67 84 C-67.10751347 82.25227028 -67.14625248 80.50026356 -67.15771484 78.74926758 C-67.16797699 77.6275264 -67.17823914 76.50578522 -67.18881226 75.35005188 C-67.19976425 73.51581917 -67.19976425 73.51581917 -67.2109375 71.64453125 C-67.23901342 69.07746766 -67.26767793 66.51041046 -67.296875 63.94335938 C-67.33927323 59.87918554 -67.37602183 55.81504985 -67.40136719 51.75073242 C-67.42641262 47.84011451 -67.47486737 43.92992923 -67.5234375 40.01953125 C-67.52669037 38.8068306 -67.52994324 37.59412994 -67.53329468 36.34468079 C-67.60352125 28.24406137 -67.60352125 28.24406137 -71 21 C-74.50986537 17.61367026 -77.7457362 17.27110407 -82.46484375 16.9375 C-87.4973658 17.06156834 -90.69202492 18.76086571 -94.375 22.25 C-97.89687109 28.21008954 -97.1227935 35.5514999 -97.0625 42.28125 C-97.05871338 43.25356567 -97.05492676 44.22588135 -97.05102539 45.22766113 C-97.03886997 48.31848712 -97.02024846 51.40921709 -97 54.5 C-96.97331736 58.57291441 -96.95336192 62.64578064 -96.9375 66.71875 C-96.92920166 67.64498169 -96.92090332 68.57121338 -96.91235352 69.5255127 C-96.89375921 74.46683696 -97.15437837 79.12935261 -98 84 C-103.00765211 84.81943398 -107.78398608 85.13508122 -112.875 85.125 C-114.85113281 85.12886719 -114.85113281 85.12886719 -116.8671875 85.1328125 C-120 85 -120 85 -121 84 C-121.12507482 81.38399547 -121.18605405 78.79308066 -121.20532227 76.17553711 C-121.21522186 75.35609116 -121.22512146 74.5366452 -121.23532104 73.69236755 C-121.26703055 70.97072283 -121.29173062 68.24906061 -121.31640625 65.52734375 C-121.33696763 63.64546747 -121.35796388 61.76359589 -121.37937927 59.88172913 C-121.43468426 54.91856689 -121.48405623 49.9553624 -121.53222656 44.99212646 C-121.58238022 39.93156149 -121.63809824 34.8710582 -121.69335938 29.81054688 C-121.80104395 19.87375055 -121.90246589 9.93690077 -122 0 C-115.29037281 -3.59288566 -107.29810495 -2.29744088 -100 -1 C-99.67 1.31 -99.34 3.62 -99 6 C-98.401875 5.278125 -97.80375 4.55625 -97.1875 3.8125 C-91.07742332 -2.14439927 -83.83218011 -4.32175098 -75.4375 -4.5 C-63.94041602 -4.03405941 -56.94910743 -1.52854123 -49 7 C-48.505 7.99 -48.505 7.99 -48 9 C-47.34 9 -46.68 9 -46 9 C-45.75121094 8.41347656 -45.50242187 7.82695313 -45.24609375 7.22265625 C-42.09003851 1.59320348 -35.94126774 -2.03199758 -29.9375 -4 C-20.32136393 -6.18056043 -8.20157486 -5.97351237 0 0 Z " fill="#161E2A" transform="translate(918,103)"/>
<path d="M0 0 C9.16647223 6.99742045 15.97780611 16.36706629 18.625 27.75 C18.33563896 29.42486091 18.00779541 31.09399379 17.625 32.75 C14.06360935 32.98303424 10.50417554 33.12461781 6.9375 33.25 C5.42639648 33.35054687 5.42639648 33.35054687 3.88476562 33.453125 C0.93660392 33.53096425 -1.51896989 33.49789335 -4.375 32.75 C-6.78713573 30.39593864 -8.0193567 27.80345171 -9.375 24.75 C-12.44335614 20.29339018 -15.47900807 16.83818982 -20.84375 15.1875 C-30.16948918 13.57564384 -39.2199087 13.64637612 -47.375 18.75 C-48.261875 19.28625 -49.14875 19.8225 -50.0625 20.375 C-59.2204952 29.78050858 -60.76053058 40.45011891 -60.6875 53.0625 C-60.68186035 54.07707275 -60.6762207 55.09164551 -60.67041016 56.13696289 C-60.46905252 68.56033019 -58.60152045 77.60324247 -49.60546875 86.5 C-43.28035391 92.23256595 -36.86324382 93.852268 -28.375 93.75 C-21.91555383 92.57140232 -15.43905583 90.63796169 -11.49609375 85.12109375 C-10.94050781 84.15300781 -10.38492188 83.18492187 -9.8125 82.1875 C-6.1801227 75.87068682 -6.1801227 75.87068682 -2.375 74.75 C0.31253824 74.58326524 2.880283 74.5160441 5.5625 74.5625 C6.26568359 74.56314453 6.96886719 74.56378906 7.69335938 74.56445312 C11.45490266 74.59618123 14.96828359 74.8554999 18.625 75.75 C19.2268801 86.1980212 12.38622321 94.80885 5.84765625 102.40625 C-2.30326175 111.00124262 -13.675561 115.52193273 -25.44140625 116.12109375 C-43.75923172 116.52881951 -58.81248505 113.02854256 -72.5625 100.125 C-83.87777929 88.24129224 -88.83743598 73.96293097 -89.375 57.75 C-89.43816406 56.81929688 -89.50132812 55.88859375 -89.56640625 54.9296875 C-90.2320489 39.16898745 -84.98072637 21.61922446 -74.375 9.75 C-72.3593902 8.0020457 -70.3696735 6.35738267 -68.25 4.75 C-67.67813965 4.31429687 -67.1062793 3.87859375 -66.51708984 3.4296875 C-47.95606865 -10.39664331 -19.81404955 -12.84679474 0 0 Z " fill="#161E2B" transform="translate(423.375,74.25)"/>
<path d="M0 0 C1.36639342 1.6396721 2.70513179 3.30327614 4 5 C4.99 5.495 4.99 5.495 6 6 C7.03515625 7.71484375 7.03515625 7.71484375 8.0625 9.9375 C8.40410156 10.64777344 8.74570312 11.35804687 9.09765625 12.08984375 C11.67673299 20.40764537 11.09357558 29.38923572 11 38 C10.91543223 49.00042824 11.18484037 59.9336392 11.90820312 70.91210938 C11.96298828 71.93240234 12.01777344 72.95269531 12.07421875 74.00390625 C12.13182373 74.89924072 12.18942871 75.7945752 12.2487793 76.71704102 C12 79 12 79 10.64428711 80.79174805 C7.14271311 83.36476805 2.14457517 82.22104401 -2 82 C-2.86367188 81.9690625 -3.72734375 81.938125 -4.6171875 81.90625 C-9.12006319 81.61097946 -9.12006319 81.61097946 -11 81 C-12.75 78.953125 -12.75 78.953125 -14 77 C-14.81984375 77.42152344 -15.6396875 77.84304687 -16.484375 78.27734375 C-17.56203125 78.82519531 -18.6396875 79.37304688 -19.75 79.9375 C-20.81734375 80.48277344 -21.8846875 81.02804688 -22.984375 81.58984375 C-30.95362159 85.31639559 -41.01616933 85.30061723 -49.47265625 83.09375 C-57.37977852 79.97488508 -64.77008415 75.65871795 -68.33203125 67.6015625 C-70.03284113 60.97735559 -70.6172894 52.73859706 -67.859375 46.36328125 C-66.38147439 44.32144488 -64.86971045 42.68573436 -63 41 C-62.26330078 40.26910156 -62.26330078 40.26910156 -61.51171875 39.5234375 C-54.53446758 33.09157793 -44.967113 30.92077074 -35.75390625 30.3671875 C-35.09792953 30.32562531 -34.44195282 30.28406311 -33.76609802 30.24124146 C-31.69860124 30.11189855 -29.63065703 29.99326315 -27.5625 29.875 C-26.14904481 29.78847185 -24.7356326 29.70123862 -23.32226562 29.61328125 C-19.88196873 29.4007109 -16.44118552 29.19772909 -13 29 C-13.27891949 27.0545084 -13.57036657 25.1108097 -13.8671875 23.16796875 C-14.10864502 21.54411255 -14.10864502 21.54411255 -14.35498047 19.88745117 C-14.81865002 16.82951366 -14.81865002 16.82951366 -17.125 14.3125 C-23.32684899 11.48122111 -30.41573177 11.32471282 -37 13 C-40.74795649 15.69084055 -41.20410799 17.51026999 -43 22 C-50.59 22.33 -58.18 22.66 -66 23 C-66 14.33934409 -64.31887941 10.15483128 -58.375 4 C-55.30803571 1 -55.30803571 1 -53 1 C-53 0.34 -53 -0.32 -53 -1 C-51.27398621 -1.81917642 -49.5440353 -2.63006016 -47.8125 -3.4375 C-46.84957031 -3.88996094 -45.88664062 -4.34242187 -44.89453125 -4.80859375 C-31.05147289 -10.50647877 -12.2812555 -8.0841261 0 0 Z M-28.4375 44.25 C-29.36626953 44.35957031 -30.29503906 44.46914062 -31.25195312 44.58203125 C-36.83291185 45.33675165 -40.75833733 46.184566 -45 50 C-46.29427323 52.98966419 -46.33980506 55.77473161 -46 59 C-44.14994092 62.47811107 -42.73881059 63.65522172 -39.1875 65.3125 C-32.25788098 66.80712371 -26.36852685 66.01101082 -20 63 C-16.76383888 60.31467481 -14.55648474 57.89467071 -13 54 C-12.75926806 51.17914272 -12.75926806 51.17914272 -12.875 48.25 C-12.89304687 47.26515625 -12.91109375 46.2803125 -12.9296875 45.265625 C-12.95289063 44.51796875 -12.97609375 43.7703125 -13 43 C-18.23223101 42.92320088 -23.2599561 43.55584415 -28.4375 44.25 Z " fill="#151D2A" transform="translate(556,106)"/>
<path d="M0 0 C10.04656676 6.97624268 16.73421442 16.47416665 19.4609375 28.39453125 C21.13522274 40.98346077 21.13522274 40.98346077 18.76953125 45.71484375 C-0.70046875 45.71484375 -20.17046875 45.71484375 -40.23046875 45.71484375 C-37.84767413 55.80680432 -37.84767413 55.80680432 -31.10546875 63.08984375 C-25.77394501 65.70445028 -20.29001924 66.46107558 -14.5078125 65.05078125 C-9.20506001 63.20999256 -9.20506001 63.20999256 -5.61328125 59.0859375 C-2.80547557 56.2919407 -2.07061548 56.34674794 1.75390625 56.2265625 C3.67638852 56.25970875 5.5985612 56.31921256 7.51953125 56.40234375 C8.50308594 56.42490234 9.48664063 56.44746094 10.5 56.47070312 C12.92472595 56.5295557 15.34635108 56.61170944 17.76953125 56.71484375 C16.79074002 65.31233432 14.97601715 70.32011872 8.140625 75.9765625 C-3.0212343 84.15947417 -13.50898752 86.76278504 -27.23046875 85.71484375 C-41.54421384 83.29774695 -51.15935345 75.93700285 -59.49609375 64.43359375 C-66.4703269 53.50101206 -66.37959902 39.62736114 -63.85546875 27.33984375 C-62.94935382 23.28520828 -61.87457441 19.5320282 -60.23046875 15.71484375 C-59.57046875 15.71484375 -58.91046875 15.71484375 -58.23046875 15.71484375 C-58.00359375 15.01359375 -57.77671875 14.31234375 -57.54296875 13.58984375 C-53.56924267 4.88549138 -45.77615481 0.02825536 -37.23046875 -3.66015625 C-25.11055523 -7.70579358 -11.03500249 -6.35817131 0 0 Z M-36.23046875 18.71484375 C-38.50544115 22.23738166 -39.75359503 25.54219866 -40.23046875 29.71484375 C-39.08458774 31.08801463 -39.08458774 31.08801463 -35.99584961 30.82836914 C-34.56232749 30.82821006 -33.12879963 30.82251782 -31.6953125 30.8125 C-30.94206192 30.81108505 -30.18881134 30.8096701 -29.41273499 30.80821228 C-26.99777315 30.80259751 -24.58290274 30.79004258 -22.16796875 30.77734375 C-20.53450654 30.77233065 -18.90104289 30.76776741 -17.26757812 30.76367188 C-13.2551729 30.75262329 -9.24283634 30.73534881 -5.23046875 30.71484375 C-5.05970512 24.943033 -5.36397617 22.17618134 -9.23046875 17.71484375 C-14.38611903 13.63328728 -18.75142131 13.0281835 -25.28515625 13.265625 C-29.78467791 13.95189157 -32.95391132 15.57000722 -36.23046875 18.71484375 Z " fill="#141C29" transform="translate(766.23046875,104.28515625)"/>
<path d="M0 0 C2.23071289 -0.35644531 2.23071289 -0.35644531 4.97265625 -0.328125 C6.44508789 -0.32039063 6.44508789 -0.32039063 7.94726562 -0.3125 C8.97529297 -0.291875 10.00332031 -0.27125 11.0625 -0.25 C12.09439453 -0.24484375 13.12628906 -0.2396875 14.18945312 -0.234375 C21.84616902 -0.15383098 21.84616902 -0.15383098 23 1 C23.08685603 2.56172745 23.10702219 4.12729344 23.09765625 5.69140625 C23.09443359 6.63564453 23.09121094 7.57988281 23.08789062 8.55273438 C23.07532227 10.04256836 23.07532227 10.04256836 23.0625 11.5625 C23.05798828 12.55958984 23.05347656 13.55667969 23.04882812 14.58398438 C23.03700007 17.05604849 23.02051849 19.52799518 23 22 C24.80597656 21.98259766 24.80597656 21.98259766 26.6484375 21.96484375 C28.22395679 21.95546566 29.79947775 21.94636548 31.375 21.9375 C32.1690625 21.92912109 32.963125 21.92074219 33.78125 21.91210938 C39.7734375 21.88671875 39.7734375 21.88671875 42 23 C42.97269996 25.91809988 43.13423385 27.83706289 43.125 30.875 C43.12886719 32.13957031 43.12886719 32.13957031 43.1328125 33.4296875 C43 36 43 36 42 41 C35.73 41 29.46 41 23 41 C23.09694578 46.90859012 23.19968331 52.81648049 23.31738281 58.72460938 C23.35565669 60.73431238 23.39051236 62.74408351 23.421875 64.75390625 C23.46755991 67.6434768 23.52554887 70.53257896 23.5859375 73.421875 C23.59748871 74.31992859 23.60903992 75.21798218 23.62094116 76.14324951 C23.64081085 76.98381897 23.66068054 77.82438843 23.68115234 78.69042969 C23.69447601 79.42767273 23.70779968 80.16491577 23.7215271 80.92449951 C24.04750754 83.35408086 24.66577229 84.94438494 26 87 C30.65775751 88.80606924 35.21915234 89.3419296 40.1796875 89.75390625 C42 90 42 90 43 91 C43.07319621 93.69654854 43.09242537 96.36691458 43.0625 99.0625 C43.05798828 99.82111328 43.05347656 100.57972656 43.04882812 101.36132812 C43.0370068 103.24091871 43.01907078 105.12046899 43 107 C39.20693349 109.48579554 35.31647842 109.34423521 30.9375 109.3125 C30.18251221 109.30976074 29.42752441 109.30702148 28.6496582 109.30419922 C19.99547168 109.14368025 10.69860981 107.78881981 4.4375 101.375 C-1.09766398 94.29422375 -1.42284403 87.1438229 -1.29296875 78.5 C-1.28872391 77.42371338 -1.28447906 76.34742676 -1.28010559 75.23852539 C-1.26341025 71.8254213 -1.22577443 68.41292345 -1.1875 65 C-1.17244137 62.67578982 -1.15875503 60.35157032 -1.14648438 58.02734375 C-1.11353659 52.35133149 -1.06181718 46.67576828 -1 41 C-5.62 41 -10.24 41 -15 41 C-15 35.06 -15 29.12 -15 23 C-10.38 22.67 -5.76 22.34 -1 22 C-1.09539063 20.66324219 -1.19078125 19.32648438 -1.2890625 17.94921875 C-1.4016103 16.1953489 -1.51355829 14.44144048 -1.625 12.6875 C-1.68945312 11.80642578 -1.75390625 10.92535156 -1.8203125 10.01757812 C-1.871875 9.17001953 -1.9234375 8.32246094 -1.9765625 7.44921875 C-2.02893066 6.66893311 -2.08129883 5.88864746 -2.13525391 5.0847168 C-2 3 -2 3 0 0 Z " fill="#141C29" transform="translate(655,79)"/>
<path d="M0 0 C1.00023193 0.00523682 2.00046387 0.01047363 3.03100586 0.01586914 C4.1105957 0.0190918 5.19018555 0.02231445 6.30249023 0.02563477 C8.00695312 0.03820312 8.00695312 0.03820312 9.74584961 0.05102539 C11.45611328 0.05779297 11.45611328 0.05779297 13.20092773 0.06469727 C16.02845312 0.07652792 18.85587601 0.09301129 21.68334961 0.11352539 C21.73002676 15.59464109 21.76531739 31.07575155 21.78697395 46.55692101 C21.7972958 53.74475834 21.81137341 60.93255201 21.83422852 68.12036133 C21.85413468 74.38371675 21.86705944 80.64704056 21.8715266 86.91042674 C21.87413871 90.22824648 21.88133792 93.54595441 21.89480972 96.86375046 C21.9092403 100.56343799 21.91133109 104.26293553 21.91040039 107.96264648 C21.92118622 109.62096748 21.92118622 109.62096748 21.93218994 111.31278992 C21.92944061 112.31682358 21.92669128 113.32085724 21.92385864 114.35531616 C21.92570223 115.2310195 21.92754581 116.10672283 21.92944527 117.00896263 C21.68334961 119.11352539 21.68334961 119.11352539 19.68334961 121.11352539 C17.56030273 121.37231445 17.56030273 121.37231445 14.96459961 121.37915039 C14.03260742 121.38172852 13.10061523 121.38430664 12.14038086 121.38696289 C11.16456055 121.37922852 10.18874023 121.37149414 9.18334961 121.36352539 C7.71961914 121.37512695 7.71961914 121.37512695 6.22631836 121.38696289 C5.29432617 121.38438477 4.36233398 121.38180664 3.40209961 121.37915039 C2.54551758 121.37689453 1.68893555 121.37463867 0.80639648 121.37231445 C-1.31665039 121.11352539 -1.31665039 121.11352539 -3.31665039 119.11352539 C-3.56553936 117.02737331 -3.56553936 117.02737331 -3.56388855 114.40000916 C-3.56808304 113.40583481 -3.57227753 112.41166046 -3.57659912 111.38735962 C-3.57097961 110.29273407 -3.56536011 109.19810852 -3.55957031 108.0703125 C-3.56146866 106.92070541 -3.563367 105.77109833 -3.56532288 104.58665466 C-3.56903985 100.77132434 -3.5583139 96.95618266 -3.54711914 93.14086914 C-3.54592783 90.50053429 -3.54547407 87.860199 -3.54573059 85.21986389 C-3.54479354 79.68073154 -3.53610345 74.14165392 -3.52246094 68.60253906 C-3.50672723 62.19049895 -3.50146307 55.77851876 -3.50219649 49.36646074 C-3.50280597 43.2069652 -3.49760067 37.04749244 -3.48940468 30.8880024 C-3.48621128 28.26241741 -3.48424905 25.63683064 -3.48351097 23.01124382 C-3.48135496 19.34991271 -3.47262703 15.68865848 -3.46191406 12.02734375 C-3.46236725 10.93069397 -3.46282043 9.83404419 -3.46328735 8.7041626 C-3.45902237 7.71280807 -3.45475739 6.72145355 -3.45036316 5.70005798 C-3.44868731 4.83340484 -3.44701147 3.96675169 -3.44528484 3.07383633 C-3.25618842 0.1921217 -2.89005307 0.14162448 0 0 Z " fill="#1B232F" transform="translate(454.316650390625,66.886474609375)"/>
<path d="M0 0 C1.29292969 -0.01417969 2.58585938 -0.02835937 3.91796875 -0.04296875 C7.9433417 0.19524289 11.00804003 0.93908447 14.8125 2.1875 C14.8125 4.4975 14.8125 6.8075 14.8125 9.1875 C15.32039062 8.78917969 15.82828125 8.39085938 16.3515625 7.98046875 C17.03992188 7.45066406 17.72828125 6.92085938 18.4375 6.375 C19.11039063 5.85292969 19.78328125 5.33085938 20.4765625 4.79296875 C25.91816113 1.05300715 30.10607667 -0.24871658 36.6875 0 C37.37585938 0.01353516 38.06421875 0.02707031 38.7734375 0.04101562 C40.45347001 0.0760163 42.1330935 0.12981046 43.8125 0.1875 C44.59938445 2.96473925 44.93199924 5.41360077 44.91015625 8.296875 C44.90693359 9.05097656 44.90371094 9.80507812 44.90039062 10.58203125 C44.88782227 11.74798828 44.88782227 11.74798828 44.875 12.9375 C44.87048828 13.73027344 44.86597656 14.52304688 44.86132812 15.33984375 C44.84958565 17.28909508 44.83165146 19.23830738 44.8125 21.1875 C43.18441406 21.35185547 43.18441406 21.35185547 41.5234375 21.51953125 C40.07805848 21.67908608 38.63274949 21.83927611 37.1875 22 C36.11822266 22.10538086 36.11822266 22.10538086 35.02734375 22.21289062 C29.37707725 22.86085697 24.9246267 24.25641274 20.625 28.1875 C14.03536974 39.09447423 15.5276073 52.00431312 15.75 64.25 C15.79783408 67.22268405 15.8410796 70.1951678 15.87220764 73.16807556 C15.89197675 75.00786407 15.92161881 76.84757859 15.96214294 78.68702698 C15.97197708 79.51226364 15.98181122 80.33750031 15.99194336 81.18774414 C16.0054332 81.91401505 16.01892303 82.64028595 16.03282166 83.38856506 C15.8125 85.1875 15.8125 85.1875 13.8125 87.1875 C11.79711914 87.44628906 11.79711914 87.44628906 9.34765625 87.453125 C8.46529297 87.45570313 7.58292969 87.45828125 6.67382812 87.4609375 C5.75021484 87.45320313 4.82660156 87.44546875 3.875 87.4375 C2.95525391 87.44523437 2.03550781 87.45296875 1.08789062 87.4609375 C0.20423828 87.45835937 -0.67941406 87.45578125 -1.58984375 87.453125 C-2.39929443 87.45086914 -3.20874512 87.44861328 -4.04272461 87.44628906 C-6.1875 87.1875 -6.1875 87.1875 -9.1875 85.1875 C-9.47381983 82.46569956 -9.56581034 79.97229099 -9.52807617 77.24951172 C-9.52851425 76.42991974 -9.52895233 75.61032776 -9.52940369 74.76589966 C-9.52730906 72.04942222 -9.50394665 69.33355747 -9.48046875 66.6171875 C-9.47487518 64.73674863 -9.47060396 62.8563054 -9.46760559 60.9758606 C-9.45613795 56.0207721 -9.42665435 51.0659464 -9.39349365 46.11096191 C-9.36283404 41.0570837 -9.34910906 36.00316311 -9.33398438 30.94921875 C-9.30178643 21.02853021 -9.25056699 11.10803694 -9.1875 1.1875 C-6.1686799 -0.32191005 -3.3565314 0.01656728 0 0 Z " fill="#18202C" transform="translate(590.1875,100.8125)"/>
<path d="M0 0 C1.8828125 0.4765625 1.8828125 0.4765625 4 2 C4.80667039 4.8382847 5.38535716 7.48232269 5.875 10.375 C7.75469334 19.83653103 9.8991045 29.45968538 18.0625 35.5 C27.11929675 40.68182498 37.94148171 42.60770376 48 45 C47.26098633 46.92749023 47.26098633 46.92749023 46 49 C44.1081543 49.77368164 44.1081543 49.77368164 41.82421875 50.16015625 C40.99599609 50.31419922 40.16777344 50.46824219 39.31445312 50.62695312 C38.44755859 50.77068359 37.58066406 50.91441406 36.6875 51.0625 C31.12641365 52.02217504 26.77937346 52.83467386 22 56 C21.01 56 20.02 56 19 56 C19 56.66 19 57.32 19 58 C18.38125 58.2475 17.7625 58.495 17.125 58.75 C14.64931313 60.20628639 14.04874998 61.37812506 13 64 C12.34 64 11.68 64 11 64 C10.814375 65.1446875 10.814375 65.1446875 10.625 66.3125 C10 69 10 69 8 72 C7.40020117 73.93608161 7.40020117 73.93608161 7 76.0625 C6.75636719 77.238125 6.75636719 77.238125 6.5078125 78.4375 C6.34023437 79.283125 6.17265625 80.12875 6 81 C5.81179687 81.928125 5.62359375 82.85625 5.4296875 83.8125 C4.94668234 86.20711711 4.47041545 88.60288299 4 91 C2.02 91.495 2.02 91.495 0 92 C-0.18175781 91.17757812 -0.36351562 90.35515625 -0.55078125 89.5078125 C-1.3409632 85.99859419 -2.16509553 82.49883223 -3 79 C-3.20496094 78.09636719 -3.40992188 77.19273437 -3.62109375 76.26171875 C-5.69807996 68.17308302 -9.72247511 60.61509555 -17 56.125 C-23.2959251 53.06883053 -30.22520065 51.61552907 -37 50 C-38.64623512 49.58492362 -40.29217042 49.16865148 -41.9375 48.75 C-42.948125 48.5025 -43.95875 48.255 -45 48 C-44.67 47.01 -44.34 46.02 -44 45 C-42.05395508 44.15625 -42.05395508 44.15625 -39.51953125 43.5 C-38.60236328 43.2525 -37.68519531 43.005 -36.74023438 42.75 C-35.77408203 42.5025 -34.80792969 42.255 -33.8125 42 C-27.86286722 40.44475222 -22.45311483 38.92224335 -17 36 C-16.34 36 -15.68 36 -15 36 C-15 35.34 -15 34.68 -15 34 C-13.3545622 32.31237149 -11.68711423 30.6459651 -10 29 C-9.67 28.34 -9.34 27.68 -9 27 C-8.34 27 -7.68 27 -7 27 C-4.49474132 18.04180231 -2.23180355 9.02917477 0 0 Z " fill="#151D2A" transform="translate(216,116)"/>
<path d="M0 0 C3.93622829 2.04100726 6.48209259 3.74985925 8 8 C8.391875 7.236875 8.78375 6.47375 9.1875 5.6875 C11.29191983 2.56715336 12.52255738 1.43633499 16 0 C20.60106159 -0.68597646 23.89220222 -0.65996463 27.9375 1.75 C31.9768172 6.15652785 32.23073938 9.00077621 32 15 C31.01 15.33 30.02 15.66 29 16 C29.66 17.65 30.32 19.3 31 21 C30.34 21 29.68 21 29 21 C28.773125 21.61875 28.54625 22.2375 28.3125 22.875 C26.56566945 25.70320184 25.18884507 26.18424894 22 27 C17.31520566 26.75343188 13.83584119 24.53310267 10 22 C7.1427385 18.5215947 7.85692256 14.29232308 8 10 C6.906875 10.061875 5.81375 10.12375 4.6875 10.1875 C0.51090991 9.97513101 0.66961478 9.66961478 -2 7 C-5.14921909 7.23283149 -5.14921909 7.23283149 -8 8 C-8.95940187 12.70392312 -8.95940187 12.70392312 -8.3125 17.375 C-7.09185496 19.11610801 -7.09185496 19.11610801 -5.125 19.9375 C-2.87665501 20.2331072 -2.87665501 20.2331072 -1.125 18.5 C1 17 1 17 4.25 17.3125 C5.61125 17.6528125 5.61125 17.6528125 7 18 C6.69025617 20.89094238 5.95829554 22.04691751 4 24.25 C-0.10932337 26.6471053 -3.35114238 26.91387799 -8 26 C-12.03923836 24.20563135 -14.4213082 22.08504712 -16.5 18.1875 C-17.23028066 13.53196079 -17.40515814 9.34869394 -14.91796875 5.19140625 C-10.81298062 0.01986532 -6.38851078 -0.88159033 0 0 Z M17 6 C16.34 7.32 15.68 8.64 15 10 C16.00836062 11.23267348 16.00836062 11.23267348 18.06640625 11.09765625 C18.89011719 11.08605469 19.71382813 11.07445312 20.5625 11.0625 C21.80193359 11.04896484 21.80193359 11.04896484 23.06640625 11.03515625 C24.02353516 11.01775391 24.02353516 11.01775391 25 11 C24.50243908 8.24358584 24.50243908 8.24358584 23 6 C21.00041636 5.95919217 18.99954746 5.95745644 17 6 Z M15 16 C15.33 17.32 15.66 18.64 16 20 C19.26276567 20.86013727 19.26276567 20.86013727 23 21 C25.92860404 19.20954506 25.92860404 19.20954506 28 17 C26.91447634 15.68737429 26.91447634 15.68737429 24.27734375 15.90234375 C23.17519531 15.91394531 22.07304687 15.92554688 20.9375 15.9375 C19.83277344 15.94652344 18.72804688 15.95554688 17.58984375 15.96484375 C16.73519531 15.97644531 15.88054687 15.98804688 15 16 Z " fill="#3A4442" transform="translate(459,235)"/>
<path d="M0 0 C1.82917969 0.00580078 1.82917969 0.00580078 3.6953125 0.01171875 C6.875 0.3125 6.875 0.3125 9.875 2.3125 C10.24731445 4.66333008 10.24731445 4.66333008 10.23828125 7.58203125 C10.23763672 8.63583984 10.23699219 9.68964844 10.23632812 10.77539062 C10.22021484 11.88076172 10.20410156 12.98613281 10.1875 14.125 C10.19233398 15.7656543 10.19233398 15.7656543 10.19726562 17.43945312 C10.12225082 28.6302974 10.12225082 28.6302974 5.9375 33.625 C1.34889616 36.15341436 -3.00317266 36.24164709 -8.125 35.3125 C-10.47681696 33.85709293 -11.47220997 32.59221039 -13.125 30.3125 C-12.795 29.3225 -12.465 28.3325 -12.125 27.3125 C-9.52821849 27.74529692 -7.43314759 28.13916698 -5.125 29.4375 C-2.47522223 30.59677778 -0.85562678 30.07100744 1.875 29.3125 C1.545 28.3225 1.215 27.3325 0.875 26.3125 C0.21113281 26.37050781 -0.45273437 26.42851562 -1.13671875 26.48828125 C-8.41856641 26.86034646 -8.41856641 26.86034646 -12.1875 23.9375 C-15.89576347 18.91340111 -15.61123198 14.42134183 -15.125 8.3125 C-12.34830907 1.29770185 -7.10630139 -0.09806998 0 0 Z M-6.875 7.5 C-8.52420672 9.89134975 -8.9893223 11.39542952 -9.125 14.3125 C-8.14144692 17.61311832 -8.14144692 17.61311832 -6.125 20.3125 C-3.74616511 21.6384856 -3.74616511 21.6384856 -1.125 21.3125 C1.37220824 19.9840404 1.37220824 19.9840404 2.875 17.3125 C3.5183625 13.75256083 3.58622019 10.51034453 1.6875 7.3125 C-1.39475434 5.61194588 -3.92964553 5.50136661 -6.875 7.5 Z " fill="#232827" transform="translate(380.125,234.6875)"/>
<path d="M0 0 C5.5073246 -0.36715497 5.5073246 -0.36715497 7.56005859 1.16259766 C9.39861565 3.50864385 10.22922198 5.77681453 11.2265625 8.5859375 C11.6184375 9.68164062 12.0103125 10.77734375 12.4140625 11.90625 C12.81367188 13.0509375 13.21328125 14.195625 13.625 15.375 C14.03234375 16.51195312 14.4396875 17.64890625 14.859375 18.8203125 C18.39860662 28.80516462 18.39860662 28.80516462 19 33 C18 34 18 34 15.6875 34.4375 C13 34 13 34 10.8125 31.0625 C10.214375 30.051875 9.61625 29.04125 9 28 C6.59454362 26.79727181 5.05003047 26.89928528 2.375 26.9375 C1.55773437 26.94652344 0.74046875 26.95554688 -0.1015625 26.96484375 C-0.72804688 26.97644531 -1.35453125 26.98804688 -2 27 C-2.53625 28.134375 -3.0725 29.26875 -3.625 30.4375 C-5.36742851 33.54629332 -5.62276269 33.89118154 -9.25 34.9375 C-10.1575 34.958125 -11.065 34.97875 -12 35 C-11.47910092 28.25988159 -9.60705245 22.63795673 -7.125 16.375 C-6.77308594 15.45976562 -6.42117188 14.54453125 -6.05859375 13.6015625 C-4.24670644 8.94049924 -2.33605519 4.42234347 0 0 Z M2 11 C1.34 13.97 0.68 16.94 0 20 C2.31 20 4.62 20 7 20 C6.01 17.03 5.02 14.06 4 11 C3.34 11 2.68 11 2 11 Z " fill="#2C3132" transform="translate(345,226)"/>
<path d="M0 0 C1.65 0.33 3.3 0.66 5 1 C6.32 4.96 7.64 8.92 9 13 C10.32 9.04 11.64 5.08 13 1 C14.65 0.67 16.3 0.34 18 0 C20.56984833 3.85477249 21.85814266 7.52040582 23 12 C24.79068573 9.3139714 25.66055791 7.3373411 26.625 4.3125 C26.88539063 3.50425781 27.14578125 2.69601563 27.4140625 1.86328125 C27.60742188 1.24839844 27.80078125 0.63351563 28 0 C29.65 0 31.3 0 33 0 C34.02254658 3.13446999 33.98503523 4.88492529 32.85546875 7.96875 C32.59056641 8.70480469 32.32566406 9.44085938 32.05273438 10.19921875 C31.76720703 10.95847656 31.48167969 11.71773437 31.1875 12.5 C30.77661133 13.63888672 30.77661133 13.63888672 30.35742188 14.80078125 C29.07461827 18.31387891 27.71612542 21.67254364 26 25 C24.35 25 22.7 25 21 25 C20.28385417 23.27473958 19.56770833 21.54947917 18.8515625 19.82421875 C17.93193308 17.73466068 17.93193308 17.73466068 16 15 C14.68 18.3 13.36 21.6 12 25 C10.02 25 8.04 25 6 25 C4.81987249 21.94251918 3.65833833 18.87829508 2.5 15.8125 C2.16613281 14.94818359 1.83226562 14.08386719 1.48828125 13.19335938 C1.17246094 12.35224609 0.85664062 11.51113281 0.53125 10.64453125 C0.23798828 9.87471924 -0.05527344 9.10490723 -0.35742188 8.31176758 C-1.06667375 5.76013157 -1.18355821 3.63638306 -1 1 C-0.67 0.67 -0.34 0.34 0 0 Z " fill="#3B4243" transform="translate(886,235)"/>
<path d="M0 0 C1.2065625 0.0309375 1.2065625 0.0309375 2.4375 0.0625 C3.91462785 3.0167557 3.56739998 5.67510204 3.5703125 8.96875 C3.57174759 9.98950623 3.57174759 9.98950623 3.57321167 11.03088379 C3.57389231 12.46997164 3.57204607 13.90906257 3.56787109 15.34814453 C3.56252115 17.55378093 3.56781991 19.7592137 3.57421875 21.96484375 C3.57355795 23.36197962 3.57227674 24.75911536 3.5703125 26.15625 C3.56918457 27.43177734 3.56805664 28.70730469 3.56689453 30.02148438 C3.4375 33.0625 3.4375 33.0625 2.4375 35.0625 C0.546875 35.44140625 0.546875 35.44140625 -1.8125 35.625 C-4.48427522 35.83958352 -6.5764151 36.0672515 -9.125 36.9375 C-13.24811958 37.14894203 -16.50377546 34.68908685 -19.5625 32.0625 C-22.37922916 27.72419368 -22.21677685 23.06022915 -21.5625 18.0625 C-19.56592873 14.20705202 -18.16542362 12.46444908 -14.5625 10.0625 C-12.37109375 9.83203125 -12.37109375 9.83203125 -10 9.875 C-9.21496094 9.88144531 -8.42992187 9.88789063 -7.62109375 9.89453125 C-5.5625 10.0625 -5.5625 10.0625 -3.5625 11.0625 C-3.57410156 10.35222656 -3.58570313 9.64195312 -3.59765625 8.91015625 C-3.60667969 7.99105469 -3.61570312 7.07195312 -3.625 6.125 C-3.63660156 5.20847656 -3.64820313 4.29195312 -3.66015625 3.34765625 C-3.52086326 0.08820018 -3.27895972 0.07997463 0 0 Z M-14.5625 19.0625 C-15.17566399 22.11174794 -15.0749209 24.99936175 -14.5625 28.0625 C-13.04172114 30.35015772 -13.04172114 30.35015772 -10.5625 31.0625 C-7.92712492 31.06885246 -7.92712492 31.06885246 -5.5625 30.0625 C-3.08907734 26.35236601 -3.17746514 24.45189738 -3.5625 20.0625 C-4.58240794 17.56151018 -4.58240794 17.56151018 -6.5625 16.0625 C-10.46569836 15.37944029 -12.15005359 15.97649306 -14.5625 19.0625 Z " fill="#485251" transform="translate(523.5625,224.9375)"/>
<path d="M0 0 C2.625 0.375 2.625 0.375 5 1 C5.02465288 5.68139254 5.04283739 10.36274759 5.05493164 15.04418945 C5.05997157 16.63794614 5.0668035 18.23169819 5.07543945 19.82543945 C5.08751999 22.11150253 5.09323155 24.39750467 5.09765625 26.68359375 C5.10281754 27.40026718 5.10797882 28.11694061 5.11329651 28.85533142 C5.11349263 30.57063672 5.06192007 32.28581266 5 34 C2.01203005 36.98796995 -4.99423846 36.81104898 -9 37 C-13.01476683 35.86067428 -16.42772064 33.2868014 -19 30 C-20.59121454 25.22635638 -20.79879085 20.84983145 -18.8125 16.25 C-14.000962 10.27705628 -14.000962 10.27705628 -9.96875 9.71875 C-7.06244884 9.67662969 -4.63151275 9.68424362 -2 11 C-2.02320313 10.37351563 -2.04640625 9.74703125 -2.0703125 9.1015625 C-2.08835937 8.28429687 -2.10640625 7.46703125 -2.125 6.625 C-2.14820313 5.81289062 -2.17140625 5.00078125 -2.1953125 4.1640625 C-2 2 -2 2 0 0 Z M-11.875 17.5625 C-13.43641373 20.94556308 -13.46048843 23.31609259 -13 27 C-11.47722993 29.60720318 -11.47722993 29.60720318 -9 31 C-5.60845705 30.83849795 -4.41703243 30.41703243 -2 28 C-0.84505893 24.09096868 -0.81828567 22.42663365 -2.4375 18.625 C-2.953125 17.75875 -3.46875 16.8925 -4 16 C-8.28158753 15.5396536 -8.28158753 15.5396536 -11.875 17.5625 Z " fill="#3B4343" transform="translate(762,225)"/>
<path d="M0 0 C1.2065625 0.0309375 1.2065625 0.0309375 2.4375 0.0625 C3.58639133 4.00155597 3.96332695 7.99815958 4.4375 12.0625 C4.97375 11.711875 5.51 11.36125 6.0625 11 C9.30308323 9.72082241 11.10624645 10.11071327 14.4375 11.0625 C17.90486522 13.34780889 19.86099646 15.24680339 21.4375 19.0625 C22.16548272 23.71820345 21.86564156 27.20621687 19.75 31.4375 C17.40023973 34.10479544 15.7184479 35.70210697 12.4375 37.0625 C10.25 36.8125 10.25 36.8125 7.4375 36.0625 C4.80899231 35.82056247 2.18010235 35.62448567 -0.453125 35.44140625 C-1.49726562 35.25384766 -1.49726562 35.25384766 -2.5625 35.0625 C-4.03610305 32.11529391 -3.70483596 29.13214632 -3.6953125 25.90234375 C-3.69626923 25.19727188 -3.69722595 24.49220001 -3.69821167 23.76576233 C-3.69889229 22.27539989 -3.69704621 20.78503448 -3.69287109 19.29467773 C-3.68751318 17.00562942 -3.69282409 14.71677663 -3.69921875 12.42773438 C-3.6985581 10.9817704 -3.69727722 9.53580654 -3.6953125 8.08984375 C-3.69733673 7.40131821 -3.69936096 6.71279266 -3.70144653 6.00340271 C-3.67204991 0.08956219 -3.67204991 0.08956219 0 0 Z M4.5625 17.0625 C2.77801669 20.23491478 3.06439995 23.50369949 3.4375 27.0625 C3.7675 28.0525 4.0975 29.0425 4.4375 30.0625 C7.23795046 30.91900653 7.23795046 30.91900653 10.4375 31.0625 C13.47185177 29.01226232 14.29317819 27.59538053 15.25 24.0625 C15.41900406 21.358435 15.45340139 19.55607614 14.4375 17.0625 C11.15859973 15.42304986 7.82395851 15.32305546 4.5625 17.0625 Z " fill="#414948" transform="translate(948.5625,224.9375)"/>
<path d="M0 0 C1.32 0.66 2.64 1.32 4 2 C4 3.65 4 5.3 4 7 C5.1446875 6.7525 5.1446875 6.7525 6.3125 6.5 C9 6 9 6 12 6 C12.86625 5.979375 13.7325 5.95875 14.625 5.9375 C17 6 17 6 18 7 C18.08713831 8.70772358 18.10700007 10.41898649 18.09765625 12.12890625 C18.09443359 13.16337891 18.09121094 14.19785156 18.08789062 15.26367188 C18.07951172 16.35228516 18.07113281 17.44089844 18.0625 18.5625 C18.05798828 19.65498047 18.05347656 20.74746094 18.04882812 21.87304688 C18.03699826 24.58208495 18.02051543 27.29101599 18 30 C11.57240149 32.28536836 5.11726259 32.89695868 -1.23828125 29.96875 C-3.95898095 26.92832285 -3.42520555 23.67039141 -3.25 19.8125 C-3.23195313 19.06291016 -3.21390625 18.31332031 -3.1953125 17.54101562 C-3.14824109 15.6934629 -3.07649766 13.84656841 -3 12 C-3.99 11.67 -4.98 11.34 -6 11 C-5.67 9.68 -5.34 8.36 -5 7 C-4.34 7 -3.68 7 -3 7 C-3.061875 6.21625 -3.12375 5.4325 -3.1875 4.625 C-3.125625 3.75875 -3.06375 2.8925 -3 2 C-2.01 1.34 -1.02 0.68 0 0 Z M3 13 C2.5585482 15.82480807 2.5585482 15.82480807 2.6875 19 C2.69136719 20.0725 2.69523438 21.145 2.69921875 22.25 C2.72523083 25.14258651 2.72523083 25.14258651 5 27 C7.58354218 27.16687448 7.58354218 27.16687448 10 27 C10.33 27.66 10.66 28.32 11 29 C11 23.06 11 17.12 11 11 C6.09245003 10.53774984 6.09245003 10.53774984 3 13 Z " fill="#9BB2AD" transform="translate(660,229)"/>
<path d="M0 0 C3.13180809 1.62390049 5.24339744 3.00266026 7.375 5.8125 C8.26555981 8.92945935 8.18220392 11.781064 8 15 C7 16 7 16 3.62109375 16.09765625 C2.22652923 16.09098369 0.83198257 16.07902532 -0.5625 16.0625 C-1.27341797 16.05798828 -1.98433594 16.05347656 -2.71679688 16.04882812 C-4.47790013 16.03700864 -6.23896036 16.01907263 -8 16 C-7.34 17.32 -6.68 18.64 -6 20 C-3.58354218 20.16687448 -3.58354218 20.16687448 -1 20 C-0.34 19.34 0.32 18.68 1 18 C4.125 17.875 4.125 17.875 7 18 C7 19.32 7 20.64 7 22 C3.59249694 24.773549 0.46444391 27 -4 27 C-8.20163063 25.44506583 -12.14543231 23.53422666 -15 20 C-16.38096803 15.49000315 -16.20166949 11.68343548 -14.875 7.1875 C-11.23816464 1.00487989 -7.23774577 -1.41638861 0 0 Z M-6 6 C-6.66 7.32 -7.32 8.64 -8 10 C-6.81575674 11.41577477 -6.81575674 11.41577477 -3.4375 11.0625 C-1.7359375 11.0315625 -1.7359375 11.0315625 0 11 C0.59070014 9.05396726 0.59070014 9.05396726 1 7 C-0.12534105 5.64381501 -0.12534105 5.64381501 -3.0625 5.9375 C-4.031875 5.958125 -5.00125 5.97875 -6 6 Z " fill="#384040" transform="translate(935,235)"/>
<path d="M0 0 C2.90302132 2.15635945 4.64890986 3.83041222 5.6171875 7.375 C5.86984003 9.59623685 5.99568824 11.73868009 5.9609375 13.97265625 C1.91614362 15.93877127 -0.90791998 16.08596861 -5.3515625 15.59765625 C-6.42019531 15.48679688 -7.48882813 15.3759375 -8.58984375 15.26171875 C-9.39808594 15.16632813 -10.20632813 15.0709375 -11.0390625 14.97265625 C-10.7090625 16.29265625 -10.3790625 17.61265625 -10.0390625 18.97265625 C-7.3990625 18.97265625 -4.7590625 18.97265625 -2.0390625 18.97265625 C-2.0390625 18.31265625 -2.0390625 17.65265625 -2.0390625 16.97265625 C-0.0590625 16.97265625 1.9209375 16.97265625 3.9609375 16.97265625 C3.7734375 19.28515625 3.7734375 19.28515625 2.9609375 21.97265625 C-0.14448458 24.38798454 -3.09157812 25.88085429 -7.0390625 25.97265625 C-11.02062198 24.65068464 -14.15813414 22.90864263 -17.0390625 19.84765625 C-18.54653477 15.51367347 -18.69916118 11.50630106 -18.0390625 6.97265625 C-16.43213115 3.75879355 -15.09570081 1.80287206 -12.2890625 -0.40234375 C-7.8728356 -1.62907344 -4.1289782 -2.08030894 0 0 Z M-9.0390625 4.97265625 C-9.6990625 6.29265625 -10.3590625 7.61265625 -11.0390625 8.97265625 C-10.05638391 10.17826809 -10.05638391 10.17826809 -8.19140625 10.0703125 C-6.140625 10.03776042 -4.08984375 10.00520833 -2.0390625 9.97265625 C-1.7090625 9.31265625 -1.3790625 8.65265625 -1.0390625 7.97265625 C-2.22430247 6.3685141 -2.22430247 6.3685141 -4.0390625 4.97265625 C-6.66476954 4.72195712 -6.66476954 4.72195712 -9.0390625 4.97265625 Z " fill="#2C3333" transform="translate(547.0390625,236.02734375)"/>
<path d="M0 0 C3.06765423 1.72196807 5.40321354 3.80642707 7 7 C7.18704404 9.69013339 7.08581391 12.29686177 7 15 C6 16 6 16 2.62109375 16.09765625 C1.22652923 16.09098369 -0.16801743 16.07902532 -1.5625 16.0625 C-2.27341797 16.05798828 -2.98433594 16.05347656 -3.71679688 16.04882812 C-5.47790013 16.03700864 -7.23896036 16.01907263 -9 16 C-8.34 17.32 -7.68 18.64 -7 20 C-4.08347826 20.16681109 -4.08347826 20.16681109 -1 20 C-0.34 19.34 0.32 18.68 1 18 C2.32 18 3.64 18 5 18 C5.33 18.99 5.66 19.98 6 21 C-0.57831325 27.10843373 -0.57831325 27.10843373 -6 27 C-10.69667685 25.63125417 -13.38523116 23.9500973 -16.0625 19.8125 C-17.53290184 13.83286586 -17.15152348 8.37814334 -14 3 C-9.82827699 -0.53964377 -5.24842138 -1.01463331 0 0 Z M-8 6 C-8.66 7.65 -9.32 9.3 -10 11 C-8.72125 11.020625 -7.4425 11.04125 -6.125 11.0625 C-5.40570312 11.07410156 -4.68640625 11.08570313 -3.9453125 11.09765625 C-1.91814596 11.12649242 -1.91814596 11.12649242 0 10 C-0.33 8.68 -0.66 7.36 -1 6 C-3.31 6 -5.62 6 -8 6 Z " fill="#323938" transform="translate(868,235)"/>
<path d="M0 0 C3.04716036 1.48407995 5.0919847 3.19476322 7 6 C7.87826544 9.02402758 8.21180787 11.85597695 8 15 C7 16 7 16 3.40234375 16.09765625 C1.91403133 16.0909822 0.42573568 16.07902183 -1.0625 16.0625 C-1.82111328 16.05798828 -2.57972656 16.05347656 -3.36132812 16.04882812 C-5.24091871 16.0370068 -7.12046899 16.01907078 -9 16 C-8.34 17.32 -7.68 18.64 -7 20 C-2.65815798 19.81535634 -2.65815798 19.81535634 1 18 C2.66617115 17.95936168 4.33388095 17.957279 6 18 C6.33 18.99 6.66 19.98 7 21 C6.34 21 5.68 21 5 21 C5 21.66 5 22.32 5 23 C-1.02998696 26.9797914 -1.02998696 26.9797914 -5 27.0625 C-9.28861644 25.54361501 -13.8987389 23.2025222 -16 19 C-16.5350086 13.63237273 -16.66175234 9.30068563 -14.1875 4.4375 C-9.89734657 -0.34295667 -6.14849869 -1.12993933 0 0 Z M-7 6 C-7.66 7.32 -8.32 8.64 -9 10 C-8.01732141 11.20561184 -8.01732141 11.20561184 -6.15234375 11.09765625 C-4.1015625 11.06510417 -2.05078125 11.03255208 0 11 C0.33 10.34 0.66 9.68 1 9 C0.34 8.01 -0.32 7.02 -1 6 C-4.08365871 5.7497843 -4.08365871 5.7497843 -7 6 Z " fill="#262B2B" transform="translate(408,235)"/>
<path d="M0 0 C3.15456488 1.81219684 4.56405306 3.21114363 6.3125 6.375 C7.0956289 9.36512851 7.20990062 11.92145756 7 15 C5.00383446 16.99616554 1.18298037 16.40983427 -1.5625 16.5625 C-2.62887695 16.62727539 -2.62887695 16.62727539 -3.71679688 16.69335938 C-5.47761912 16.79971777 -7.2387832 16.90038846 -9 17 C-8.34 17.99 -7.68 18.98 -7 20 C-4.5 20.41666667 -4.5 20.41666667 -2 20 C-1.34 19.34 -0.68 18.68 0 18 C2.625 17.875 2.625 17.875 5 18 C5.33 18.66 5.66 19.32 6 20 C1.6284585 25.93280632 1.6284585 25.93280632 -2 27 C-6.58641079 26.70088625 -9.99619 25.19256262 -14 23 C-14 22.01 -14 21.02 -14 20 C-14.66 20 -15.32 20 -16 20 C-17.77882289 14.66353134 -17.44723163 10.04741524 -15 5 C-14.34 5 -13.68 5 -13 5 C-13 4.34 -13 3.68 -13 3 C-12.34 3 -11.68 3 -11 3 C-11 2.34 -11 1.68 -11 1 C-7.53472176 -0.73263912 -3.78892972 -0.4719774 0 0 Z M-8.8125 7.375 C-10.1966722 8.93368783 -10.1966722 8.93368783 -10 11 C-8.72125 11.020625 -7.4425 11.04125 -6.125 11.0625 C-5.40570312 11.07410156 -4.68640625 11.08570313 -3.9453125 11.09765625 C-1.91814596 11.12649242 -1.91814596 11.12649242 0 10 C-0.66 8.68 -1.32 7.36 -2 6 C-5.67271044 5.67164344 -5.67271044 5.67164344 -8.8125 7.375 Z " fill="#3F4747" transform="translate(786,235)"/>
<path d="M0 0 C3.49890004 2.11391877 4.70578686 3.11736059 6 7 C6.09636449 9.88526611 6.13927947 12.74054778 6.125 15.625 C6.13080078 16.80835938 6.13080078 16.80835938 6.13671875 18.015625 C6.12665394 23.87334606 6.12665394 23.87334606 5 25 C-5.5057991 27.80771723 -5.5057991 27.80771723 -10.60546875 26.15625 C-15.55346152 23.20007217 -15.55346152 23.20007217 -16.75 19.984375 C-17.10595789 17.15895928 -16.31150101 15.49185193 -15 13 C-11.71508627 10.81005752 -10.16904361 10.64722661 -6.3125 10.375 C-5.31863281 10.30023438 -4.32476563 10.22546875 -3.30078125 10.1484375 C-2.54152344 10.09945312 -1.78226563 10.05046875 -1 10 C-1.66 8.68 -2.32 7.36 -3 6 C-6.79547921 6.96776098 -6.79547921 6.96776098 -10 9 C-11.66617115 9.04063832 -13.33388095 9.042721 -15 9 C-14.76481427 5.47221403 -14.63136193 3.59190181 -12 1.125 C-7.90983208 -0.40881297 -4.31538529 -0.71923088 0 0 Z M-10 17 C-10 18.32 -10 19.64 -10 21 C-6.58343976 21.16677282 -6.58343976 21.16677282 -3 21 C-2.34 20.34 -1.68 19.68 -1 19 C-1 18.01 -1 17.02 -1 16 C-5.65052872 15.73067479 -5.65052872 15.73067479 -10 17 Z " fill="#333A39" transform="translate(646,235)"/>
<path d="M0 0 C3.57623788 1.9137306 5.69762236 4.09286708 7 8 C7.125 11.625 7.125 11.625 7 15 C6 16 6 16 2.40234375 16.09765625 C0.91403133 16.0909822 -0.57426432 16.07902183 -2.0625 16.0625 C-2.82111328 16.05798828 -3.57972656 16.05347656 -4.36132812 16.04882812 C-6.24091871 16.0370068 -8.12046899 16.01907078 -10 16 C-8.6678281 18.02996831 -8.6678281 18.02996831 -7 20 C-4.45741537 20.50014953 -4.45741537 20.50014953 -2 20 C-1.34 19.34 -0.68 18.68 0 18 C3.625 18.375 3.625 18.375 7 19 C5.77659787 22.6702064 4.16295121 23.29925941 0.88671875 25.1328125 C-1.9462639 26.43492875 -3.9208663 27.30561404 -7 26.43359375 C-11.75820765 24.0637833 -14.65625259 21.98046324 -17 17 C-17.47144777 12.52124614 -17.25597338 8.94795342 -15 5 C-12.875 3.6875 -12.875 3.6875 -11 3 C-11 2.34 -11 1.68 -11 1 C-7.51302098 -0.74348951 -3.80409937 -0.58082725 0 0 Z M-8 6 C-8.66 7.65 -9.32 9.3 -10 11 C-6.7 11 -3.4 11 0 11 C0.33 10.01 0.66 9.02 1 8 C0.34 8 -0.32 8 -1 8 C-1 7.34 -1 6.68 -1 6 C-3.31 6 -5.62 6 -8 6 Z " fill="#434D4B" transform="translate(621,235)"/>
<path d="M0 0 C3.41862703 1.94355278 6.39142823 4.1814025 7.66796875 7.99609375 C8.58580727 13.53551915 8.35333429 17.74423877 5.33203125 22.484375 C2.94364517 25.20195212 0.4216428 26.05609854 -3 27 C-8.37917987 27 -12.15192575 24.56453194 -16 21 C-18.50735752 17.23896372 -18.21455414 13.56196302 -17.61328125 9.22265625 C-16.58947374 5.51216918 -14.77548746 3.64332139 -12 1 C-7.90091112 -0.36636296 -4.27646278 -0.75758529 0 0 Z M-9.9375 7.4375 C-11.52553026 11.26745533 -11.20492085 15.04968988 -10 19 C-7.17431454 21.32038095 -7.17431454 21.32038095 -3.9375 20.8125 C-0.70259047 20.26245502 -0.70259047 20.26245502 1 17 C1.32783949 13.39376565 1.40343025 10.87409887 -0.125 7.5625 C-1.98815986 5.74236738 -1.98815986 5.74236738 -5 5.5 C-7.98953 5.76407003 -7.98953 5.76407003 -9.9375 7.4375 Z " fill="#343D3D" transform="translate(698,235)"/>
<path d="M0 0 C0.77279297 -0.02900391 1.54558594 -0.05800781 2.34179688 -0.08789062 C8.05886897 -0.15179599 8.05886897 -0.15179599 11.16796875 2.14453125 C13.37687767 5.2960594 13.81173387 7.79552492 13.78515625 11.54296875 C13.78193359 12.34541016 13.77871094 13.14785156 13.77539062 13.97460938 C13.76701172 14.80798828 13.75863281 15.64136719 13.75 16.5 C13.74548828 17.34498047 13.74097656 18.18996094 13.73632812 19.06054688 C13.72455403 21.14456155 13.7066189 23.22853977 13.6875 25.3125 C8.9375 26.4375 8.9375 26.4375 6.6875 25.3125 C6.62691406 24.09691406 6.56632813 22.88132812 6.50390625 21.62890625 C6.41951668 20.04425772 6.3348679 18.45962298 6.25 16.875 C6.21068359 16.07255859 6.17136719 15.27011719 6.13085938 14.44335938 C6.2820704 10.56010439 6.2820704 10.56010439 4.6875 7.3125 C2.1875 7.14583333 2.1875 7.14583333 -0.3125 7.3125 C-2.53514917 9.53514917 -1.7178681 15.34795573 -1.83007812 18.49804688 C-2.09921875 24.09921875 -2.09921875 24.09921875 -4.3125 26.3125 C-6.9375 25.9375 -6.9375 25.9375 -9.3125 25.3125 C-9.34136984 21.33334841 -9.35925406 17.35422347 -9.375 13.375 C-9.38337891 12.23869141 -9.39175781 11.10238281 -9.40039062 9.93164062 C-9.40361328 8.85205078 -9.40683594 7.77246094 -9.41015625 6.66015625 C-9.41539307 5.65992432 -9.42062988 4.65969238 -9.42602539 3.62915039 C-9.17242102 -1.54601485 -4.06019748 0.05004352 0 0 Z " fill="#4A5555" transform="translate(717.3125,234.6875)"/>
<path d="M0 0 C1.31613281 -0.04898438 2.63226563 -0.09796875 3.98828125 -0.1484375 C8.52169911 0.49303873 9.87271568 1.85783986 12.6875 5.375 C14.33588944 8.67177888 13.83022738 12.31816044 13.8125 15.9375 C13.81830078 17.12762695 13.81830078 17.12762695 13.82421875 18.34179688 C13.81413067 24.24836933 13.81413067 24.24836933 12.6875 25.375 C10.1875 25.5 10.1875 25.5 7.6875 25.375 C5.44125416 23.12875416 6.22960398 17.28257472 6.08203125 14.1015625 C6.22591351 10.43312952 6.22591351 10.43312952 4.6875 7.375 C2.1875 7.20833333 2.1875 7.20833333 -0.3125 7.375 C-2.35600451 9.41850451 -1.68145634 13.550281 -1.8125 16.375 C-2.17736486 24.23986486 -2.17736486 24.23986486 -3.3125 25.375 C-5.8125 25.5 -5.8125 25.5 -8.3125 25.375 C-9.3125 24.375 -9.3125 24.375 -9.42602539 22.15014648 C-9.42078857 21.19180908 -9.41555176 20.23347168 -9.41015625 19.24609375 C-9.40693359 18.21162109 -9.40371094 17.17714844 -9.40039062 16.11132812 C-9.39201172 15.02271484 -9.38363281 13.93410156 -9.375 12.8125 C-9.37048828 11.72001953 -9.36597656 10.62753906 -9.36132812 9.50195312 C-9.34949826 6.79291505 -9.33301543 4.08398401 -9.3125 1.375 C-6.3254054 -0.1185473 -3.2751552 0.06868772 0 0 Z " fill="#475251" transform="translate(427.3125,234.625)"/>
<path d="M0 0 C3.0625 1.1875 3.0625 1.1875 5 3 C5.3125 5.6875 5.3125 5.6875 5 8 C3.02 8 1.04 8 -1 8 C-1 7.34 -1 6.68 -1 6 C-3.31 6 -5.62 6 -8 6 C-7.67 6.99 -7.34 7.98 -7 9 C-5.03154957 9.87914855 -5.03154957 9.87914855 -2.6875 10.4375 C3.8416065 12.46808336 3.8416065 12.46808336 6 16 C6.1875 19.5 6.1875 19.5 5 23 C2.89825243 25.02135286 0.77989754 26.14376873 -2 27 C-5.125 26.875 -5.125 26.875 -8 26 C-8.928125 25.773125 -9.85625 25.54625 -10.8125 25.3125 C-13 24 -13 24 -13.8125 20.875 C-13.874375 19.92625 -13.93625 18.9775 -14 18 C-12.35 18 -10.7 18 -9 18 C-8.67 18.99 -8.34 19.98 -8 21 C-6.02 20.67 -4.04 20.34 -2 20 C-2 19.34 -2 18.68 -2 18 C-2.61488281 17.81824219 -3.22976563 17.63648438 -3.86328125 17.44921875 C-4.67152344 17.19785156 -5.47976563 16.94648438 -6.3125 16.6875 C-7.11300781 16.44386719 -7.91351562 16.20023438 -8.73828125 15.94921875 C-11.17254245 14.92758581 -12.4140145 14.10130571 -14 12 C-14.3930429 8.90478713 -14.61295044 6.95763464 -14 4 C-10.28004727 -0.79993901 -5.63486333 -0.83554935 0 0 Z " fill="#444D4C" transform="translate(819,235)"/>
<path d="M0 0 C3.3991818 1.91203976 4.66720186 2.97783428 5.875 6.6875 C5.91625 7.450625 5.9575 8.21375 6 9 C5 10 5 10 2.4375 10.0625 C1.633125 10.041875 0.82875 10.02125 0 10 C-0.33 9.01 -0.66 8.02 -1 7 C-3.64 7 -6.28 7 -9 7 C-9.98694179 12.25755772 -9.98694179 12.25755772 -9.3125 17.4375 C-8.07947314 19.11542867 -8.07947314 19.11542867 -6.125 19.9375 C-3.87665501 20.2331072 -3.87665501 20.2331072 -2.125 18.5 C0 17 0 17 3.25 17.3125 C4.61125 17.6528125 4.61125 17.6528125 6 18 C5.62299342 20.55162423 5.28133423 21.73880904 3.36328125 23.51953125 C-2.12948518 26.9825897 -2.12948518 26.9825897 -6.125 27.0625 C-11.11480124 25.21844302 -14.13671484 23.37586072 -17 18.8125 C-18.26660995 13.98354956 -17.9255078 10.59027305 -16 6 C-11.16511102 0.19813322 -7.33352528 -0.91194097 0 0 Z " fill="#333A3B" transform="translate(581,235)"/>
<path d="M0 0 C2.5 2.3125 2.5 2.3125 2.875 5.0625 C2.75125 5.805 2.6275 6.5475 2.5 7.3125 C-2.25 6.5625 -2.25 6.5625 -4.5 4.3125 C-7.58347826 4.14568891 -7.58347826 4.14568891 -10.5 4.3125 C-12.72923777 8.63984391 -12.42470553 11.59650182 -11.5 16.3125 C-9.23398135 17.60292763 -9.23398135 17.60292763 -6.5 18.3125 C-5.16150329 17.31942179 -3.82848691 16.31892948 -2.5 15.3125 C0.75 15.625 0.75 15.625 3.5 16.3125 C3.19025617 19.20344238 2.45829554 20.35941751 0.5 22.5625 C-3.60932337 24.9596053 -6.85114238 25.22637799 -11.5 24.3125 C-15.53923836 22.51813135 -17.9213082 20.39754712 -20 16.5 C-20.73028066 11.84446079 -20.90515814 7.66119394 -18.41796875 3.50390625 C-13.4752077 -2.7230767 -6.88439656 -3.31926263 0 0 Z " fill="#363E3D" transform="translate(462.5,236.6875)"/>
<path d="M0 0 C1.67542976 0.28604898 3.34385343 0.61781233 5 1 C5 2.98 5 4.96 5 7 C5.61875 6.814375 6.2375 6.62875 6.875 6.4375 C9 6 9 6 11 7 C11.6875 9 11.6875 9 12 11 C11.67 11.33 11.34 11.66 11 12 C9.02 12 7.04 12 5 12 C5 16.62 5 21.24 5 26 C6.98 26.33 8.96 26.66 11 27 C11 28.32 11 29.64 11 31 C7.17338712 32.47177418 4.68989378 31.57016757 1 30 C-0.6484375 28.8984375 -0.6484375 28.8984375 -2 27 C-2.32462841 24.39722711 -2.51105427 21.98158355 -2.5625 19.375 C-2.62486968 16.88945287 -2.76616891 14.48038549 -3 12 C-3.66 11.67 -4.32 11.34 -5 11 C-5 9.68 -5 8.36 -5 7 C-4.34 6.67 -3.68 6.34 -3 6 C-2.29788106 4.34795544 -1.63028587 2.68076231 -1 1 C-0.67 0.67 -0.34 0.34 0 0 Z " fill="#515C5A" transform="translate(840,229)"/>
<path d="M0 0 C1.08410156 0.00257813 2.16820312 0.00515625 3.28515625 0.0078125 C4.90744141 0.00394531 4.90744141 0.00394531 6.5625 0 C9.34765625 0.1328125 9.34765625 0.1328125 11.34765625 1.1328125 C11.34765625 2.7828125 11.34765625 4.4328125 11.34765625 6.1328125 C5.59765625 8.1328125 5.59765625 8.1328125 3.34765625 8.1328125 C3.35925781 9.27621094 3.37085938 10.41960937 3.3828125 11.59765625 C3.39218913 13.08854004 3.40128946 14.57942559 3.41015625 16.0703125 C3.41853516 16.82505859 3.42691406 17.57980469 3.43554688 18.35742188 C3.44418066 20.28275563 3.39989958 22.20816831 3.34765625 24.1328125 C2.34765625 25.1328125 2.34765625 25.1328125 -0.71484375 25.1953125 C-1.68421875 25.1746875 -2.65359375 25.1540625 -3.65234375 25.1328125 C-3.68121359 21.15366091 -3.69909781 17.17453597 -3.71484375 13.1953125 C-3.72322266 12.05900391 -3.73160156 10.92269531 -3.74023438 9.75195312 C-3.74345703 8.67236328 -3.74667969 7.59277344 -3.75 6.48046875 C-3.75523682 5.48023682 -3.76047363 4.48000488 -3.76586914 3.44946289 C-3.60276085 0.12100145 -3.35264001 0.16787888 0 0 Z " fill="#424B49" transform="translate(592.65234375,234.8671875)"/>
<path d="M0 0 C1.32 0.66 2.64 1.32 4 2 C4.05821935 5.89577024 4.0936703 9.79142802 4.125 13.6875 C4.14175781 14.79029297 4.15851563 15.89308594 4.17578125 17.02929688 C4.18222656 18.09599609 4.18867188 19.16269531 4.1953125 20.26171875 C4.20578613 21.24100342 4.21625977 22.22028809 4.22705078 23.22924805 C3.88713394 27.37733006 2.7255564 30.13401333 0.0625 33.3125 C-4.52610384 35.84091436 -8.87817266 35.92914709 -14 35 C-16.35181696 33.54459293 -17.34720997 32.27971039 -19 30 C-18.505 28.515 -18.505 28.515 -18 27 C-15.40321849 27.43279692 -13.30814759 27.82666698 -11 29.125 C-8.35022223 30.28427778 -6.73062678 29.75850744 -4 29 C-4.33 28.01 -4.66 27.02 -5 26 C-8.3 26 -11.6 26 -15 26 C-15.33 25.34 -15.66 24.68 -16 24 C-14.96939453 24.05220703 -14.96939453 24.05220703 -13.91796875 24.10546875 C-12.56638672 24.14607422 -12.56638672 24.14607422 -11.1875 24.1875 C-10.29417969 24.22230469 -9.40085937 24.25710938 -8.48046875 24.29296875 C-5.4984363 23.94076019 -5.00842689 23.09646752 -3 21 C-1.68 21 -0.36 21 1 21 C1.33 14.73 1.66 8.46 2 2 C1.34 2 0.68 2 0 2 C0 1.34 0 0.68 0 0 Z " fill="#3A4444" transform="translate(386,235)"/>
<path d="M0 0 C4.86831281 0.45286631 7.48559226 1.58321469 11 5 C13.54141035 9.23864594 13.67875784 13.17327761 13 18 C10.81925508 22.36148984 8.54793396 25.11427129 4 27 C1.1875 26.6875 1.1875 26.6875 -1 26 C-0.67 25.01 -0.34 24.02 0 23 C-0.99 22.01 -1.98 21.02 -3 20 C0.465 19.505 0.465 19.505 4 19 C5.99785435 14.8794254 6.17835515 11.54805635 6 7 C4.1128125 6.938125 4.1128125 6.938125 2.1875 6.875 C1.47980469 6.85179687 0.77210938 6.82859375 0.04296875 6.8046875 C-2.31359719 6.86745538 -2.31359719 6.86745538 -5 9 C-3.7508258 5.54074837 -2.32472205 2.85306797 0 0 Z " fill="#394142" transform="translate(957,235)"/>
<path d="M0 0 C1.65 0 3.3 0 5 0 C6.02254658 3.13446999 5.98503523 4.88492529 4.85546875 7.96875 C4.45811523 9.07283203 4.45811523 9.07283203 4.05273438 10.19921875 C3.76720703 10.95847656 3.48167969 11.71773437 3.1875 12.5 C2.77661133 13.63888672 2.77661133 13.63888672 2.35742188 14.80078125 C1.07461827 18.31387891 -0.28387458 21.67254364 -2 25 C-3.65 25 -5.3 25 -7 25 C-10.07017544 18.61403509 -10.07017544 18.61403509 -9.75 15.8125 C-9.5025 15.214375 -9.255 14.61625 -9 14 C-7.91015732 10.73047197 -8.10587085 8.57651658 -8.9375 5.25 C-9.13214844 4.45078125 -9.32679688 3.6515625 -9.52734375 2.828125 C-9.76130859 1.92320312 -9.76130859 1.92320312 -10 1 C-8 2 -8 2 -7.1484375 4.28515625 C-6.89320313 5.20167969 -6.63796875 6.11820313 -6.375 7.0625 C-6.11460937 7.98160156 -5.85421875 8.90070313 -5.5859375 9.84765625 C-5.39257812 10.55792969 -5.19921875 11.26820313 -5 12 C-3.20931427 9.3139714 -2.33944209 7.3373411 -1.375 4.3125 C-1.11460937 3.50425781 -0.85421875 2.69601563 -0.5859375 1.86328125 C-0.39257812 1.24839844 -0.19921875 0.63351563 0 0 Z " fill="#3F4746" transform="translate(914,235)"/>
<path d="M0 0 C0.66 0.33 1.32 0.66 2 1 C2 3.31 2 5.62 2 8 C4.31 8 6.62 8 9 8 C8.67 9.32 8.34 10.64 8 12 C5.03 11.505 5.03 11.505 2 11 C2.33 15.95 2.66 20.9 3 26 C5.475 26.99 5.475 26.99 8 28 C8 28.99 8 29.98 8 31 C1.79435269 31.35801811 1.79435269 31.35801811 -1.21875 30 C-3.9482992 26.935243 -3.42631626 23.69484837 -3.25 19.8125 C-3.23195313 19.06291016 -3.21390625 18.31332031 -3.1953125 17.54101562 C-3.14824109 15.6934629 -3.07649766 13.84656841 -3 12 C-3.99 11.67 -4.98 11.34 -6 11 C-5.67 9.68 -5.34 8.36 -5 7 C-4.34 7 -3.68 7 -3 7 C-3.061875 6.21625 -3.12375 5.4325 -3.1875 4.625 C-3.125625 3.75875 -3.06375 2.8925 -3 2 C-2.01 1.34 -1.02 0.68 0 0 Z " fill="#282D2C" transform="translate(660,229)"/>
<path d="M0 0 C3.49890004 2.11391877 4.70578686 3.11736059 6 7 C6.07973476 8.33525717 6.10771338 9.67412083 6.09765625 11.01171875 C6.09443359 11.76904297 6.09121094 12.52636719 6.08789062 13.30664062 C6.07951172 14.09232422 6.07113281 14.87800781 6.0625 15.6875 C6.05798828 16.48478516 6.05347656 17.28207031 6.04882812 18.10351562 C6.0370585 20.06904257 6.01912348 22.03453085 6 24 C5.34 24.33 4.68 24.66 4 25 C3.67 19.72 3.34 14.44 3 9 C2.01 9.99 1.02 10.98 0 12 C-3.13671875 12.51171875 -3.13671875 12.51171875 -6.6875 12.6875 C-7.86699219 12.75324219 -9.04648437 12.81898438 -10.26171875 12.88671875 C-11.61716797 12.94279297 -11.61716797 12.94279297 -13 13 C-12.67 12.34 -12.34 11.68 -12 11 C-9.49609375 10.5859375 -9.49609375 10.5859375 -6.4375 10.375 C-5.42558594 10.30023438 -4.41367187 10.22546875 -3.37109375 10.1484375 C-2.58863281 10.09945312 -1.80617188 10.05046875 -1 10 C-1.66 8.68 -2.32 7.36 -3 6 C-6.79547921 6.96776098 -6.79547921 6.96776098 -10 9 C-11.66617115 9.04063832 -13.33388095 9.042721 -15 9 C-14.76481427 5.47221403 -14.63136193 3.59190181 -12 1.125 C-7.90983208 -0.40881297 -4.31538529 -0.71923088 0 0 Z " fill="#485352" transform="translate(646,235)"/>
<path d="M0 0 C0.66 0 1.32 0 2 0 C2 1.65 2 3.3 2 5 C-3.61 5 -9.22 5 -15 5 C-14.34 6.98 -13.68 8.96 -13 11 C-9.58343976 11.16677282 -9.58343976 11.16677282 -6 11 C-5.34 10.34 -4.68 9.68 -4 9 C-0.875 8.875 -0.875 8.875 2 9 C2 10.32 2 11.64 2 13 C-1.40750306 15.773549 -4.53555609 18 -9 18 C-12.69543532 16.72053593 -16.06110789 15.45751823 -18.23046875 12.08984375 C-19.3503243 9.04861167 -19.12331796 6.20626684 -19 3 C-15.33012779 1.77670926 -12.66032178 2.11978994 -8.8125 2.4375 C-6.90404297 2.59025391 -6.90404297 2.59025391 -4.95703125 2.74609375 C-3.49330078 2.87177734 -3.49330078 2.87177734 -2 3 C-1.67 2.34 -1.34 1.68 -1 1 C-0.67 0.67 -0.34 0.34 0 0 Z " fill="#2C3130" transform="translate(940,244)"/>
<path d="M0 0 C1.66611905 -0.042721 3.33382885 -0.04063832 5 0 C7.47598733 2.47598733 6.1855126 9.10860158 6.1875 12.4375 C6.19974609 13.51322266 6.21199219 14.58894531 6.22460938 15.69726562 C6.22654297 16.72400391 6.22847656 17.75074219 6.23046875 18.80859375 C6.23457764 19.75532959 6.23868652 20.70206543 6.24291992 21.67749023 C6 24 6 24 4 26 C1.9375 25.75 1.9375 25.75 0 25 C-1.21445591 22.57108818 -1.12924198 20.99280557 -1.1328125 18.28125 C-1.13410156 17.34925781 -1.13539063 16.41726562 -1.13671875 15.45703125 C-1.13285156 14.48121094 -1.12898437 13.50539062 -1.125 12.5 C-1.12886719 11.52417969 -1.13273438 10.54835937 -1.13671875 9.54296875 C-1.13542969 8.61097656 -1.13414062 7.67898437 -1.1328125 6.71875 C-1.13168457 5.86216797 -1.13055664 5.00558594 -1.12939453 4.12304688 C-1 2 -1 2 0 0 Z " fill="#4F5957" transform="translate(827,235)"/>
<path d="M0 0 C3.0625 2 3.0625 2 5 4 C4.67 4.66 4.34 5.32 4 6 C3.236875 5.319375 2.47375 4.63875 1.6875 3.9375 C0.800625 3.298125 -0.08625 2.65875 -1 2 C-1.99 2.33 -2.98 2.66 -4 3 C-3.195625 3.5775 -2.39125 4.155 -1.5625 4.75 C0.95212402 6.95796255 1.77496814 7.73703803 2 11 C1 12 1 12 -1.8359375 12.1328125 C-3.58777344 12.12894531 -3.58777344 12.12894531 -5.375 12.125 C-6.53773438 12.12757813 -7.70046875 12.13015625 -8.8984375 12.1328125 C-12 12 -12 12 -15 11 C-15 13.97 -15 16.94 -15 20 C-17 18 -17 18 -17.1953125 16.0546875 C-17.13020833 14.03645833 -17.06510417 12.01822917 -17 10 C-18.093125 10.061875 -19.18625 10.12375 -20.3125 10.1875 C-24.44966411 9.97713572 -24.39352979 9.719795 -27 7 C-30.12549017 6.74951364 -30.12549017 6.74951364 -33 7 C-32.67 6.34 -32.34 5.68 -32 5 C-29.1875 4.8125 -29.1875 4.8125 -26 5 C-24.375 6.4375 -24.375 6.4375 -23 8 C-20.89667109 8.71447643 -20.89667109 8.71447643 -19 9 C-18.67 8.01 -18.34 7.02 -18 6 C-17.67 6.66 -17.34 7.32 -17 8 C-16.608125 7.236875 -16.21625 6.47375 -15.8125 5.6875 C-11.87932641 -0.14444705 -6.67917409 -1.14741689 0 0 Z M-8 6 C-8.66 7.32 -9.32 8.64 -10 10 C-8.99163938 11.23267348 -8.99163938 11.23267348 -6.93359375 11.09765625 C-6.10988281 11.08605469 -5.28617187 11.07445312 -4.4375 11.0625 C-3.19806641 11.04896484 -3.19806641 11.04896484 -1.93359375 11.03515625 C-0.97646484 11.01775391 -0.97646484 11.01775391 0 11 C-0.49756092 8.24358584 -0.49756092 8.24358584 -2 6 C-3.99958364 5.95919217 -6.00045254 5.95745644 -8 6 Z " fill="#667573" transform="translate(484,235)"/>
<path d="M0 0 C1.60294922 0.04060547 1.60294922 0.04060547 3.23828125 0.08203125 C4.04652344 0.11683594 4.85476563 0.15164062 5.6875 0.1875 C5.3575 1.5075 5.0275 2.8275 4.6875 4.1875 C3.6975 4.1875 2.7075 4.1875 1.6875 4.1875 C2.3475 5.8375 3.0075 7.4875 3.6875 9.1875 C2.6975 8.5275 1.7075 7.8675 0.6875 7.1875 C-1.64449388 7.10844936 -3.98082622 7.09951231 -6.3125 7.1875 C-7.07423392 11.5039922 -7.47313604 14.93183453 -6.3125 19.1875 C-10.25096154 15.86442308 -10.25096154 15.86442308 -10.5625 12.4375 C-10.48 11.695 -10.3975 10.9525 -10.3125 10.1875 C-11.3025 10.6825 -11.3025 10.6825 -12.3125 11.1875 C-12.43719099 16.76580016 -12.43719099 16.76580016 -11.3125 22.1875 C-13.55938791 20.41614392 -14.25709771 19.53838119 -14.7109375 16.6640625 C-14.63026146 6.84847817 -14.63026146 6.84847817 -11.3125 3.1875 C-7.41972588 0.35701459 -4.77802424 -0.15751728 0 0 Z " fill="#505D5C" transform="translate(379.3125,234.8125)"/>
<path d="M0 0 C0.66 0 1.32 0 2 0 C2 21.45 2 42.9 2 65 C-0.31 64.67 -2.62 64.34 -5 64 C-5 63.67 -5 63.34 -5 63 C-3.35 63 -1.7 63 0 63 C0 42.21 0 21.42 0 0 Z " fill="#323A3F" transform="translate(928,122)"/>
<path d="M0 0 C1.875 0.25 1.875 0.25 4 1 C5.25 3.0625 5.25 3.0625 6 5 C9.41656024 5.16677282 9.41656024 5.16677282 13 5 C13.66 4.34 14.32 3.68 15 3 C17.625 2.875 17.625 2.875 20 3 C20.33 3.66 20.66 4.32 21 5 C16.6284585 10.93280632 16.6284585 10.93280632 13 12 C8.46947581 11.70453103 4.69607917 10.66461522 1 8 C0.16468861 5.2374669 0.09590369 2.92506247 0 0 Z " fill="#191D1D" transform="translate(771,250)"/>
<path d="M0 0 C1.65 0 3.3 0 5 0 C5 7.59 5 15.18 5 23 C3.35 23.33 1.7 23.66 0 24 C0 16.08 0 8.16 0 0 Z " fill="#1F2424" transform="translate(672,237)"/>
<path d="M0 0 C3.63975198 0.27998092 6.29303801 0.53489343 9.375 2.5625 C11.66203296 5.99304945 11.57680944 8.91330688 12 13 C10.81921875 13.04898438 9.6384375 13.09796875 8.421875 13.1484375 C6.86456063 13.22348879 5.30727009 13.29903561 3.75 13.375 C2.97269531 13.4059375 2.19539063 13.436875 1.39453125 13.46875 C-4.07379907 13.72658242 -4.07379907 13.72658242 -9 16 C-10 15 -10 15 -10.0625 12.4375 C-10.041875 11.633125 -10.02125 10.82875 -10 10 C-8.68 9.34 -7.36 8.68 -6 8 C-6 8.99 -6 9.98 -6 11 C0.435 10.505 0.435 10.505 7 10 C5.11865171 4.87805296 5.11865171 4.87805296 1 3 C0.67 2.01 0.34 1.02 0 0 Z " fill="#0E0E0F" transform="translate(478,236)"/>
<path d="M0 0 C2.64 0.33 5.28 0.66 8 1 C8.33 18.16 8.66 35.32 9 53 C8.67 52.34 8.34 51.68 8 51 C7.34 51 6.68 51 6 51 C6 34.83 6 18.66 6 2 C3.36 2 0.72 2 -2 2 C-1.34 1.34 -0.68 0.68 0 0 Z " fill="#3F464A" transform="translate(648,118)"/>
<path d="M0 0 C0.99 0.33 1.98 0.66 3 1 C4.1875 4.0625 4.1875 4.0625 5 7 C6.65 6.01 8.3 5.02 10 4 C10.4049971 8.9612145 9.97720233 12.33435395 7.33203125 16.484375 C4.94364517 19.20195212 2.4216428 20.05609854 -1 21 C-4.4375 20.6875 -4.4375 20.6875 -7 20 C-7 19.67 -7 19.34 -7 19 C-6.030625 18.87625 -5.06125 18.7525 -4.0625 18.625 C-3.051875 18.41875 -2.04125 18.2125 -1 18 C-0.67 17.34 -0.34 16.68 0 16 C-1.65 16 -3.3 16 -5 16 C-4.401875 15.731875 -3.80375 15.46375 -3.1875 15.1875 C-0.85873253 13.92331195 0.49243283 13.1859724 2 11 C2.3862557 6.75118727 2.3297964 3.64030688 0 0 Z " fill="#4F5A59" transform="translate(696,241)"/>
<path d="M0 0 C1 2 1 2 0.4375 4.875 C-0.20561823 7.89409878 -0.20561823 7.89409878 0.6875 10.3125 C1.8958133 12.11644396 1.8958133 12.11644396 3.875 12.9375 C6.12334499 13.2331072 6.12334499 13.2331072 7.875 11.5 C10 10 10 10 13.25 10.3125 C14.61125 10.6528125 14.61125 10.6528125 16 11 C15.62299342 13.55162423 15.28133423 14.73880904 13.36328125 16.51953125 C7.77688827 20.04161901 7.77688827 20.04161901 3.5 19.8125 C2.675 19.544375 1.85 19.27625 1 19 C1.66 17.68 2.32 16.36 3 15 C2.360625 14.690625 1.72125 14.38125 1.0625 14.0625 C-1.73398504 11.26601496 -1.72154179 8.98507945 -2.1171875 5.15625 C-2 3 -2 3 0 0 Z " fill="#5A6865" transform="translate(571,242)"/>
<path d="M0 0 C4.33869838 -0.25521755 7.96679682 -0.4006298 12.0625 1.1875 C14 3 14 3 14.3125 5.6875 C14.1578125 6.8321875 14.1578125 6.8321875 14 8 C12.02 8 10.04 8 8 8 C8 7.34 8 6.68 8 6 C5.69 6 3.38 6 1 6 C0.67 6.99 0.34 7.98 0 9 C-1.125 3.375 -1.125 3.375 0 0 Z " fill="#545F5D" transform="translate(810,235)"/>
<path d="M0 0 C-3 2 -3 2 -6.5625 2.9375 C-10.24149406 3.67850977 -10.24149406 3.67850977 -12 7 C-7.71 8.32 -3.42 9.64 1 11 C-2.15803099 12.052677 -3.04304838 11.97280582 -6.16015625 11.2578125 C-6.95357422 11.07863281 -7.74699219 10.89945313 -8.56445312 10.71484375 C-9.80098633 10.42287109 -9.80098633 10.42287109 -11.0625 10.125 C-11.89072266 9.93808594 -12.71894531 9.75117188 -13.57226562 9.55859375 C-19.69055451 8.15472274 -19.69055451 8.15472274 -22 7 C-21.67 6.01 -21.34 5.02 -21 4 C-19.28173828 3.18457031 -19.28173828 3.18457031 -17.0703125 2.578125 C-15.87728516 2.24748047 -15.87728516 2.24748047 -14.66015625 1.91015625 C-13.82355469 1.69230469 -12.98695313 1.47445312 -12.125 1.25 C-11.29613281 1.01667969 -10.46726563 0.78335938 -9.61328125 0.54296875 C-3.39996512 -1.13332171 -3.39996512 -1.13332171 0 0 Z " fill="#606F74" transform="translate(193,157)"/>
<path d="M0 0 C0.33 0 0.66 0 1 0 C1 5.28 1 10.56 1 16 C2.98 16.33 4.96 16.66 7 17 C6.67 18.32 6.34 19.64 6 21 C-0.75 20.25 -0.75 20.25 -3 18 C-3.03518471 15.27904879 -2.95322667 12.70338727 -2.75 10 C-2.71003906 9.26265625 -2.67007813 8.5253125 -2.62890625 7.765625 C-2.25697162 2.25697162 -2.25697162 2.25697162 0 0 Z " fill="#202625" transform="translate(843,240)"/>
<path d="M0 0 C1.32 0.33 2.64 0.66 4 1 C4.91657981 6.38490641 5.11138159 11.54230189 5 17 C3.35 17 1.7 17 0 17 C0 11.39 0 5.78 0 0 Z " fill="#0E1112" transform="translate(435,243)"/>
<path d="M0 0 C2 2 2 2 2.125 5.625 C2.08375 6.73875 2.0425 7.8525 2 9 C1.01 9.33 0.02 9.66 -1 10 C-0.67 10.99 -0.34 11.98 0 13 C-2.31 13.66 -4.62 14.32 -7 15 C-5.68 13.68 -4.36 12.36 -3 11 C-6.96 10.67 -10.92 10.34 -15 10 C-15.33 10.66 -15.66 11.32 -16 12 C-16.33 11.01 -16.66 10.02 -17 9 C-16 8 -16 8 -12.18359375 7.90234375 C-10.60153318 7.90901911 -9.01948841 7.92098125 -7.4375 7.9375 C-6.63119141 7.94201172 -5.82488281 7.94652344 -4.99414062 7.95117188 C-2.99606244 7.96299482 -0.99802217 7.98093086 1 8 C0.67 5.36 0.34 2.72 0 0 Z " fill="#9FB4AE" transform="translate(489,241)"/>
<path d="M0 0 C1.2065625 0.0309375 1.2065625 0.0309375 2.4375 0.0625 C2.7675 1.0525 3.0975 2.0425 3.4375 3.0625 C2.7775 3.0625 2.1175 3.0625 1.4375 3.0625 C1.4375 3.7225 1.4375 4.3825 1.4375 5.0625 C-4.71634615 9.12403846 -4.71634615 9.12403846 -9 8.8125 C-9.845625 8.565 -10.69125 8.3175 -11.5625 8.0625 C-11.5625 7.7325 -11.5625 7.4025 -11.5625 7.0625 C-9.9125 6.7325 -8.2625 6.4025 -6.5625 6.0625 C-7.8825 5.0725 -9.2025 4.0825 -10.5625 3.0625 C-9.428125 2.753125 -8.29375 2.44375 -7.125 2.125 C0 0 0 0 0 0 Z " fill="#4C5956" transform="translate(411.5625,252.9375)"/>
<path d="M0 0 C1.17175781 0.08378906 2.34351563 0.16757813 3.55078125 0.25390625 C12.14280845 0.82554953 20.4339982 1.22640995 29 0 C25.04268476 3.95731524 20.01100618 4.29293823 14.625 4.3125 C9.05233272 4.24228312 5.02094503 3.36279766 0 1 C0 0.67 0 0.34 0 0 Z " fill="#353E44" transform="translate(731,186)"/>
<path d="M0 0 C3 2 3 2 3.546875 4.12890625 C3.64742188 5.33353516 3.64742188 5.33353516 3.75 6.5625 C3.82734375 7.36816406 3.9046875 8.17382812 3.984375 9.00390625 C3.98953125 9.66261719 3.9946875 10.32132813 4 11 C3 12 3 12 -0.59765625 12.09765625 C-2.08596867 12.0909822 -3.57426432 12.07902183 -5.0625 12.0625 C-6.20041992 12.05573242 -6.20041992 12.05573242 -7.36132812 12.04882812 C-9.24091871 12.0370068 -11.12046899 12.01907078 -13 12 C-13.33 12.99 -13.66 13.98 -14 15 C-14.33 13.35 -14.66 11.7 -15 10 C-9.39 10 -3.78 10 2 10 C1.2981424 3.59628479 1.2981424 3.59628479 0 0 Z " fill="#99ADA4" transform="translate(412,239)"/>
<path d="M0 0 C1.32 0.33 2.64 0.66 4 1 C3.01 1.495 3.01 1.495 2 2 C2 5.96 2 9.92 2 14 C3.98 14.66 5.96 15.32 8 16 C8.33 10.72 8.66 5.44 9 0 C9.33 0 9.66 0 10 0 C10 6.6 10 13.2 10 20 C8.68 20.33 7.36 20.66 6 21 C6 19.68 6 18.36 6 17 C5.195625 16.855625 4.39125 16.71125 3.5625 16.5625 C1 16 1 16 0 15 C-0.07313567 12.46950598 -0.09247527 9.96695163 -0.0625 7.4375 C-0.05798828 6.72658203 -0.05347656 6.01566406 -0.04882812 5.28320312 C-0.03700864 3.52209987 -0.01907263 1.76103964 0 0 Z " fill="#8EA4A0" transform="translate(662,240)"/>
<path d="M0 0 C4.02992782 0.55312735 8.02022924 1.1558062 12 2 C11.46484375 3.88671875 11.46484375 3.88671875 10 6 C7.43793484 6.82235463 5.18852841 7.37524033 2.5625 7.8125 C1.5405957 8.01262695 1.5405957 8.01262695 0.49804688 8.21679688 C-2.79318524 8.81959845 -4.77898297 9.07367234 -8 8 C-7.34 8 -6.68 8 -6 8 C-6 7.34 -6 6.68 -6 6 C-3.36 6 -0.72 6 2 6 C2 5.34 2 4.68 2 4 C2.99 3.67 3.98 3.34 5 3 C2.525 2.01 2.525 2.01 0 1 C0 0.67 0 0.34 0 0 Z " fill="#58686E" transform="translate(252,159)"/>
<path d="M0 0 C2.37507855 -0.02719556 4.74983964 -0.04693247 7.125 -0.0625 C8.12273438 -0.07506836 8.12273438 -0.07506836 9.140625 -0.08789062 C13.20681354 -0.10782292 17.0120092 0.21109839 21 1 C17.89914429 3.06723714 17.27068319 3.24497423 13.76953125 3.1953125 C12.56586914 3.18564453 12.56586914 3.18564453 11.33789062 3.17578125 C10.50451172 3.15902344 9.67113281 3.14226562 8.8125 3.125 C7.96751953 3.11597656 7.12253906 3.10695313 6.25195312 3.09765625 C4.16784757 3.07410703 2.08388783 3.03823647 0 3 C0 2.01 0 1.02 0 0 Z " fill="#293039" transform="translate(583,101)"/>
<path d="M0 0 C1.2065625 0.0309375 1.2065625 0.0309375 2.4375 0.0625 C2.7675 0.7225 3.0975 1.3825 3.4375 2.0625 C-0.87019231 7.90865385 -0.87019231 7.90865385 -4.5625 9.0625 C-6.8125 8.6875 -6.8125 8.6875 -8.5625 8.0625 C-7.5725 7.4025 -6.5825 6.7425 -5.5625 6.0625 C-6.8825 5.0725 -8.2025 4.0825 -9.5625 3.0625 C-8.1084375 2.5984375 -8.1084375 2.5984375 -6.625 2.125 C-0.53780864 0.01311728 -0.53780864 0.01311728 0 0 Z " fill="#384040" transform="translate(788.5625,252.9375)"/>
<path d="M0 0 C0.66 0.33 1.32 0.66 2 1 C2.4140625 3.06640625 2.4140625 3.06640625 2.625 5.5625 C2.69976563 6.38878906 2.77453125 7.21507812 2.8515625 8.06640625 C2.90054688 8.70449219 2.94953125 9.34257812 3 10 C-1.04479388 11.96611502 -3.86885748 12.11331236 -8.3125 11.625 C-9.38113281 11.51414063 -10.44976563 11.40328125 -11.55078125 11.2890625 C-12.35902344 11.19367188 -13.16726563 11.09828125 -14 11 C-13.67 12.32 -13.34 13.64 -13 15 C-15 14 -15 14 -15.6875 12 C-15.790625 11.34 -15.89375 10.68 -16 10 C-15 9 -15 9 -11.18359375 8.90234375 C-9.60153318 8.90901911 -8.01948841 8.92098125 -6.4375 8.9375 C-5.63119141 8.94201172 -4.82488281 8.94652344 -3.99414062 8.95117188 C-1.99606244 8.96299482 0.00197783 8.98093086 2 9 C1.34 6.03 0.68 3.06 0 0 Z " fill="#889A95" transform="translate(550,240)"/>
<path d="M0 0 C2 2 2 2 2.1875 5.5625 C2 9 2 9 1 10 C-1.53049402 10.07313567 -4.03304837 10.09247527 -6.5625 10.0625 C-7.27341797 10.05798828 -7.98433594 10.05347656 -8.71679688 10.04882812 C-10.47790013 10.03700864 -12.23896036 10.01907263 -14 10 C-13.34 11.65 -12.68 13.3 -12 15 C-12.99 14.67 -13.98 14.34 -15 14 C-15.33 12.02 -15.66 10.04 -16 8 C-10.39 8 -4.78 8 1 8 C0.67 5.36 0.34 2.72 0 0 Z " fill="#B7C7BF" transform="translate(941,241)"/>
<path d="M0 0 C3 3 3 3 3.328125 5.0078125 C3.11111111 10.88888889 3.11111111 10.88888889 2 12 C-0.53049402 12.07313567 -3.03304837 12.09247527 -5.5625 12.0625 C-6.27341797 12.05798828 -6.98433594 12.05347656 -7.71679688 12.04882812 C-9.47790013 12.03700864 -11.23896036 12.01907263 -13 12 C-13.33 12.99 -13.66 13.98 -14 15 C-14.33 13.35 -14.66 11.7 -15 10 C-9.39 10 -3.78 10 2 10 C1.34 6.7 0.68 3.4 0 0 Z " fill="#9BADA8" transform="translate(872,239)"/>
<path d="M0 0 C0.66 0.33 1.32 0.66 2 1 C-2.73330911 6.41700932 -7.3541341 11.53582696 -13 16 C-14.35099103 17.31543863 -15.69205669 18.64175118 -17 20 C-17.33 19.34 -17.66 18.68 -18 18 C-12 12 -6 6 0 0 Z " fill="#202A32" transform="translate(117,69)"/>
<path d="M0 0 C1.2065625 0.0309375 1.2065625 0.0309375 2.4375 0.0625 C1.9395163 3.79737777 1.56258244 5.87487635 -0.5625 9.0625 C-2.2125 8.7325 -3.8625 8.4025 -5.5625 8.0625 C-3.38616071 0.08258929 -3.38616071 0.08258929 0 0 Z " fill="#636F6E" transform="translate(618.5625,223.9375)"/>
<path d="M0 0 C0.33 0 0.66 0 1 0 C1 1.65 1 3.3 1 5 C-6.59 5.33 -14.18 5.66 -22 6 C-21.67 4.35 -21.34 2.7 -21 1 C-20.67 1.99 -20.34 2.98 -20 4 C-18.63875 3.7525 -18.63875 3.7525 -17.25 3.5 C-11.86217525 2.71126689 -6.43087444 2.91974077 -1 3 C-0.67 2.01 -0.34 1.02 0 0 Z " fill="#1F2325" transform="translate(512,123)"/>
<path d="M0 0 C6.93 0 13.86 0 21 0 C21 1.65 21 3.3 21 5 C20.01 5.495 20.01 5.495 19 6 C19 4.68 19 3.36 19 2 C12.73 2 6.46 2 0 2 C0 1.34 0 0.68 0 0 Z " fill="#2D363C" transform="translate(763,161)"/>
<path d="M0 0 C2.64 0.33 5.28 0.66 8 1 C8 1.33 8 1.66 8 2 C6.02 2 4.04 2 2 2 C2 6.95 2 11.9 2 17 C3.32 17.33 4.64 17.66 6 18 C4.02 18 2.04 18 0 18 C0 12.06 0 6.12 0 0 Z " fill="#2D383A" transform="translate(640,102)"/>
<path d="M0 0 C2.97 0.495 2.97 0.495 6 1 C5.69025617 3.89094238 4.95829554 5.04691751 3 7.25 C-1.06924552 9.62372655 -4.40051313 9.36074407 -9 9 C-9 8.67 -9 8.34 -9 8 C-7.63875 7.9071875 -7.63875 7.9071875 -6.25 7.8125 C-2.26215824 6.81553956 -1.23407889 5.35111834 1 2 C0.67 1.34 0.34 0.68 0 0 Z " fill="#3D4644" transform="translate(460,252)"/>
<path d="M0 0 C1.32 0 2.64 0 4 0 C4 3.96 4 7.92 4 12 C3.01 12.33 2.02 12.66 1 13 C0 12 0 12 -0.09765625 9.27734375 C-0.08605469 8.17519531 -0.07445312 7.07304687 -0.0625 5.9375 C-0.05347656 4.83277344 -0.04445313 3.72804687 -0.03515625 2.58984375 C-0.02355469 1.73519531 -0.01195312 0.88054687 0 0 Z " fill="#111313" transform="translate(521,226)"/>
<path d="M0 0 C2.04119788 1.61594832 4.04072937 3.2856382 6 5 C6 5.66 6 6.32 6 7 C6.58265625 7.25523437 7.1653125 7.51046875 7.765625 7.7734375 C10.21388223 9.11741087 11.81743248 10.61810296 13.75 12.625 C14.36359375 13.25664062 14.9771875 13.88828125 15.609375 14.5390625 C16.06828125 15.02117187 16.5271875 15.50328125 17 16 C16.34 16.66 15.68 17.32 15 18 C12.48787748 15.57473278 9.99253602 13.13287993 7.5 10.6875 C6.78457031 9.99720703 6.06914062 9.30691406 5.33203125 8.59570312 C4.65527344 7.92861328 3.97851562 7.26152344 3.28125 6.57421875 C2.65283203 5.96151123 2.02441406 5.34880371 1.37695312 4.7175293 C0 3 0 3 0 0 Z " fill="#2A3035" transform="translate(265,219)"/>
<path d="M0 0 C1.2065625 0.0309375 1.2065625 0.0309375 2.4375 0.0625 C2.4375 0.7225 2.4375 1.3825 2.4375 2.0625 C1.7775 2.0625 1.1175 2.0625 0.4375 2.0625 C0.004375 3.0215625 0.004375 3.0215625 -0.4375 4 C-1.5625 6.0625 -1.5625 6.0625 -3.5625 7.0625 C-5.9025417 6.78008117 -8.23754723 6.44999213 -10.5625 6.0625 C-10.5625 5.0725 -10.5625 4.0825 -10.5625 3.0625 C-9.428125 2.753125 -8.29375 2.44375 -7.125 2.125 C0 0 0 0 0 0 Z " fill="#1E2323" transform="translate(487.5625,253.9375)"/>
<path d="M0 0 C0.99 0.33 1.98 0.66 3 1 C3 4.3 3 7.6 3 11 C-0.16717283 9.41641358 -1.73268318 8.54736301 -3.3125 5.3125 C-3.539375 4.549375 -3.76625 3.78625 -4 3 C-3.01 3 -2.02 3 -1 3 C-0.67 2.01 -0.34 1.02 0 0 Z " fill="#131414" transform="translate(385,236)"/>
<path d="M0 0 C2.04650391 3.06975587 2.99704565 5.69084152 4.125 9.1875 C4.47820312 10.27417969 4.83140625 11.36085937 5.1953125 12.48046875 C5.46085937 13.31191406 5.72640625 14.14335937 6 15 C2.37 15 -1.26 15 -5 15 C-2.05357143 3.75 -2.05357143 3.75 0 0 Z M-1 5 C-1.66 7.97 -2.32 10.94 -3 14 C-0.69 14 1.62 14 4 14 C3.01 11.03 2.02 8.06 1 5 C0.34 5 -0.32 5 -1 5 Z " fill="#A0B7B1" transform="translate(348,232)"/>
<path d="M0 0 C0.33 0 0.66 0 1 0 C1 1.65 1 3.3 1 5 C2.65 5.33 4.3 5.66 6 6 C6 4.35 6 2.7 6 1 C6.66 0.67 7.32 0.34 8 0 C7.34 3.96 6.68 7.92 6 12 C4.68 12.33 3.36 12.66 2 13 C0.54815522 8.46298506 -0.23509196 4.81938524 0 0 Z " fill="#66757A" transform="translate(214,195)"/>
<path d="M0 0 C1.65 0 3.3 0 5 0 C5.33 1.98 5.66 3.96 6 6 C4.1875 7.0625 4.1875 7.0625 2 8 C1.01 7.67 0.02 7.34 -1 7 C-0.67 4.69 -0.34 2.38 0 0 Z " fill="#292C2E" transform="translate(672,226)"/>
<path d="M0 0 C1.66611905 -0.042721 3.33382885 -0.04063832 5 0 C6 1 6 1 6.09765625 4.59765625 C6.0909822 6.08596867 6.07902183 7.57426432 6.0625 9.0625 C6.05798828 9.82111328 6.05347656 10.57972656 6.04882812 11.36132812 C6.0370068 13.24091871 6.01907078 15.12046899 6 17 C4.35 17 2.7 17 1 17 C1.99 16.67 2.98 16.34 4 16 C4 11.38 4 6.76 4 2 C2.68 1.67 1.36 1.34 0 1 C0 0.67 0 0.34 0 0 Z " fill="#303841" transform="translate(692,169)"/>
<path d="M0 0 C0.66 0.33 1.32 0.66 2 1 C2 6.28 2 11.56 2 17 C1.01 17 0.02 17 -1 17 C-1.02691685 14.54159395 -1.04679802 12.08348118 -1.0625 9.625 C-1.07087891 8.92632812 -1.07925781 8.22765625 -1.08789062 7.5078125 C-1.11328125 2.2265625 -1.11328125 2.2265625 0 0 Z " fill="#363D41" transform="translate(565,133)"/>
<path d="M0 0 C1.65 0 3.3 0 5 0 C5.38133299 1.9914056 5.71325582 3.99279077 6 6 C5 7 5 7 2.4375 7.0625 C1.2309375 7.0315625 1.2309375 7.0315625 0 7 C-1.125 2.25 -1.125 2.25 0 0 Z " fill="#5E6968" transform="translate(827,226)"/>
<path d="M0 0 C0.66 0.33 1.32 0.66 2 1 C2.33 2.98 2.66 4.96 3 7 C-1.29 7 -5.58 7 -10 7 C-9.67 5.02 -9.34 3.04 -9 1 C-6.01405576 -0.49297212 -3.29146376 -0.11755228 0 0 Z M-6 1 C-6.66 2.32 -7.32 3.64 -8 5 C-6.81575674 6.41577477 -6.81575674 6.41577477 -3.4375 6.0625 C-1.7359375 6.0315625 -1.7359375 6.0315625 0 6 C0.59070014 4.05396726 0.59070014 4.05396726 1 2 C-0.12534105 0.64381501 -0.12534105 0.64381501 -3.0625 0.9375 C-4.031875 0.958125 -5.00125 0.97875 -6 1 Z " fill="#A2B7B2" transform="translate(935,240)"/>
<path d="M0 0 C3.5625 0.3125 3.5625 0.3125 5.5 1.5625 C6.5625 3.3125 6.5625 3.3125 6.5625 7.3125 C2.2725 7.3125 -2.0175 7.3125 -6.4375 7.3125 C-5.06712963 0.46064815 -5.06712963 0.46064815 0 0 Z M-2.4375 1.3125 C-3.0975 2.6325 -3.7575 3.9525 -4.4375 5.3125 C-3.45482141 6.51811184 -3.45482141 6.51811184 -1.58984375 6.41015625 C0.4609375 6.37760417 2.51171875 6.34505208 4.5625 6.3125 C4.8925 5.6525 5.2225 4.9925 5.5625 4.3125 C4.37726003 2.70835785 4.37726003 2.70835785 2.5625 1.3125 C-0.06320704 1.06180087 -0.06320704 1.06180087 -2.4375 1.3125 Z " fill="#9CB4AF" transform="translate(540.4375,239.6875)"/>
<path d="M0 0 C3.5625 0.3125 3.5625 0.3125 5.5 1.5625 C6.5625 3.3125 6.5625 3.3125 6.5625 7.3125 C2.2725 7.3125 -2.0175 7.3125 -6.4375 7.3125 C-5.06712963 0.46064815 -5.06712963 0.46064815 0 0 Z M-2.4375 1.3125 C-3.0975 2.6325 -3.7575 3.9525 -4.4375 5.3125 C-3.45482141 6.51811184 -3.45482141 6.51811184 -1.58984375 6.41015625 C0.4609375 6.37760417 2.51171875 6.34505208 4.5625 6.3125 C4.8925 5.6525 5.2225 4.9925 5.5625 4.3125 C4.9025 3.3225 4.2425 2.3325 3.5625 1.3125 C0.47884129 1.0622843 0.47884129 1.0622843 -2.4375 1.3125 Z " fill="#9CB5AD" transform="translate(403.4375,239.6875)"/>
<path d="M0 0 C0.33 0 0.66 0 1 0 C1 4.62 1 9.24 1 14 C-0.65 13.01 -2.3 12.02 -4 11 C-7.69523952 10.28076792 -7.69523952 10.28076792 -11 10 C-11 9.67 -11 9.34 -11 9 C-3.25 8.875 -3.25 8.875 -1 10 C-1.01160156 9.36191406 -1.02320313 8.72382813 -1.03515625 8.06640625 C-1.04417969 7.24011719 -1.05320312 6.41382813 -1.0625 5.5625 C-1.07410156 4.73878906 -1.08570313 3.91507813 -1.09765625 3.06640625 C-1 1 -1 1 0 0 Z " fill="#A2B5B4" transform="translate(761,226)"/>
<path d="M0 0 C2 2.375 2 2.375 3 5 C2.67 5.66 2.34 6.32 2 7 C-1.96 7 -5.92 7 -10 7 C-9.625 4.0625 -9.625 4.0625 -9 1 C-5.88122044 -0.55938978 -3.42744229 -0.3607834 0 0 Z M-7.8125 2.375 C-9.1966722 3.93368783 -9.1966722 3.93368783 -9 6 C-7.72125 6.020625 -6.4425 6.04125 -5.125 6.0625 C-4.40570312 6.07410156 -3.68640625 6.08570313 -2.9453125 6.09765625 C-0.91814596 6.12649242 -0.91814596 6.12649242 1 5 C0.34 3.68 -0.32 2.36 -1 1 C-4.67271044 0.67164344 -4.67271044 0.67164344 -7.8125 2.375 Z " fill="#9AB2AE" transform="translate(785,240)"/>
<path d="M0 0 C2.17578125 0.015625 2.17578125 0.015625 4.125 0.375 C6.1875 2.75 6.1875 2.75 7.125 5.375 C6.795 6.035 6.465 6.695 6.125 7.375 C1.835 7.375 -2.455 7.375 -6.875 7.375 C-4.56388889 0.44166667 -4.56388889 0.44166667 0 0 Z M-2.875 1.375 C-3.535 2.695 -4.195 4.015 -4.875 5.375 C-3.86663938 6.60767348 -3.86663938 6.60767348 -1.80859375 6.47265625 C-0.98488281 6.46105469 -0.16117187 6.44945312 0.6875 6.4375 C1.92693359 6.42396484 1.92693359 6.42396484 3.19140625 6.41015625 C4.14853516 6.39275391 4.14853516 6.39275391 5.125 6.375 C4.62743908 3.61858584 4.62743908 3.61858584 3.125 1.375 C1.12541636 1.33419217 -0.87545254 1.33245644 -2.875 1.375 Z " fill="#9AB4AE" transform="translate(478.875,239.625)"/>
<path d="M0 0 C0.33 0 0.66 0 1 0 C1.95494281 6.57849492 1.8931507 12.41816638 1 19 C-0.95294291 15.72708382 -1.24471499 13.28659202 -1.1875 9.5 C-1.18105469 8.5615625 -1.17460938 7.623125 -1.16796875 6.65625 C-1.01857816 4.29379415 -0.66710889 2.26283335 0 0 Z " fill="#434B55" transform="translate(702,135)"/>
<path d="M0 0 C0.33 0 0.66 0 1 0 C1 8.25 1 16.5 1 25 C0.67 25 0.34 25 0 25 C-2.67086809 16.26831587 -1.53068096 8.83085169 0 0 Z " fill="#101215" transform="translate(336,117)"/>
<path d="M0 0 C1.953125 0.6484375 1.953125 0.6484375 4 2 C4.609375 4.6015625 4.609375 4.6015625 4.75 7.625 C4.80671875 8.62789062 4.8634375 9.63078125 4.921875 10.6640625 C4.94765625 11.43492188 4.9734375 12.20578125 5 13 C4.54625 12.360625 4.0925 11.72125 3.625 11.0625 C2.16078274 8.90297594 2.16078274 8.90297594 0 8 C-0.66 9.32 -1.32 10.64 -2 12 C-1.85831863 10.56208484 -1.71148957 9.1246763 -1.5625 7.6875 C-1.48128906 6.88699219 -1.40007812 6.08648437 -1.31640625 5.26171875 C-1 3 -1 3 0 0 Z " fill="#5D6F72" transform="translate(216,116)"/>
<path d="M0 0 C0.66 0.33 1.32 0.66 2 1 C0.63088196 4.1489715 -0.8752136 6.0478487 -3.5 8.25 C-4.1084375 8.77078125 -4.716875 9.2915625 -5.34375 9.828125 C-7 11 -7 11 -9 11 C-7.44396229 7.18063472 -5.04395069 4.73955562 -2 2 C-1.34 2 -0.68 2 0 2 C0 1.34 0 0.68 0 0 Z " fill="#2D363C" transform="translate(503,105)"/>
<path d="M0 0 C2.35448165 2.55068845 2.98327924 3.71017358 3.1875 7.25 C3.125625 8.1575 3.06375 9.065 3 10 C1.35 10 -0.3 10 -2 10 C-2.1953125 3.9453125 -2.1953125 3.9453125 -2 2 C-1.34 1.34 -0.68 0.68 0 0 Z " fill="#1A1F20" transform="translate(727,251)"/>
<path d="M0 0 C0.74958984 0.00451172 1.49917969 0.00902344 2.27148438 0.01367188 C4.11852383 0.02543646 5.96552213 0.04337135 7.8125 0.0625 C7.8125 0.3925 7.8125 0.7225 7.8125 1.0625 C6.90757812 1.15337891 6.90757812 1.15337891 5.984375 1.24609375 C4.78554688 1.37177734 4.78554688 1.37177734 3.5625 1.5 C2.77359375 1.58121094 1.9846875 1.66242188 1.171875 1.74609375 C-1.01262084 2.03904766 -3.05293847 2.52885962 -5.1875 3.0625 C-6.85373639 3.10036901 -8.52147597 3.10877845 -10.1875 3.0625 C-10.5175 4.0525 -10.8475 5.0425 -11.1875 6.0625 C-11.5175 5.4025 -11.8475 4.7425 -12.1875 4.0625 C-11.8575 3.0725 -11.5275 2.0825 -11.1875 1.0625 C-7.42449626 -0.19183458 -3.91539091 -0.04445422 0 0 Z " fill="#424E58" transform="translate(429.1875,148.9375)"/>
<path d="M0 0 C0.66 0.33 1.32 0.66 2 1 C0.59419724 2.65512248 -0.82506266 4.29882206 -2.25 5.9375 C-3.03890625 6.85402344 -3.8278125 7.77054687 -4.640625 8.71484375 C-6.91251033 10.91526249 -7.92319022 11.66832555 -11 12 C-7.72469104 7.36279281 -4.69564393 3.31457218 0 0 Z " fill="#202832" transform="translate(720,105)"/>
<path d="M0 0 C4.95 0 9.9 0 15 0 C15.33 1.98 15.66 3.96 16 6 C15.360625 5.34 14.72125 4.68 14.0625 4 C10.44986269 1.64072666 8.25789035 1.36544263 4.02734375 1.52734375 C1.69473978 1.85501516 1.69473978 1.85501516 -0.0625 4.5 C-0.371875 5.325 -0.68125 6.15 -1 7 C-1.33 6.34 -1.66 5.68 -2 5 C-1.34 3.35 -0.68 1.7 0 0 Z " fill="#A8BDB5" transform="translate(341,251)"/>
<path d="M0 0 C0.33 0 0.66 0 1 0 C1.27714844 1.25296875 1.55429688 2.5059375 1.83984375 3.796875 C2.20570096 5.44792292 2.57158793 7.09896424 2.9375 8.75 C3.11990234 9.575 3.30230469 10.4 3.49023438 11.25 C3.66748047 12.04921875 3.84472656 12.8484375 4.02734375 13.671875 C4.18968506 14.4050293 4.35202637 15.13818359 4.51928711 15.89355469 C4.98553546 17.93661753 5.48420649 19.96893762 6 22 C5.34 22 4.68 22 4 22 C0.13822057 15.11595841 0.28742906 7.70111646 0 0 Z " fill="#3C4953" transform="translate(123,173)"/>
<path d="M0 0 C2 1 2 1 2.8515625 3.28515625 C3.10679687 4.20167969 3.36203125 5.11820313 3.625 6.0625 C3.88539063 6.98160156 4.14578125 7.90070313 4.4140625 8.84765625 C4.60742188 9.55792969 4.80078125 10.26820313 5 11 C5.99 10.01 6.98 9.02 8 8 C7.25 14.625 7.25 14.625 5 18 C4.16320723 15.37605694 3.33043058 12.75095616 2.5 10.125 C2.26152344 9.37863281 2.02304687 8.63226563 1.77734375 7.86328125 C0 2.2265625 0 2.2265625 0 0 Z " fill="#AEC2BC" transform="translate(904,236)"/>
<path d="M0 0 C3.74007011 1.24669004 4.51247157 2.68513508 6.75 5.875 C7.70132813 7.20144531 7.70132813 7.20144531 8.671875 8.5546875 C9.11015625 9.36164063 9.5484375 10.16859375 10 11 C9.67 11.99 9.34 12.98 9 14 C7.49412261 12.04594482 5.99521356 10.08718716 4.5 8.125 C4.07074219 7.56941406 3.64148438 7.01382813 3.19921875 6.44140625 C0 2.2265625 0 2.2265625 0 0 Z " fill="#2B3235" transform="translate(93,228)"/>
<path d="M0 0 C4.13621084 3.3810038 7.81316569 6.66590534 11 11 C7.46180427 10.42073787 5.74971757 9.15676523 3.25 6.625 C2.63640625 6.01914063 2.0228125 5.41328125 1.390625 4.7890625 C0 3 0 3 0 0 Z " fill="#2E3637" transform="translate(106,244)"/>
<path d="M0 0 C0.33 0.66 0.66 1.32 1 2 C1.66 2 2.32 2 3 2 C5 6 7 10 9 14 C8.34 14 7.68 14 7 14 C0 6.3 0 6.3 0 0 Z " fill="#3B454C" transform="translate(655,169)"/>
<path d="M0 0 C-0.33 0.99 -0.66 1.98 -1 3 C-2.92578125 3.765625 -2.92578125 3.765625 -5.3125 4.25 C-6.48232422 4.50523438 -6.48232422 4.50523438 -7.67578125 4.765625 C-10.07651867 5.00771617 -11.71809588 4.7310448 -14 4 C-5.13043478 0 -5.13043478 0 0 0 Z " fill="#4D575D" transform="translate(896,98)"/>
<path d="M0 0 C0.66 0.33 1.32 0.66 2 1 C0.92807816 2.3218362 -0.15802695 3.63217927 -1.25 4.9375 C-1.85328125 5.66839844 -2.4565625 6.39929688 -3.078125 7.15234375 C-5.10741134 9.10326334 -6.254407 9.61731779 -9 10 C-7.61811547 6.78956118 -6.07578097 4.95063635 -3.375 2.75 C-2.74335938 2.22921875 -2.11171875 1.7084375 -1.4609375 1.171875 C-0.73777344 0.59179688 -0.73777344 0.59179688 0 0 Z " fill="#27313B" transform="translate(356,78)"/>
<path d="M0 0 C0.99 0.33 1.98 0.66 3 1 C3 1.99 3 2.98 3 4 C1.25 5.75 1.25 5.75 -1 7 C-3.25 6.6875 -3.25 6.6875 -5 6 C-3.35 4.02 -1.7 2.04 0 0 Z " fill="#121414" transform="translate(760,253)"/>
<path d="M0 0 C0.33 0.66 0.66 1.32 1 2 C0.67 2.66 0.34 3.32 0 4 C3.3 3.67 6.6 3.34 10 3 C10.33 2.01 10.66 1.02 11 0 C11.33 1.65 11.66 3.3 12 5 C7.71 5 3.42 5 -1 5 C-0.67 3.35 -0.34 1.7 0 0 Z " fill="#8DA2A0" transform="translate(858,242)"/>
<path d="M0 0 C0.66 0.33 1.32 0.66 2 1 C-0.475 4.465 -0.475 4.465 -3 8 C-4.65 7.67 -6.3 7.34 -8 7 C-5.47376214 4.47376214 -2.75469422 2.27561697 0 0 Z " fill="#323C42" transform="translate(261,107)"/>
<path d="M0 0 C0 0.99 0 1.98 0 3 C-3.63 3.66 -7.26 4.32 -11 5 C-10.67 4.01 -10.34 3.02 -10 2 C-8.22265625 1.26953125 -8.22265625 1.26953125 -6.0625 0.8125 C-4.99708984 0.57466797 -4.99708984 0.57466797 -3.91015625 0.33203125 C-2 0 -2 0 0 0 Z " fill="#313B40" transform="translate(521,99)"/>
<path d="M0 0 C0 1.98 0 3.96 0 6 C-0.99 6.495 -0.99 6.495 -2 7 C-2.33 6.01 -2.66 5.02 -3 4 C-6.3 4 -9.6 4 -13 4 C-13.33 3.34 -13.66 2.68 -14 2 C-13.31292969 2.02320313 -12.62585938 2.04640625 -11.91796875 2.0703125 C-11.01691406 2.08835937 -10.11585938 2.10640625 -9.1875 2.125 C-8.29417969 2.14820313 -7.40085937 2.17140625 -6.48046875 2.1953125 C-3.81494676 1.98542888 -2.41250089 0 0 0 Z " fill="#AEC6BC" transform="translate(384,257)"/>
<path d="M0 0 C2.1519437 3.22791555 2.20086443 4.28400809 2 8 C0.68 8 -0.64 8 -2 8 C-2 5.69 -2 3.38 -2 1 C-1.34 0.67 -0.68 0.34 0 0 Z " fill="#0D0D0E" transform="translate(675,252)"/>
<path d="M0 0 C2.86688248 0.09096556 5.70300515 0.23767988 8.5625 0.4375 C9.36880859 0.48970703 10.17511719 0.54191406 11.00585938 0.59570312 C13.00421738 0.72577376 15.00215386 0.86229056 17 1 C13.44181064 3.26273207 10.87452049 3.07331744 6.75 2.625 C5.67234375 2.51414063 4.5946875 2.40328125 3.484375 2.2890625 C2.66453125 2.19367188 1.8446875 2.09828125 1 2 C1.33 3.32 1.66 4.64 2 6 C0 5 0 5 -0.6875 3 C-0.790625 2.34 -0.89375 1.68 -1 1 C-0.67 0.67 -0.34 0.34 0 0 Z " fill="#C1D6CF" transform="translate(535,249)"/>
<path d="M0 0 C1.98 0.99 1.98 0.99 4 2 C4 2.66 4 3.32 4 4 C4.61875 4.268125 5.2375 4.53625 5.875 4.8125 C8 6 8 6 10 9 C6.71245489 8.42110619 5.06327505 7.45171589 2.75 5.0625 C2.22921875 4.53785156 1.7084375 4.01320312 1.171875 3.47265625 C0 2 0 2 0 0 Z " fill="#1B2229" transform="translate(139,213)"/>
<path d="M0 0 C-3.06910021 2.0460668 -4.80688201 2.50913306 -8.375 3.125 C-9.31085938 3.29257813 -10.24671875 3.46015625 -11.2109375 3.6328125 C-13.84737023 3.97990588 -16.34496388 4.06758274 -19 4 C-15.74582055 2.20432025 -12.53428471 1.22618137 -8.9375 0.3125 C-7.89464844 0.04050781 -6.85179687 -0.23148438 -5.77734375 -0.51171875 C-3 -1 -3 -1 0 0 Z " fill="#7E9094" transform="translate(193,157)"/>
<path d="M0 0 C0.66 0.33 1.32 0.66 2 1 C-0.64 3.97 -3.28 6.94 -6 10 C-6.33 8.68 -6.66 7.36 -7 6 C-4.69 4.02 -2.38 2.04 0 0 Z " fill="#303B44" transform="translate(880,103)"/>
<path d="M0 0 C2 2 2 2 2.1953125 4.3828125 C2.17210937 5.28773437 2.14890625 6.19265625 2.125 7.125 C2.10695313 8.03507812 2.08890625 8.94515625 2.0703125 9.8828125 C2.03550781 10.93082031 2.03550781 10.93082031 2 12 C1.34 12 0.68 12 0 12 C-0.19477739 10.37585622 -0.38059458 8.75063577 -0.5625 7.125 C-0.66691406 6.22007813 -0.77132812 5.31515625 -0.87890625 4.3828125 C-1 2 -1 2 0 0 Z " fill="#2D3640" transform="translate(696,103)"/>
<path d="M0 0 C0.66 0.99 1.32 1.98 2 3 C1.67 3.99 1.34 4.98 1 6 C-5.435 6.495 -5.435 6.495 -12 7 C-11.67 6.34 -11.34 5.68 -11 5 C-8.49609375 4.5859375 -8.49609375 4.5859375 -5.4375 4.375 C-4.42558594 4.30023438 -3.41367187 4.22546875 -2.37109375 4.1484375 C-1.58863281 4.09945312 -0.80617188 4.05046875 0 4 C0 2.68 0 1.36 0 0 Z " fill="#879C96" transform="translate(645,241)"/>
<path d="M0 0 C0.66 0 1.32 0 2 0 C3.125 5.75 3.125 5.75 2 8 C1.01 8 0.02 8 -1 8 C-1.04241723 5.66705225 -1.04092937 3.33297433 -1 1 C-0.67 0.67 -0.34 0.34 0 0 Z " fill="#131514" transform="translate(367,245)"/>
<path d="M0 0 C-3.13269705 3.13269705 -5.97328423 3.05494397 -10.25 3.0625 C-12.10625 3.0315625 -12.10625 3.0315625 -14 3 C-9.25294723 -0.16470185 -5.68228705 -0.10927475 0 0 Z " fill="#303841" transform="translate(224,235)"/>
<path d="M0 0 C2.37948772 0.17625835 3.70225849 0.69719773 5.37890625 2.40234375 C6.62115486 3.90649092 7.81376056 5.45129851 9 7 C5.64405503 6.4213888 4.35999139 5.35999139 2 3 C1.01 3 0.02 3 -1 3 C-0.67 2.01 -0.34 1.02 0 0 Z " fill="#3B464F" transform="translate(254,210)"/>
<path d="M0 0 C2 0 2 0 4.4375 2.25 C6.47004286 4.4312655 8.28819148 6.56743 10 9 C7 9 7 9 5.17578125 7.28515625 C4.56089844 6.55167969 3.94601562 5.81820312 3.3125 5.0625 C2.68988281 4.33160156 2.06726563 3.60070312 1.42578125 2.84765625 C0 1 0 1 0 0 Z " fill="#2B3439" transform="translate(274,69)"/>
<path d="M0 0 C0.33 0 0.66 0 1 0 C1 2.97 1 5.94 1 9 C1.66 9 2.32 9 3 9 C3.33 9.99 3.66 10.98 4 12 C3.01 12 2.02 12 1 12 C-1.22923777 7.67265609 -0.92470553 4.71599818 0 0 Z " fill="#323C43" transform="translate(488,164)"/>
<path d="M0 0 C0.66 0.33 1.32 0.66 2 1 C1.01 1.33 0.02 1.66 -1 2 C-1.33 2.99 -1.66 3.98 -2 5 C-4.5625 6.1875 -4.5625 6.1875 -7 7 C-7.66 6.34 -8.32 5.68 -9 5 C-7.54735962 4.1361871 -6.0876837 3.28419546 -4.625 2.4375 C-3.40683594 1.72400391 -3.40683594 1.72400391 -2.1640625 0.99609375 C-1.44992188 0.66738281 -0.73578125 0.33867187 0 0 Z " fill="#444F58" transform="translate(235,227)"/>
<path d="M0 0 C0.9075 0.78375 1.815 1.5675 2.75 2.375 C5.05190236 4.30052496 7.21577207 5.82205741 10 7 C8.375 7.75 8.375 7.75 6 8 C2.75 6.3125 2.75 6.3125 0 4 C0 2.68 0 1.36 0 0 Z " fill="#323E47" transform="translate(510,165)"/>
<path d="M0 0 C1 2 1 2 0.546875 3.91015625 C0.28390625 4.62042969 0.0209375 5.33070312 -0.25 6.0625 C-0.62898438 7.13177734 -0.62898438 7.13177734 -1.015625 8.22265625 C-2 10 -2 10 -5 11 C-3.77472971 6.94718288 -2.30119506 3.55639236 0 0 Z " fill="#3D494E" transform="translate(91,99)"/>
<path d="M0 0 C1.2065625 0.0309375 1.2065625 0.0309375 2.4375 0.0625 C1.633125 0.68125 0.82875 1.3 0 1.9375 C-2.60124519 3.80414041 -2.60124519 3.80414041 -3.5625 6.0625 C-5.5425 5.4025 -7.5225 4.7425 -9.5625 4.0625 C-9.5625 3.7325 -9.5625 3.4025 -9.5625 3.0625 C-8.1084375 2.5984375 -8.1084375 2.5984375 -6.625 2.125 C-0.53780864 0.01311728 -0.53780864 0.01311728 0 0 Z " fill="#748682" transform="translate(788.5625,252.9375)"/>
<path d="M0 0 C1.33998047 0.31324219 1.33998047 0.31324219 2.70703125 0.6328125 C3.60808594 0.83648437 4.50914062 1.04015625 5.4375 1.25 C6.46810547 1.50136719 6.46810547 1.50136719 7.51953125 1.7578125 C7.51953125 2.0878125 7.51953125 2.4178125 7.51953125 2.7578125 C3.00335526 2.83435786 -1.07132092 2.86009946 -5.48046875 1.7578125 C-2.48046875 -0.2421875 -2.48046875 -0.2421875 0 0 Z " fill="#21272C" transform="translate(836.48046875,117.2421875)"/>
<path d="M0 0 C4.87664009 -0.34833144 7.77050005 0.58314288 12 3 C11.34 3.66 10.68 4.32 10 5 C9.01 4.34 8.02 3.68 7 3 C4.67891331 2.29187186 2.34622853 1.61975848 0 1 C0 0.67 0 0.34 0 0 Z " fill="#21282D" transform="translate(529,116)"/>
<path d="M0 0 C0.33 0.99 0.66 1.98 1 3 C2.98 2.67 4.96 2.34 7 2 C6.34 3.32 5.68 4.64 5 6 C3.35 5.67 1.7 5.34 0 5 C0 3.35 0 1.7 0 0 Z " fill="#AFC3BB" transform="translate(671,228)"/>
<path d="M0 0 C0 0.66 0 1.32 0 2 C-3.96 3.98 -3.96 3.98 -8 6 C-8.33 5.01 -8.66 4.02 -9 3 C-2.25 0 -2.25 0 0 0 Z " fill="#323D41" transform="translate(538,183)"/>
<path d="M0 0 C2.31 1.98 4.62 3.96 7 6 C6.34 6.66 5.68 7.32 5 8 C2.5 5.6875 2.5 5.6875 0 3 C0 2.01 0 1.02 0 0 Z " fill="#323A3C" transform="translate(349,169)"/>
<path d="M0 0 C0.33 0 0.66 0 1 0 C1.38897161 1.62171239 1.76078298 3.24754925 2.125 4.875 C2.33382812 5.77992188 2.54265625 6.68484375 2.7578125 7.6171875 C2.83773437 8.40351563 2.91765625 9.18984375 3 10 C2.34 10.66 1.68 11.32 1 12 C0 11 0 11 -0.09765625 8.49609375 C-0.08605469 7.48675781 -0.07445312 6.47742188 -0.0625 5.4375 C-0.05347656 4.42558594 -0.04445313 3.41367188 -0.03515625 2.37109375 C-0.02355469 1.58863281 -0.01195312 0.80617187 0 0 Z " fill="#2E3539" transform="translate(703,150)"/>
<path d="M0 0 C0.66 0.66 1.32 1.32 2 2 C4.43252661 2.46162427 4.43252661 2.46162427 7.125 2.625 C8.03507812 2.69976562 8.94515625 2.77453125 9.8828125 2.8515625 C10.58148438 2.90054688 11.28015625 2.94953125 12 3 C12 3.33 12 3.66 12 4 C7.71 4 3.42 4 -1 4 C-0.67 2.68 -0.34 1.36 0 0 Z " fill="#7F9793" transform="translate(473,243)"/>
<path d="M0 0 C0.268125 0.639375 0.53625 1.27875 0.8125 1.9375 C1.88667752 4.33131686 1.88667752 4.33131686 5 5 C5.33 6.65 5.66 8.3 6 10 C2.46413986 6.82679218 0.41421969 4.83256305 0 0 Z " fill="#455459" transform="translate(705,163)"/>
<path d="M0 0 C3.99500618 1.3697164 6.80009492 3.25722422 10 6 C6.05879291 5.43697042 3.2491277 4.3208055 0 2 C0 1.34 0 0.68 0 0 Z " fill="#1F282E" transform="translate(416,71)"/>
<path d="M0 0 C0.66 0.99 1.32 1.98 2 3 C1 6 1 6 -2 8 C-1.125 1.125 -1.125 1.125 0 0 Z " fill="#B6C8C3" transform="translate(902,244)"/>
<path d="M0 0 C0.33 0.99 0.66 1.98 1 3 C0 4 0 4 -2.5625 4.0625 C-3.7690625 4.0315625 -3.7690625 4.0315625 -5 4 C-5 3.01 -5 2.02 -5 1 C-3.35 0.67 -1.7 0.34 0 0 Z " fill="#7F958F" transform="translate(586,241)"/>
<path d="" fill="#9BB0BE" transform="translate(0,0)"/>
</svg>
