<?xml version="1.0" encoding="UTF-8"?>
<svg version="1.1" xmlns="http://www.w3.org/2000/svg" width="1024" height="340">
<path d="M0 0 C337.92 0 675.84 0 1024 0 C1024 112.2 1024 224.4 1024 340 C686.08 340 348.16 340 0 340 C0 227.8 0 115.6 0 0 Z " fill="#000032" transform="translate(0,0)"/>
<path d="M0 0 C6.00625726 4.98755691 10.87978159 10.02641185 16 16 C5.44 26.56 -5.12 37.12 -16 48 C-20.01746052 44.55646241 -23.75277644 41.27718528 -27.5 37.625 C-43.31889366 23.43346605 -62.60532496 19.65124525 -83.32666016 20.77246094 C-102.78333017 22.42849897 -120.07981461 33.49669203 -132.6796875 47.98046875 C-146.22694016 65.61014267 -151.15262611 85.94688355 -148.53515625 107.8984375 C-145.08524752 127.37307022 -136.17296337 145.08307962 -120 157 C-101.75685423 169.1916527 -81.46185074 173.77083332 -59.75 169.875 C-43.17457946 166.55132547 -30.42701081 158.15467424 -19 146 C-18.01 145.01 -17.02 144.02 -16 143 C-5.44 153.56 5.12 164.12 16 175 C-5.31185485 199.86383066 -32.89132471 215.31047227 -66 218 C-99.04652722 219.77574359 -130.47286029 211.28077775 -155.67236328 189.00585938 C-158.17353993 186.72634679 -160.59022603 184.37662714 -163 182 C-163.86496094 181.14792969 -164.72992188 180.29585937 -165.62109375 179.41796875 C-189.59832931 154.46817761 -197.86955964 121.5257227 -197.3125 87.78515625 C-196.26233831 56.56472442 -181.38773058 27.42703648 -159 6 C-115.05904513 -33.53106276 -46.4199123 -37.44061086 0 0 Z " fill="#FDF5E7" transform="translate(272,67)"/>
<path d="M0 0 C3.58412105 2.97219795 5.99379283 6.27193925 8.5625 10.125 C8.85640625 9.61710937 9.1503125 9.10921875 9.453125 8.5859375 C14.08091839 1.48466833 20.56947876 -1.9440462 28.55078125 -4.515625 C38.49815743 -6.29263201 48.08125747 -4.95444129 56.66015625 0.4453125 C63.68407205 5.9033872 66.29947245 13.56848038 67.5625 22.125 C67.83065161 26.78326007 67.81951166 31.42889439 67.79296875 36.09375 C67.79251053 37.41040649 67.79205231 38.72706299 67.7915802 40.08361816 C67.79002681 42.85039664 67.78181886 45.61704362 67.76831055 48.38378906 C67.75118861 51.93592541 67.7475006 55.48791966 67.74825573 59.04009247 C67.74791963 62.43299751 67.73909586 65.82585547 67.73046875 69.21875 C67.72935593 70.49778198 67.7282431 71.77681396 67.72709656 73.09460449 C67.72071671 74.26672485 67.71433685 75.43884521 67.70776367 76.64648438 C67.70395187 77.68301147 67.70014008 78.71953857 67.69621277 79.78747559 C67.5625 82.125 67.5625 82.125 66.5625 83.125 C64.92777118 83.21200342 63.28935945 83.23201063 61.65234375 83.22265625 C60.66298828 83.21943359 59.67363281 83.21621094 58.65429688 83.21289062 C57.61337891 83.20451172 56.57246094 83.19613281 55.5 83.1875 C54.45521484 83.18298828 53.41042969 83.17847656 52.33398438 83.17382812 C49.7434334 83.16199913 47.15299441 83.14551689 44.5625 83.125 C44.56107498 82.42866455 44.55964996 81.7323291 44.55818176 81.01489258 C44.54028697 74.42423663 44.49848346 67.83420492 44.43040943 61.24386597 C44.39624593 57.85633648 44.37104632 54.46925282 44.36694336 51.08154297 C44.35763405 47.17879565 44.31659426 43.27745263 44.26953125 39.375 C44.2734639 38.16948486 44.27739655 36.96396973 44.28144836 35.72192383 C44.15965284 28.64985334 43.39510123 23.51583046 38.5625 18.125 C34.26350795 15.17711974 28.59761129 15.62391348 23.5625 16.125 C18.93755191 17.58100218 16.72461888 19.56280432 14.40075684 23.82278442 C12.60084433 28.7661221 12.95840109 34.07838798 12.953125 39.27734375 C12.93658875 40.53261368 12.92005249 41.78788361 12.90301514 43.08119202 C12.86280213 46.39722926 12.83939065 49.71250181 12.82427979 53.02868652 C12.80463176 56.42097417 12.76267088 59.8129804 12.72265625 63.20507812 C12.64882417 69.84502075 12.59921968 76.48475261 12.5625 83.125 C4.9725 83.125 -2.6175 83.125 -10.4375 83.125 C-10.4468457 81.47048828 -10.45619141 79.81597656 -10.46582031 78.11132812 C-10.50579147 71.9535055 -10.57157165 65.7961787 -10.64501953 59.63867188 C-10.67537523 56.97708389 -10.69442114 54.3160998 -10.70849609 51.65429688 C-10.72998215 47.82118357 -10.77666563 43.98906398 -10.828125 40.15625 C-10.82935364 38.97260864 -10.83058228 37.78896729 -10.83184814 36.56945801 C-10.9534401 29.65970637 -11.62720822 24.96182292 -15.4375 19.125 C-20.49685167 15.95050484 -25.59826226 15.20681597 -31.4375 16.125 C-35.17056604 17.40058434 -37.77765603 19.1996882 -40.10083008 22.45751953 C-42.11472804 27.98314056 -41.91853354 33.34108366 -41.94921875 39.1796875 C-41.96716995 40.43637238 -41.98512115 41.69305725 -42.00361633 42.98782349 C-42.04850911 46.31195624 -42.0808604 49.63572339 -42.10705566 52.96002197 C-42.13695334 56.35889922 -42.18345173 59.75754598 -42.22851562 63.15625 C-42.3134166 69.81241409 -42.3802422 76.46854303 -42.4375 83.125 C-50.0275 83.125 -57.6175 83.125 -65.4375 83.125 C-65.4375 55.075 -65.4375 27.025 -65.4375 -1.875 C-58.5075 -1.875 -51.5775 -1.875 -44.4375 -1.875 C-44.4375 1.095 -44.4375 4.065 -44.4375 7.125 C-43.7775 7.125 -43.1175 7.125 -42.4375 7.125 C-42.20417969 6.52945313 -41.97085938 5.93390625 -41.73046875 5.3203125 C-38.76462301 0.28464693 -32.14226244 -2.21702151 -26.875 -4.25 C-17.39134035 -5.97430175 -8.51632383 -4.64526755 0 0 Z " fill="#FDF5E8" transform="translate(862.4375,103.875)"/>
<path d="M0 0 C10.10239921 8.26559936 14.19673987 17.38532941 17 30 C9.08 30 1.16 30 -7 30 C-8.65 26.7 -10.3 23.4 -12 20 C-17.85012802 14.14987198 -24.63289659 12.06447052 -32.6875 11.6875 C-41.15564104 11.81332676 -48.12390002 15.18179275 -54.24609375 20.9453125 C-64.3270875 32.7551181 -64.06974137 48.35791494 -63 63 C-62.21796289 67.38562857 -61.03384356 71.04636018 -59 75 C-58.57589844 75.825 -58.15179688 76.65 -57.71484375 77.5 C-53.67623837 84.33975507 -48.1806864 88.00054129 -41.125 91.375 C-32.58348293 93.08330341 -24.55566437 92.60805425 -17 88 C-12.2832977 83.82514109 -9.83888414 79.67776829 -7 74 C0.92 74 8.84 74 17 74 C13.91527169 87.88127739 8.33189442 98.06002231 -3.5 106.4375 C-16.44007838 114.44587018 -34.9030964 115.49703868 -49.49609375 112.12890625 C-57.26905705 109.70234145 -63.79211165 106.26129545 -70 101 C-70.70640625 100.40445313 -71.4128125 99.80890625 -72.140625 99.1953125 C-83.91642662 88.36337284 -89.53999706 72.55939619 -90.23828125 56.78515625 C-90.65747078 39.03069385 -86.86823977 22.00859536 -75.1875 8.0625 C-56.78523223 -10.90274346 -21.86904595 -16.62047492 0 0 Z " fill="#FCF5E9" transform="translate(425,76)"/>
<path d="M0 0 C0.89976562 -0.020625 1.79953125 -0.04125 2.7265625 -0.0625 C13.06416955 -0.12191153 21.92624518 2.50191751 29.875 9.25 C38.24207827 18.06499467 38.19051846 27.06724245 38.2890625 38.71484375 C38.30779619 40.11732596 38.32737121 41.51979717 38.3477478 42.92225647 C38.3988429 46.59312416 38.43858877 50.2640283 38.47589111 53.93505859 C38.51607355 57.68921762 38.56710055 61.44322799 38.6171875 65.19726562 C38.71367858 72.5480823 38.79716432 79.89895778 38.875 87.25 C31.615 87.25 24.355 87.25 16.875 87.25 C16.215 84.94 15.555 82.63 14.875 80.25 C14.09125 80.9925 13.3075 81.735 12.5 82.5 C2.89120994 90.25329957 -8.27511725 90.48189181 -20.125 89.25 C-27.42968904 87.7445214 -32.56618272 84.10408012 -37.125 78.25 C-41.13051934 71.44061712 -41.88330395 65.06053073 -41.125 57.25 C-39.36193367 51.03678432 -35.49202981 46.70463988 -30.125 43.25 C-16.40644375 36.13320632 -0.22114076 36.03399799 14.875 36.25 C14.76029863 34.49929483 14.63280972 32.74942464 14.5 31 C14.39558594 29.53820312 14.39558594 29.53820312 14.2890625 28.046875 C13.88232223 25.29945962 13.38742876 23.56251906 11.875 21.25 C6.08620123 17.80135392 0.51069659 17.53938996 -6.125 18.25 C-9.64756618 19.09219134 -9.64756618 19.09219134 -12.125 21.25 C-13.115 23.56 -14.105 25.87 -15.125 28.25 C-22.715 28.58 -30.305 28.91 -38.125 29.25 C-36.6763335 19.10933453 -33.32515513 12.6142995 -25.125 6.25 C-16.61543167 1.49499916 -9.59743017 0.05361693 0 0 Z " fill="#FCF5E9" transform="translate(528.125,99.75)"/>
<path d="M0 0 C8.54153571 5.95512676 13.56391467 13.44692983 17.02734375 23.14453125 C18.1514884 29.88939917 17.77734375 36.80662628 17.77734375 43.64453125 C-2.02265625 43.64453125 -21.82265625 43.64453125 -42.22265625 43.64453125 C-38.64681406 56.04555948 -38.64681406 56.04555948 -29.22265625 63.64453125 C-23.44552646 65.57024118 -17.41272685 65.54640744 -11.84765625 62.95703125 C-9.15410724 61.5644091 -8.25123672 60.69278773 -6.66796875 58.01953125 C-3.81177485 55.24546433 -3.07848808 55.27675568 0.76171875 55.15625 C2.68420102 55.18939625 4.6063737 55.24890006 6.52734375 55.33203125 C7.51089844 55.35458984 8.49445313 55.37714844 9.5078125 55.40039062 C11.93253845 55.4592432 14.35416358 55.54139694 16.77734375 55.64453125 C15.92531101 63.79828644 12.55300039 69.26866009 6.65234375 74.89453125 C-3.94809462 83.40808243 -17.19066808 84.71353877 -30.22265625 83.64453125 C-38.41279519 82.14214727 -45.16989153 79.40109685 -51.22265625 73.64453125 C-51.91101563 72.99613281 -52.599375 72.34773438 -53.30859375 71.6796875 C-62.83381572 61.88889243 -65.52345929 50.3658184 -65.53735352 37.03662109 C-65.29232921 24.26925999 -61.04816388 13.87399749 -52.30859375 4.6171875 C-38.77872865 -8.13107185 -15.67047763 -9.55651272 0 0 Z " fill="#FCF5E9" transform="translate(767.22265625,105.35546875)"/>
<path d="M0 0 C7.26 0 14.52 0 22 0 C22 7.26 22 14.52 22 22 C28.6 22 35.2 22 42 22 C42 27.94 42 33.88 42 40 C35.4 40 28.8 40 22 40 C22.09704216 45.60546173 22.19983955 51.21020257 22.31738281 56.81518555 C22.35561339 58.72104486 22.39047655 60.62697487 22.421875 62.53295898 C22.46765422 65.27613553 22.5256273 68.01882788 22.5859375 70.76171875 C22.59748871 71.61086349 22.60903992 72.46000824 22.62094116 73.33488464 C22.72707908 77.6106611 22.89711591 81.16031162 25 85 C28.65138338 87.89680678 31.72189582 88.435269 36.3125 88.6875 C38.189375 88.790625 40.06625 88.89375 42 89 C42 94.94 42 100.88 42 107 C38.35370713 107.08156579 34.70927168 107.14077504 31.0625 107.1875 C30.04091797 107.21263672 29.01933594 107.23777344 27.96679688 107.26367188 C20.14505024 107.33864069 13.01004196 106.55183116 6.625 101.6875 C1.58199602 96.52442449 -0.13170167 91.10024662 -0.11352539 84.04785156 C-0.11344986 83.06713684 -0.11337433 82.08642212 -0.11329651 81.07598877 C-0.10813522 80.02481873 -0.10297394 78.97364868 -0.09765625 77.890625 C-0.0962413 76.80867859 -0.09482635 75.72673218 -0.09336853 74.61199951 C-0.08777318 71.1579715 -0.0752215 67.70400841 -0.0625 64.25 C-0.0574844 61.90755302 -0.0529216 59.56510502 -0.04882812 57.22265625 C-0.03780527 51.48174583 -0.02054379 45.74088392 0 40 C-4.62 40 -9.24 40 -14 40 C-14 34.06 -14 28.12 -14 22 C-9.38 22 -4.76 22 0 22 C0 14.74 0 7.48 0 0 Z " fill="#FDF6E9" transform="translate(655,80)"/>
<path d="M0 0 C7.59 0 15.18 0 23 0 C23 39.6 23 79.2 23 120 C15.41 120 7.82 120 0 120 C0 80.4 0 40.8 0 0 Z " fill="#FBF3E7" transform="translate(452,67)"/>
<path d="M0 0 C1 1 1 1 1.11352539 2.94946289 C1.10828857 3.7821167 1.10305176 4.61477051 1.09765625 5.47265625 C1.09443359 6.37177734 1.09121094 7.27089844 1.08789062 8.19726562 C1.07532227 9.61555664 1.07532227 9.61555664 1.0625 11.0625 C1.05798828 12.01189453 1.05347656 12.96128906 1.04882812 13.93945312 C1.0370011 16.29303065 1.02052025 18.64648477 1 21 C-0.23363281 21.02126953 -0.23363281 21.02126953 -1.4921875 21.04296875 C-9.25673081 21.37471021 -15.72363976 22.16464884 -22 27 C-26.92592533 33.77782529 -27.73848678 40.53516063 -27.70703125 48.6953125 C-27.72215256 49.76876923 -27.73727386 50.84222595 -27.75285339 51.94821167 C-27.79547234 55.34069246 -27.80454379 58.73227904 -27.8125 62.125 C-27.83566423 64.44012751 -27.86103354 66.75523408 -27.88867188 69.0703125 C-27.95537758 74.71401927 -27.97660443 80.35528735 -28 86 C-35.59 86 -43.18 86 -51 86 C-51 57.95 -51 29.9 -51 1 C-43.74 1 -36.48 1 -29 1 C-28.67 4.3 -28.34 7.6 -28 11 C-27.52691406 10.45730469 -27.05382812 9.91460937 -26.56640625 9.35546875 C-18.80015649 0.95338568 -11.35051621 -1.0539765 0 0 Z " fill="#FDF6E8" transform="translate(633,101)"/>
<path d="M0 0 C0.66 0.33 1.32 0.66 2 1 C2.53844303 3.1271458 2.98002998 5.27910503 3.375 7.4375 C5.61275342 18.40360505 8.9472895 29.14425985 18.625 35.75 C27.28990646 40.65901545 37.3875214 42.75027097 47 45 C43.96194581 46.77155078 40.93673921 47.54426713 37.51708984 48.29223633 C27.63950443 50.46651112 17.64892743 53.5084731 11.26953125 61.91015625 C5.96799224 70.63730509 3.80733251 80.06701806 2 90 C1.01 89.67 0.02 89.34 -1 89 C-1.76364781 86.33324562 -2.3530722 83.77704045 -2.875 81.0625 C-5.37148605 69.55950647 -8.80547556 60.7612134 -19 54 C-26.98275861 49.98306769 -35.1703169 48.06592571 -44 47 C-44 46.01 -44 45.02 -44 44 C-42.33324219 43.65388672 -42.33324219 43.65388672 -40.6328125 43.30078125 C-28.91125843 40.76981141 -16.68168286 37.99237773 -9.4375 27.5625 C-4.66916453 19.52530563 -2.95737324 10.03403034 -1 1 C-0.67 0.67 -0.34 0.34 0 0 Z " fill="#FCF5E8" transform="translate(217,117)"/>
<path d="M0 0 C0.33241487 6.09427259 0.03580282 11.56962004 -3 17 C-8.2374318 22.31527049 -13.01514241 24.12630491 -20.375 24.25 C-24.97775328 24.20698361 -28.12563202 23.68225475 -32 21 C-33.99788088 18.00317868 -34.35935228 17.05914854 -34.5 13.625 C-34.5515625 12.87476563 -34.603125 12.12453125 -34.65625 11.3515625 C-33.6353114 7.69319919 -31.15167165 5.85870006 -28 4 C-25.30572542 3.19960881 -22.99105592 2.64537615 -20.25 2.25 C-19.54987793 2.13422607 -18.84975586 2.01845215 -18.12841797 1.89916992 C-12.14458078 0.9381461 -6.07100947 0 0 0 Z " fill="#030330" transform="translate(544,148)"/>
<path d="M0 0 C0.99 0.66 1.98 1.32 3 2 C3.33 1.34 3.66 0.68 4 0 C5.65 0 7.3 0 9 0 C9.08725659 4.2290362 9.1404789 8.45784012 9.1875 12.6875 C9.21263672 13.88568359 9.23777344 15.08386719 9.26367188 16.31835938 C9.27333984 17.47529297 9.28300781 18.63222656 9.29296875 19.82421875 C9.3086792 20.88729248 9.32438965 21.95036621 9.34057617 23.0456543 C8.86263514 27.19157866 7.11908634 29.75178831 4.375 32.8125 C0.62750866 34.68624567 -2.90590831 34.77780671 -7 34 C-9.57117748 32.58611422 -10.96153651 31.19526838 -13 29 C-13 28.34 -13 27.68 -13 27 C-10.625 26.875 -10.625 26.875 -8 27 C-7.34 27.66 -6.68 28.32 -6 29 C-2.5 29.33333333 -2.5 29.33333333 1 29 C3.28728734 27.16116119 3.28728734 27.16116119 3.125 24.375 C3.08375 23.59125 3.0425 22.8075 3 22 C2.34 22.66 1.68 23.32 1 24 C-2.05610339 24.57039258 -4.94031349 24.5337277 -8 24 C-10.75569447 21.81840855 -12.43588747 20.12822506 -14 17 C-14.42308538 12.40301468 -14.53894467 8.29346722 -12.75 4 C-8.99570967 -0.29061752 -5.59803926 -0.40713013 0 0 Z " fill="#DEDEE4" transform="translate(380,236)"/>
<path d="M0 0 C1.65 0 3.3 0 5 0 C5.33 3.96 5.66 7.92 6 12 C6.99 11.34 7.98 10.68 9 10 C12.0169088 9.65938127 14.09407815 9.42787893 17 10 C20.27939423 12.65142512 22.76648446 14.8715633 23.23828125 19.171875 C23.40542574 24.97794679 23.06030848 28.48854613 19 33 C16.22328861 35.20221938 14.99463574 34.99963005 11.375 34.75 C8 34 8 34 6 32 C5.67 32.66 5.34 33.32 5 34 C3.35 34 1.7 34 0 34 C0 22.78 0 11.56 0 0 Z " fill="#E8E7EB" transform="translate(946,226)"/>
<path d="M0 0 C1.65 0 3.3 0 5 0 C5 11.22 5 22.44 5 34 C3.35 34 1.7 34 0 34 C-0.33 33.34 -0.66 32.68 -1 32 C-1.515625 32.515625 -2.03125 33.03125 -2.5625 33.5625 C-5 35 -5 35 -8.4375 35 C-12.63165142 33.82269434 -14.28376736 32.3553462 -17 29 C-18.67967818 23.96096545 -18.87064828 18.94859377 -16.6875 14.0625 C-14.76814279 11.71661896 -13.15127606 10.15783623 -10.0625 9.734375 C-9.381875 9.73953125 -8.70125 9.7446875 -8 9.75 C-7.319375 9.74484375 -6.63875 9.7396875 -5.9375 9.734375 C-4 10 -4 10 -1 12 C-0.67 8.04 -0.34 4.08 0 0 Z " fill="#F7F7F8" transform="translate(521,226)"/>
<path d="M0 0 C1.32 0 2.64 0 4 0 C4 11.22 4 22.44 4 34 C2.68 34 1.36 34 0 34 C-0.33 33.34 -0.66 32.68 -1 32 C-1.53625 32.495 -2.0725 32.99 -2.625 33.5 C-5.75912943 35.47945017 -7.34350241 35.58503961 -11 35 C-14.5633205 32.53308581 -17.74632675 30.26248906 -19 26 C-19.48459952 20.76632514 -18.82735806 17.44299123 -16 13 C-14.11511322 10.90568136 -12.85910522 10.12521372 -10.0703125 9.71875 C-7.9375 9.625 -7.9375 9.625 -4 10 C-3.01 10.99 -2.02 11.98 -1 13 C-0.67 8.71 -0.34 4.42 0 0 Z " fill="#F5F5F7" transform="translate(762,226)"/>
<path d="M0 0 C0.70125 0.495 1.4025 0.99 2.125 1.5 C2.785 1.5 3.445 1.5 4.125 1.5 C4.125 2.49 4.125 3.48 4.125 4.5 C4.785 4.5 5.445 4.5 6.125 4.5 C6.125 10.11 6.125 15.72 6.125 21.5 C3.125 22.5 3.125 22.5 1.125 22.5 C0.33609375 22.61859375 -0.4528125 22.7371875 -1.265625 22.859375 C-8.99752592 23.91564562 -8.99752592 23.91564562 -13.4375 21.8125 C-16.34575441 19.05338684 -17.67518809 17.09590035 -18.17578125 13.09765625 C-18.21636194 4.31869937 -18.21636194 4.31869937 -14.875 0.5 C-10.53154091 -2.87824596 -4.62493421 -2.41300915 0 0 Z " fill="#05052E" transform="translate(582.875,237.5)"/>
<path d="M0 0 C3.625 1.6875 3.625 1.6875 6 4 C7.1446875 5.11375 7.1446875 5.11375 8.3125 6.25 C10 9 10 9 11 17 C-0.88 17 -12.76 17 -25 17 C-23.93945724 9.57620067 -22.76194453 6.76194453 -17.625 1.625 C-11.87161271 -0.95410465 -6.19912302 -0.72887551 0 0 Z " fill="#02022C" transform="translate(751,118)"/>
<path d="M0 0 C3.10352458 1.60923497 5.21701424 3.00347267 7.375 5.75 C8.80762043 10.90743355 8.70282968 14.62037137 6.3125 19.3125 C3.16514082 22.97024175 0.87165262 24.72124323 -3.9375 25.4375 C-7.83530088 24.8806713 -9.93989651 23.43417323 -13 21 C-16.10542508 16.34186237 -15.74307763 11.45168836 -15 6 C-10.86365502 0.44858963 -6.79403276 -0.9218669 0 0 Z " fill="#F3F2F5" transform="translate(697,236)"/>
<path d="M0 0 C2.31 0 4.62 0 7 0 C8.71111852 4.39573909 10.42005899 8.79231609 12.12695312 13.18969727 C12.7083802 14.68667686 13.29041028 16.18342239 13.87304688 17.67993164 C14.70860498 19.82637811 15.54201727 21.97364676 16.375 24.12109375 C16.63748535 24.79401962 16.8999707 25.4669455 17.17041016 26.16026306 C19 30.88612829 19 30.88612829 19 32 C17.02 32 15.04 32 13 32 C12.34 29.03 11.68 26.06 11 23 C6.05 23 1.1 23 -4 23 C-4.33 24.65 -4.66 26.3 -5 28 C-6.0625 30.3125 -6.0625 30.3125 -7 32 C-8.65 32 -10.3 32 -12 32 C-10.45324272 27.76361 -8.90495025 23.52778551 -7.35522461 19.29248047 C-6.82810783 17.85122924 -6.30141288 16.40982367 -5.77514648 14.96826172 C-5.01917261 12.89770557 -4.26168965 10.82770697 -3.50390625 8.7578125 C-3.26845596 8.11192169 -3.03300568 7.46603088 -2.79042053 6.80056763 C-1.94032069 4.48190141 -1.10544695 2.2108939 0 0 Z " fill="#F7F6F8" transform="translate(345,228)"/>
<path d="M0 0 C3.58552881 1.63687185 4.79315055 2.68972583 7 6 C7 8.64 7 11.28 7 14 C1.39 14 -4.22 14 -10 14 C-8.02 16.97 -8.02 16.97 -6 20 C-1.65815798 19.81535634 -1.65815798 19.81535634 2 18 C3.66617115 17.95936168 5.33388095 17.957279 7 18 C5.09010197 21.62880625 3.84683255 23.51671682 0 25 C-4.93615434 25.42385583 -8.17907706 24.68410245 -12 21.5 C-14.65276905 17.66822248 -15.28838777 13.59772496 -15 9 C-12.29485574 1.31169526 -8.08463258 -1.20546211 0 0 Z " fill="#E6E5EA" transform="translate(867,236)"/>
<path d="M0 0 C2.87472735 1.24988145 4.44101438 2.25468584 6.3125 4.75 C7 7 7 7 7 14 C1.39 14 -4.22 14 -10 14 C-9.34 15.65 -8.68 17.3 -8 19 C-2.71800407 20.19988045 -2.71800407 20.19988045 2 18 C3.32 18 4.64 18 6 18 C5.09456528 21.12786541 4.6185409 22.63918447 1.75 24.3125 C-2.48361246 25.37090312 -5.5881188 25.55818559 -9.6875 23.9375 C-13.74454406 20.53835498 -14.80682774 16.57297412 -15.4375 11.4375 C-14.91050615 7.29683403 -13.61721934 5.21544091 -11 2 C-7.28957469 -0.47361688 -4.30137325 -0.54607278 0 0 Z " fill="#F6F6F7" transform="translate(785,236)"/>
<path d="M0 0 C3.9738217 2.33246057 5.80747017 4.55511608 7 9 C7 10.65 7 12.3 7 14 C-1.415 14.495 -1.415 14.495 -10 15 C-9.01 16.65 -8.02 18.3 -7 20 C-3.95746492 20.58345476 -3.95746492 20.58345476 -1 20 C-0.34 19.34 0.32 18.68 1 18 C3.625 17.875 3.625 17.875 6 18 C4.5435664 21.83968859 2.71785783 23.31006462 -1 25 C-4.98248997 25.5931368 -6.67640929 25.17424115 -10.25 23.25 C-13.510622 20.58221837 -14.77676806 18.78295644 -15.30078125 14.59765625 C-15.34136194 5.81869937 -15.34136194 5.81869937 -12 2 C-8.53596584 -0.69424879 -4.20471068 -0.67710053 0 0 Z " fill="#E3E3E7" transform="translate(408,236)"/>
<path d="M0 0 C2.87472735 1.24988145 4.44101438 2.25468584 6.3125 4.75 C7 7 7 7 7 14 C1.39 14 -4.22 14 -10 14 C-9.34 15.65 -8.68 17.3 -8 19 C-2.71800407 20.19988045 -2.71800407 20.19988045 2 18 C3.32 18 4.64 18 6 18 C5.00456145 20.624338 4.02807645 21.97605244 1.875 23.8125 C-1.95421147 25.39413083 -5.13090695 25.28969768 -9 24 C-11.68280226 21.88800673 -13.44996667 20.26930769 -14.8125 17.125 C-14.9053125 16.073125 -14.9053125 16.073125 -15 15 C-15.103125 13.88625 -15.20625 12.7725 -15.3125 11.625 C-14.93947425 7.29790125 -13.71715334 5.33821697 -11 2 C-7.28957469 -0.47361688 -4.30137325 -0.54607278 0 0 Z " fill="#E6E5EA" transform="translate(935,236)"/>
<path d="M0 0 C2.50160818 1.87620613 3.61945652 3.23891303 5 6 C5.08308638 7.37548156 5.10736016 8.75485796 5.09765625 10.1328125 C5.09443359 10.93847656 5.09121094 11.74414062 5.08789062 12.57421875 C5.07951172 13.41597656 5.07113281 14.25773438 5.0625 15.125 C5.05798828 15.97449219 5.05347656 16.82398438 5.04882812 17.69921875 C5.03702874 19.79950909 5.01909306 21.8997633 5 24 C3.68 24 2.36 24 1 24 C0.67 23.34 0.34 22.68 0 22 C-0.680625 22.515625 -1.36125 23.03125 -2.0625 23.5625 C-5.87319838 25.42730984 -7.9412538 25.05226753 -12 24 C-13.9375 22.875 -13.9375 22.875 -15 21 C-15.5625 17.5625 -15.5625 17.5625 -15 14 C-11.57271593 10.57271593 -8.82728768 9.77228572 -4.125 9.75 C-2.74894513 9.81358009 -1.37313591 9.89014913 0 10 C-0.33 8.35 -0.66 6.7 -1 5 C-4.97754128 4.26665571 -4.97754128 4.26665571 -9 4 C-9.33 4.99 -9.66 5.98 -10 7 C-11.32 7 -12.64 7 -14 7 C-13.65557106 4.50289018 -13.15296001 3.17845335 -11.5 1.25 C-7.7226181 -0.63869095 -4.13960885 -0.70769048 0 0 Z " fill="#E2E1E6" transform="translate(646,236)"/>
<path d="M0 0 C1.32 0 2.64 0 4 0 C4.67364661 2.08108685 5.33866798 4.1649671 6 6.25 C6.37125 7.41015625 6.7425 8.5703125 7.125 9.765625 C8 13 8 13 8 17 C8.66 17 9.32 17 10 17 C10.1546875 15.576875 10.1546875 15.576875 10.3125 14.125 C10.9910919 9.26508446 12.5085476 4.66196126 14 0 C15.32 0 16.64 0 18 0 C20.475 7.425 20.475 7.425 23 15 C25.44752876 9.31189772 25.44752876 9.31189772 27.6875 3.5625 C28.120625 2.386875 28.55375 1.21125 29 0 C30.32 0 31.64 0 33 0 C30.86662595 8.06480039 28.49320448 16.03946386 26 24 C24.35 24 22.7 24 21 24 C19.35 19.05 17.7 14.1 16 9 C14.68 13.62 13.36 18.24 12 23 C10.35 23.33 8.7 23.66 7 24 C5.82307643 20.75362269 4.66027726 17.5023602 3.5 14.25 C3.16613281 13.32960937 2.83226562 12.40921875 2.48828125 11.4609375 C2.17246094 10.57148438 1.85664062 9.68203125 1.53125 8.765625 C1.23798828 7.94868164 0.94472656 7.13173828 0.64257812 6.29003906 C0 4 0 4 0 0 Z " fill="#F0F0F3" transform="translate(886,236)"/>
<path d="M0 0 C2.875 1.4375 2.875 1.4375 5 4 C5.99038274 7.01263021 6.49026677 9.84892188 7 13 C1.06 13 -4.88 13 -11 13 C-10.01 14.98 -9.02 16.96 -8 19 C-4.50260082 20.15483439 -4.50260082 20.15483439 -1 20 C-0.34 19.34 0.32 18.68 1 18 C3.625 17.875 3.625 17.875 6 18 C4.5435664 21.83968859 2.71785783 23.31006462 -1 25 C-4.98248997 25.5931368 -6.67640929 25.17424115 -10.25 23.25 C-13.49855357 20.59209253 -14.72236461 18.77102153 -15.37109375 14.6328125 C-15.489301 10.1687503 -15.54314445 6.99264353 -12.625 3.4375 C-8.62984349 -0.27228819 -5.34236105 -0.69727553 0 0 Z " fill="#EFEFF1" transform="translate(545,236)"/>
<path d="M0 0 C1.32 0 2.64 0 4 0 C4 0.99 4 1.98 4 3 C4.66 3 5.32 3 6 3 C6 2.34 6 1.68 6 1 C9.19233485 -0.59616743 12.53461497 -0.51466114 16 0 C18.43119623 1.87015094 19.64069173 3.28138345 21 6 C21.08308638 7.37548156 21.10736016 8.75485796 21.09765625 10.1328125 C21.09443359 10.93847656 21.09121094 11.74414062 21.08789062 12.57421875 C21.07951172 13.41597656 21.07113281 14.25773438 21.0625 15.125 C21.05798828 15.97449219 21.05347656 16.82398438 21.04882812 17.69921875 C21.03702874 19.79950909 21.01909306 21.8997633 21 24 C19.35 24 17.7 24 16 24 C15.93941406 22.71222656 15.87882812 21.42445313 15.81640625 20.09765625 C15.73201753 18.41925841 15.6473687 16.74087364 15.5625 15.0625 C15.52318359 14.21236328 15.48386719 13.36222656 15.44335938 12.48632812 C15.38051758 11.27299805 15.38051758 11.27299805 15.31640625 10.03515625 C15.27974854 9.2862915 15.24309082 8.53742676 15.20532227 7.76586914 C15.18228937 5.97538674 15.18228937 5.97538674 14 5 C11.36 5 8.72 5 6 5 C5.67 11.27 5.34 17.54 5 24 C3.35 24 1.7 24 0 24 C0 16.08 0 8.16 0 0 Z " fill="#E6E6EB" transform="translate(419,236)"/>
<path d="M0 0 C1.32 0 2.64 0 4 0 C4.33 0.66 4.66 1.32 5 2 C5.99 1.34 6.98 0.68 8 0 C15.11864407 -0.6779661 15.11864407 -0.6779661 18.4375 1.875 C20.64170153 4.87271409 21.12344099 6.47137903 21.09765625 10.1328125 C21.09443359 10.93847656 21.09121094 11.74414062 21.08789062 12.57421875 C21.07951172 13.41597656 21.07113281 14.25773438 21.0625 15.125 C21.05798828 15.97449219 21.05347656 16.82398438 21.04882812 17.69921875 C21.03702874 19.79950909 21.01909306 21.8997633 21 24 C19.35 24 17.7 24 16 24 C15.93941406 22.71222656 15.87882813 21.42445313 15.81640625 20.09765625 C15.73201753 18.41925841 15.6473687 16.74087364 15.5625 15.0625 C15.52318359 14.21236328 15.48386719 13.36222656 15.44335938 12.48632812 C15.38051758 11.27299805 15.38051758 11.27299805 15.31640625 10.03515625 C15.27974854 9.2862915 15.24309082 8.53742676 15.20532227 7.76586914 C15.18228937 5.97538674 15.18228937 5.97538674 14 5 C9.99650892 4.60237216 9.99650892 4.60237216 6.34765625 6.00390625 C4.23452356 9.13379264 4.42439657 12.52688368 4.3125 16.1875 C4.27833984 16.93708984 4.24417969 17.68667969 4.20898438 18.45898438 C4.12665706 20.30546838 4.06164719 22.15270994 4 24 C2.68 24 1.36 24 0 24 C0 16.08 0 8.16 0 0 Z " fill="#F9F9FA" transform="translate(709,236)"/>
<path d="M0 0 C2.5625 1.875 2.5625 1.875 4 4 C4 4.66 4 5.32 4 6 C3.29875 5.855625 2.5975 5.71125 1.875 5.5625 C-1.07556141 4.98521625 -4.03270151 4.48304859 -7 4 C-7.33 5.32 -7.66 6.64 -8 8 C-7.31292969 8.24234375 -6.62585938 8.4846875 -5.91796875 8.734375 C-5.01691406 9.06953125 -4.11585938 9.4046875 -3.1875 9.75 C-2.29417969 10.07484375 -1.40085937 10.3996875 -0.48046875 10.734375 C2.28056489 12.14315437 3.45771729 13.33324361 5 16 C4.86266781 18.81530983 4.48775506 20.39179323 2.71875 22.59765625 C-0.38807899 25.13254627 -4.10346935 25.11621232 -8 25 C-11 23.8125 -11 23.8125 -13 22 C-13.8125 19.8125 -13.8125 19.8125 -14 18 C-12.35 18 -10.7 18 -9 18 C-8.67 18.66 -8.34 19.32 -8 20 C-5.69 20 -3.38 20 -1 20 C-1 18.68 -1 17.36 -1 16 C-1.61488281 15.81824219 -2.22976563 15.63648438 -2.86328125 15.44921875 C-3.67152344 15.19785156 -4.47976563 14.94648438 -5.3125 14.6875 C-6.11300781 14.44386719 -6.91351562 14.20023438 -7.73828125 13.94921875 C-10.16129639 12.93230566 -11.40853113 12.07998937 -13 10 C-13.74883721 4.00930233 -13.74883721 4.00930233 -11.5625 1.0625 C-7.7081989 -0.53562484 -4.10669344 -0.70077521 0 0 Z " fill="#EEEEF1" transform="translate(819,236)"/>
<path d="M0 0 C2.5735418 1.4116474 3.9521692 2.79858189 6 5 C6 5.99 6 6.98 6 8 C3.625 8.1875 3.625 8.1875 1 8 C0.34 7.01 -0.32 6.02 -1 5 C-3.95746492 4.41654524 -3.95746492 4.41654524 -7 5 C-9.58549901 7.24076581 -9.95822679 8.59897714 -10.3125 12 C-9.94876954 15.83042672 -9.94876954 15.83042672 -8 19 C-5.08995097 20.08223366 -5.08995097 20.08223366 -2 20 C-0.41666667 18.58333333 -0.41666667 18.58333333 1 17 C3.6875 16.8125 3.6875 16.8125 6 17 C5.65111224 19.52943628 5.18872953 20.7961721 3.4375 22.6875 C0.0484404 24.51237825 -3.1834976 25.24954054 -7 25 C-11.08616365 22.95691818 -13.32847469 21.22842475 -15 17 C-15.57421743 12.41371794 -15.5355239 8.28525735 -13.75 4 C-10.0120389 -0.27195555 -5.5545874 -1.0640972 0 0 Z " fill="#F3F3F5" transform="translate(459,236)"/>
<path d="M0 0 C2.5735418 1.4116474 3.9521692 2.79858189 6 5 C6 5.99 6 6.98 6 8 C1.25 7.25 1.25 7.25 -1 5 C-3.95769177 4.49989476 -3.95769177 4.49989476 -7 5 C-9.58549901 7.24076581 -9.95822679 8.59897714 -10.3125 12 C-9.94876954 15.83042672 -9.94876954 15.83042672 -8 19 C-5.08995097 20.08223366 -5.08995097 20.08223366 -2 20 C-0.41666667 18.58333333 -0.41666667 18.58333333 1 17 C3.6875 16.8125 3.6875 16.8125 6 17 C5.06601394 20.14158949 4.33205059 21.7325148 1.75 23.8125 C-1.54402512 25.23491994 -3.44252948 25.50821007 -7 25 C-10.98209647 22.85579421 -13.3518937 21.21520275 -15 17 C-15.57421743 12.41371794 -15.5355239 8.28525735 -13.75 4 C-10.0120389 -0.27195555 -5.5545874 -1.0640972 0 0 Z " fill="#F5F5F6" transform="translate(580,236)"/>
<path d="M0 0 C2.875 0.125 2.875 0.125 6 1 C9.64923624 5.13580107 9 7.04705727 9 13 C3.39 13 -2.22 13 -8 13 C-7.34 14.65 -6.68 16.3 -6 18 C-0.71800407 19.19988045 -0.71800407 19.19988045 4 17 C5.32 17 6.64 17 8 17 C7.11888201 20.04386216 6.58026389 21.62453513 3.875 23.375 C0.05679863 24.20504378 -3.31448083 24.29551583 -7 23 C-10.0281842 20.51495449 -11.75778049 17.72665852 -13 14 C-13.03954234 11.66700175 -13.04401732 9.33291811 -13 7 C-12.01 6.67 -11.02 6.34 -10 6 C-9.67 6.99 -9.34 7.98 -9 9 C-2.07 9.495 -2.07 9.495 5 10 C2.5560237 4.7576911 2.5560237 4.7576911 -1 1 C-0.67 0.67 -0.34 0.34 0 0 Z " fill="#E9E9EC" transform="translate(618,237)"/>
<path d="M0 0 C0.33 0 0.66 0 1 0 C1.02312792 7.80575195 1.04091738 15.61149595 1.05181217 23.41727352 C1.05704002 27.0414596 1.06413587 30.6656223 1.07543945 34.28979492 C1.08627184 37.78459975 1.09227758 41.27938204 1.09487724 44.77420235 C1.09763551 46.76239389 1.10544688 48.75057631 1.11329651 50.73875427 C1.11340981 52.54050865 1.11340981 52.54050865 1.11352539 54.37866211 C1.115746 55.44233505 1.11796661 56.506008 1.12025452 57.60191345 C1 60 1 60 0 61 C-7.26 61 -14.52 61 -22 61 C-22 41.86 -22 22.72 -22 3 C-19.78282985 6.32575522 -19.75456562 7.3360624 -19.77294922 11.20581055 C-19.77310028 12.26668381 -19.77325134 13.32755707 -19.77340698 14.420578 C-19.78372955 15.56440445 -19.79405212 16.7082309 -19.8046875 17.88671875 C-19.8075174 19.05886429 -19.81034729 20.23100983 -19.81326294 21.43867493 C-19.82447247 25.18838643 -19.84957872 28.93786049 -19.875 32.6875 C-19.88502879 35.2272101 -19.89415481 37.76692393 -19.90234375 40.30664062 C-19.92441437 46.53785213 -19.95894974 52.76888579 -20 59 C-10.595 58.505 -10.595 58.505 -1 58 C-0.67 38.86 -0.34 19.72 0 0 Z " fill="#CFCCD2" transform="translate(929,126)"/>
<path d="M0 0 C3.63975198 0.27998092 6.29303801 0.53489343 9.375 2.5625 C11 5 11 5 12 13 C6.39 13 0.78 13 -5 13 C-4.34 14.98 -3.68 16.96 -3 19 C2.28199593 20.19988045 2.28199593 20.19988045 7 18 C8.32 18 9.64 18 11 18 C9.5435664 21.83968859 7.71785783 23.31006462 4 25 C0.05447511 25.58763137 -1.68463193 25.16374881 -5.25 23.3125 C-8.17455996 20.85321094 -9.12642832 19.66900104 -10 16 C-10.125 12.6875 -10.125 12.6875 -10 10 C-8.68 9.34 -7.36 8.68 -6 8 C-6 8.99 -6 9.98 -6 11 C-1.38 11 3.24 11 8 11 C7.34 9.02 6.68 7.04 6 5 C3.49552484 3.78130071 3.49552484 3.78130071 1 3 C0.67 2.01 0.34 1.02 0 0 Z " fill="#F8F7F8" transform="translate(478,236)"/>
<path d="M0 0 C2.31 0 4.62 0 7 0 C8.32 3.63 9.64 7.26 11 11 C10.01 11.33 9.02 11.66 8 12 C8.33 14.31 8.66 16.62 9 19 C7.20866022 19.05391993 5.41686101 19.09275571 3.625 19.125 C2.62726563 19.14820313 1.62953125 19.17140625 0.6015625 19.1953125 C-2 19 -2 19 -4 17 C-4.66 17 -5.32 17 -6 17 C-4.33846988 11.14340094 -2.52958084 5.5409866 0 0 Z " fill="#F3F3F5" transform="translate(345,228)"/>
<path d="M0 0 C2.31 0 4.62 0 7 0 C7 1.98 7 3.96 7 6 C5.02 6.99 5.02 6.99 3 8 C3.99 8.33 4.98 8.66 6 9 C6 17.25 6 25.5 6 34 C4.02 34 2.04 34 0 34 C-0.19754468 29.458712 -0.38126885 24.91696597 -0.5625 20.375 C-0.61857422 19.08980469 -0.67464844 17.80460937 -0.73242188 16.48046875 C-0.78076172 15.23652344 -0.82910156 13.99257812 -0.87890625 12.7109375 C-0.9260376 11.56931152 -0.97316895 10.42768555 -1.02172852 9.25146484 C-1.0003519 6.05265814 -0.61639045 3.13383696 0 0 Z " fill="#2B2A3C" transform="translate(826,226)"/>
<path d="M0 0 C1.32 0 2.64 0 4 0 C4 1.98 4 3.96 4 6 C5.98 6 7.96 6 10 6 C10 7.32 10 8.64 10 10 C8.02 10 6.04 10 4 10 C4.33 14.95 4.66 19.9 5 25 C6.65 25.33 8.3 25.66 10 26 C10 27.32 10 28.64 10 30 C3.71510791 30.48345324 3.71510791 30.48345324 0.78125 28.5 C-1.70381201 25.01219368 -1.43867424 21.85729312 -1.25 17.75 C-1.23195313 17.00492188 -1.21390625 16.25984375 -1.1953125 15.4921875 C-1.14835649 13.66090299 -1.07661652 11.83028351 -1 10 C-1.99 10 -2.98 10 -4 10 C-4 9.01 -4 8.02 -4 7 C-3.01 7 -2.02 7 -1 7 C-1.020625 6.030625 -1.04125 5.06125 -1.0625 4.0625 C-1 1 -1 1 0 0 Z " fill="#DCDCE4" transform="translate(840,230)"/>
<path d="M0 0 C3 0.5625 3 0.5625 5.375 2 C7.77817914 5.78962864 7.77561987 9.19663972 7 13.5625 C5.4375 16.1875 5.4375 16.1875 3 17.5625 C-0.75343683 17.5625 -3.02225706 17.38254247 -5.9375 14.9375 C-7.44290722 11.57247209 -7.44819965 9.21212568 -7 5.5625 C-5.01529365 1.9747616 -4.06692899 0.76254919 0 0 Z " fill="#04042B" transform="translate(693,239.4375)"/>
<path d="M0 0 C2.8778494 2.57491789 3.87914292 4.17126574 4.4375 8 C3.93051324 11.47648063 3.2921612 13.32581193 1 16 C-1.875 17.125 -1.875 17.125 -5 17 C-7.92038545 15.03191415 -9.64799121 13.5488387 -10.44921875 10.0234375 C-10.63500985 6.60231857 -10.24177391 4.37195986 -8.375 1.5 C-5.25673949 -0.46942769 -3.62279473 -0.67927401 0 0 Z " fill="#08082E" transform="translate(961,240)"/>
<path d="M0 0 C1.8125 1 1.8125 1 3 3 C3.98029781 7.34131887 4.44824016 9.76074779 2.9375 13.9375 C1 16 1 16 -1.875 17.125 C-5 17 -5 17 -7.875 15.0625 C-10.78643017 10.86661535 -10.71898986 9.032929 -10 4 C-7.30226606 -0.15035991 -4.80944863 -0.71630086 0 0 Z " fill="#070732" transform="translate(758,240)"/>
<path d="M0 0 C2.375 1.5 2.375 1.5 4 4 C4.59434688 8.68048168 4.57487433 10.87324632 2.4375 15.0625 C0 17 0 17 -3.5625 17.1875 C-7 16 -7 16 -9 13.375 C-10.17702027 9.4025566 -10.05443715 6.9917978 -9 3 C-6.75137054 -0.66881649 -4.0613504 -0.58019291 0 0 Z " fill="#05062E" transform="translate(517,240)"/>
<path d="M0 0 C2.375 1.5 2.375 1.5 4 4 C4.6948487 7.80995693 4.45171582 10.93713925 2.9375 14.5 C-0.05072823 16.81346701 -2.34503841 16.4568702 -6 16 C-8.3124363 14.34293159 -8.92408183 13.45253185 -9.3984375 10.625 C-9.39070313 9.75875 -9.38296875 8.8925 -9.375 8 C-9.38273437 7.13375 -9.39046875 6.2675 -9.3984375 5.375 C-8.4885425 -0.04868782 -4.99281372 -0.7132591 0 0 Z " fill="#03032A" transform="translate(380,240)"/>
<path d="M0 0 C0.99 0 1.98 0 3 0 C3 2.31 3 4.62 3 7 C5.31 7 7.62 7 10 7 C10 7.99 10 8.98 10 10 C7.69 10 5.38 10 3 10 C3.33 15.28 3.66 20.56 4 26 C5.65 26 7.3 26 9 26 C9.33 27.32 9.66 28.64 10 30 C2.56852792 30.48730964 2.56852792 30.48730964 0.25 28.5 C-1.52124575 24.95750851 -1.32054364 21.61167699 -1.1875 17.75 C-1.16719727 16.63238281 -1.16719727 16.63238281 -1.14648438 15.4921875 C-1.11127204 13.66114584 -1.05746851 11.83047831 -1 10 C-1.99 10 -2.98 10 -4 10 C-4 9.01 -4 8.02 -4 7 C-3.01 7 -2.02 7 -1 7 C-1.020625 6.030625 -1.04125 5.06125 -1.0625 4.0625 C-1 1 -1 1 0 0 Z " fill="#F6F5F8" transform="translate(659,230)"/>
<path d="M0 0 C10.91729914 -0.57236326 10.91729914 -0.57236326 15 3 C17.03671629 6.00658118 17 7.19096596 17 11 C17.66 11 18.32 11 19 11 C19.33 9.68 19.66 8.36 20 7 C20.763125 7.061875 21.52625 7.12375 22.3125 7.1875 C25.04900001 7.30580899 25.04900001 7.30580899 26.4375 5.4375 C26.953125 4.963125 27.46875 4.48875 28 4 C33.43478261 4.43478261 33.43478261 4.43478261 35 6 C35.04063832 7.66617115 35.042721 9.33388095 35 11 C34.40832031 11.03738281 33.81664062 11.07476562 33.20703125 11.11328125 C26.59684028 11.64313823 26.59684028 11.64313823 21 15 C20.11341534 17.59122743 20.11341534 17.59122743 20 20 C19.34 20 18.68 20 18 20 C18 18.68 18 17.36 18 16 C11.73 16 5.46 16 -1 16 C-1 15.67 -1 15.34 -1 15 C4.61 15 10.22 15 16 15 C15.731875 13.576875 15.46375 12.15375 15.1875 10.6875 C15.03667969 9.88699219 14.88585937 9.08648437 14.73046875 8.26171875 C13.91259229 5.72936328 13.03985393 4.66990561 11 3 C8.47524538 1.73762269 6.68799534 1.90143596 3.875 1.9375 C2.96492187 1.94652344 2.05484375 1.95554688 1.1171875 1.96484375 C0.06917969 1.98224609 0.06917969 1.98224609 -1 2 C-0.67 1.34 -0.34 0.68 0 0 Z " fill="#07071D" transform="translate(611,235)"/>
<path d="M0 0 C0.33 0 0.66 0 1 0 C1 2.97 1 5.94 1 9 C0.67 8.34 0.34 7.68 0 7 C-3.3 7.33 -6.6 7.66 -10 8 C-10.33 9.32 -10.66 10.64 -11 12 C-10.01732141 13.20561184 -10.01732141 13.20561184 -8.15234375 13.09765625 C-6.1015625 13.06510417 -4.05078125 13.03255208 -2 13 C-2 12.34 -2 11.68 -2 11 C-0.68 10.67 0.64 10.34 2 10 C2 7.03 2 4.06 2 1 C2.33 1 2.66 1 3 1 C3 6.28 3 11.56 3 17 C2.01 17 1.02 17 0 17 C-0.33 16.34 -0.66 15.68 -1 15 C-1.680625 15.515625 -2.36125 16.03125 -3.0625 16.5625 C-6.87319838 18.42730984 -8.9412538 18.05226753 -13 17 C-14.9375 15.875 -14.9375 15.875 -16 14 C-16.4375 10.5 -16.4375 10.5 -16 7 C-13.67828434 4.57854477 -12.34503863 4.03352059 -8.984375 3.70703125 C-7.91703125 3.74183594 -6.8496875 3.77664062 -5.75 3.8125 C-4.13351562 3.85310547 -4.13351562 3.85310547 -2.484375 3.89453125 C-1.66453125 3.92933594 -0.8446875 3.96414062 0 4 C0 2.68 0 1.36 0 0 Z " fill="#F6F6F7" transform="translate(647,243)"/>
<path d="M0 0 C0.33 0 0.66 0 1 0 C1 1.65 1 3.3 1 5 C2.65 5 4.3 5 6 5 C7.10048457 10.10298771 6.94251169 14.72081849 6.5625 19.875 C6.51029297 20.65875 6.45808594 21.4425 6.40429688 22.25 C6.27571149 24.1670912 6.13871383 26.08361503 6 28 C3.6568787 27.74438677 1.32156597 27.40729228 -1 27 C-2.50156874 23.99686252 -2.09281204 21.20932478 -2.0625 17.875 C-2.05347656 16.59367187 -2.04445313 15.31234375 -2.03515625 13.9921875 C-2.02355469 13.00476563 -2.01195312 12.01734375 -2 11 C0.31 11 2.62 11 5 11 C5 10.01 5 9.02 5 8 C2.69 8 0.38 8 -2 8 C-2 5.69 -2 3.38 -2 1 C-1.67 1 -1.34 1 -1 1 C-1 2.98 -1 4.96 -1 7 C0.35618499 5.87465895 0.35618499 5.87465895 0.0625 2.9375 C0.041875 1.968125 0.02125 0.99875 0 0 Z " fill="#0E0E3D" transform="translate(664,229)"/>
<path d="M0 0 C7.26 0 14.52 0 22 0 C22 4.29 22 8.58 22 13 C21.34 13 20.68 13 20 13 C20 9.37 20 5.74 20 2 C13.73 2 7.46 2 1 2 C1 28.73 1 55.46 1 83 C3.97 83 6.94 83 10 83 C10 83.33 10 83.66 10 84 C6.7 84 3.4 84 0 84 C0 56.28 0 28.56 0 0 Z " fill="#FDFDFA" transform="translate(582,102)"/>
<path d="M0 0 C1.65 0 3.3 0 5 0 C5.33 0.66 5.66 1.32 6 2 C6.66 1.34 7.32 0.68 8 0 C10.625 -0.125 10.625 -0.125 13 0 C13 1.65 13 3.3 13 5 C10.69 5.66 8.38 6.32 6 7 C5.67 12.61 5.34 18.22 5 24 C3.35 24 1.7 24 0 24 C0 16.08 0 8.16 0 0 Z " fill="#F0F0F2" transform="translate(590,236)"/>
<path d="M0 0 C0.33 0 0.66 0 1 0 C1 18.81 1 37.62 1 57 C-6.59 57 -14.18 57 -22 57 C-22 56.34 -22 55.68 -22 55 C-15.07 55 -8.14 55 -1 55 C-1.00785522 52.60741943 -1.00785522 52.60741943 -1.01586914 50.16650391 C-1.0339265 44.26628172 -1.04543473 38.36606198 -1.05493164 32.46582031 C-1.05997017 29.90884999 -1.06680107 27.35188257 -1.07543945 24.79492188 C-1.08752602 21.12629483 -1.09323301 17.45770577 -1.09765625 13.7890625 C-1.10539818 12.0655809 -1.10539818 12.0655809 -1.11329651 10.30728149 C-1.11340981 8.71585831 -1.11340981 8.71585831 -1.11352539 7.09228516 C-1.115746 6.15518707 -1.11796661 5.21808899 -1.12025452 4.25259399 C-1 2 -1 2 0 0 Z " fill="#DEDCDE" transform="translate(819,130)"/>
<path d="M0 0 C0.99 0.66 1.98 1.32 3 2 C4.65 1.67 6.3 1.34 8 1 C8 5.29 8 9.58 8 14 C7.67 13.01 7.34 12.02 7 11 C6.34 11 5.68 11 5 11 C4.67 11.99 4.34 12.98 4 14 C3.87882812 13.43410156 3.75765625 12.86820313 3.6328125 12.28515625 C3.46523438 11.55167969 3.29765625 10.81820312 3.125 10.0625 C2.96257812 9.33160156 2.80015625 8.60070312 2.6328125 7.84765625 C2.17038477 5.79299706 2.17038477 5.79299706 0 5 C-2.95769177 4.49989476 -2.95769177 4.49989476 -6 5 C-7.77401355 7.09075658 -7.77401355 7.09075658 -9 10 C-9.71981413 11.27615399 -10.44924703 12.54692348 -11.1875 13.8125 C-11.785625 14.864375 -12.38375 15.91625 -13 17 C-13.33 17 -13.66 17 -14 17 C-14.57236326 6.08270086 -14.57236326 6.08270086 -11 2 C-7.58542621 -0.56093034 -4.14438649 -0.30140993 0 0 Z " fill="#F6F5F7" transform="translate(380,236)"/>
<path d="M0 0 C0.50367757 1.45706726 1.00282556 2.91570096 1.5 4.375 C1.7784375 5.18710938 2.056875 5.99921875 2.34375 6.8359375 C3 9 3 9 3 11 C0.70839681 11.02692484 -1.58329546 11.04636124 -3.875 11.0625 C-5.15117188 11.07410156 -6.42734375 11.08570313 -7.7421875 11.09765625 C-11 11 -11 11 -13 10 C-13.3125 7.25 -13.3125 7.25 -13 4 C-9.09351253 -0.63895387 -5.65200184 -0.38318657 0 0 Z " fill="#E0DFE5" transform="translate(935,236)"/>
<path d="M0 0 C-0.99 1.485 -0.99 1.485 -2 3 C-1.360625 3.391875 -0.72125 3.78375 -0.0625 4.1875 C2.461666 6.40570649 2.496905 7.76430479 3 11 C0.72975032 11.08097324 -1.54132075 11.13917704 -3.8125 11.1875 C-5.70935547 11.23970703 -5.70935547 11.23970703 -7.64453125 11.29296875 C-11 11 -11 11 -12.94921875 9.48828125 C-13.29597656 8.99714844 -13.64273438 8.50601563 -14 8 C-13.12269491 5.29497597 -12.28331029 3.31599994 -10.375 1.1875 C-6.84016181 -0.5799191 -3.92581331 -0.19629067 0 0 Z " fill="#DDDCE3" transform="translate(620,236)"/>
<path d="M0 0 C2 1.8125 2 1.8125 4 4 C4.8353125 4.7425 4.8353125 4.7425 5.6875 5.5 C7 7 7 7 8 11 C3.38 11 -1.24 11 -6 11 C-6.33 10.34 -6.66 9.68 -7 9 C-7.99 9.33 -8.98 9.66 -10 10 C-8.59876685 4.39506739 -6.30827978 0 0 0 Z " fill="#D6D5DD" transform="translate(478,236)"/>
<path d="M0 0 C20.13 0 40.26 0 61 0 C61 0.66 61 1.32 61 2 C41.53 2 22.06 2 2 2 C1.67 3.32 1.34 4.64 1 6 C0.67 4.02 0.34 2.04 0 0 Z " fill="#383741" transform="translate(725,149)"/>
<path d="M0 0 C1.65 0 3.3 0 5 0 C5 7.92 5 15.84 5 24 C3.35 24 1.7 24 0 24 C0 16.08 0 8.16 0 0 Z " fill="#D6D6DF" transform="translate(672,236)"/>
<path d="M0 0 C2.22696514 2.22696514 2.91729646 3.79350126 3.1328125 6.9375 C3.13023437 7.618125 3.12765625 8.29875 3.125 9 C3.12886719 10.0209375 3.12886719 10.0209375 3.1328125 11.0625 C3 13 3 13 2 16 C1.34 16 0.68 16 0 16 C0 15.34 0 14.68 0 14 C-1.010625 14.515625 -2.02125 15.03125 -3.0625 15.5625 C-6.98896811 17.24641214 -9.83504296 17.14332154 -14 16 C-16 13 -16 13 -16 10 C-10.39 10 -4.78 10 1 10 C0.505 5.05 0.505 5.05 0 0 Z " fill="#020217" transform="translate(941,240)"/>
<path d="M0 0 C0.33 0 0.66 0 1 0 C1 11.22 1 22.44 1 34 C-0.65 34 -2.3 34 -4 34 C-4.33 33.34 -4.66 32.68 -5 32 C-5.556875 32.495 -6.11375 32.99 -6.6875 33.5 C-9.38162983 35.24754367 -10.85375007 35.26218749 -14 35 C-14 34.01 -14 33.02 -14 32 C-13.113125 32 -12.22625 32 -11.3125 32 C-7.51531569 30.85368021 -7.19947953 30.25883145 -5.25 27 C-4.86328125 26.278125 -4.4765625 25.55625 -4.078125 24.8125 C-3 23 -3 23 -1 22 C-0.67 14.74 -0.34 7.48 0 0 Z " fill="#D1D1D9" transform="translate(525,226)"/>
<path d="M0 0 C0.80244141 0.00966797 1.60488281 0.01933594 2.43164062 0.02929688 C3.26501953 0.05443359 4.09839844 0.07957031 4.95703125 0.10546875 C6.22450195 0.12577148 6.22450195 0.12577148 7.51757812 0.14648438 C9.60183509 0.18181076 11.68576402 0.23561736 13.76953125 0.29296875 C13.76953125 0.62296875 13.76953125 0.95296875 13.76953125 1.29296875 C8.15953125 1.29296875 2.54953125 1.29296875 -3.23046875 1.29296875 C-2.57046875 2.94296875 -1.91046875 4.59296875 -1.23046875 6.29296875 C4.05152718 7.4928492 4.05152718 7.4928492 8.76953125 5.29296875 C10.08953125 5.29296875 11.40953125 5.29296875 12.76953125 5.29296875 C11.86409653 8.42083416 11.38807215 9.93215322 8.51953125 11.60546875 C4.1751199 12.69157159 1.12033682 12.93767141 -2.98046875 10.98046875 C-5.23046875 9.29296875 -5.23046875 9.29296875 -7.23046875 6.29296875 C-7.23046875 3.29296875 -7.23046875 3.29296875 -5.99487305 1.6237793 C-3.81220891 -0.02250578 -2.70821505 -0.0576216 0 0 Z " fill="#D4D3DB" transform="translate(778.23046875,248.70703125)"/>
<path d="M0 0 C0.99 0 1.98 0 3 0 C3.7230591 7.11008111 3.7230591 7.11008111 0.5625 11 C-2.76620288 13.31356654 -5.80973875 13.71652007 -9.80859375 13.5 C-13.57486793 12.64067184 -15.39320618 10.80731642 -18 8 C-18 7.34 -18 6.68 -18 6 C-15.625 5.875 -15.625 5.875 -13 6 C-12.34 6.66 -11.68 7.32 -11 8 C-6.34022625 8.49342828 -6.34022625 8.49342828 -2.125 6.8125 C-0.73770965 4.5774211 -0.35012787 2.59094622 0 0 Z " fill="#F3F3F6" transform="translate(385,257)"/>
<path d="M0 0 C1.98 0 3.96 0 6 0 C7.53297297 3.06594594 7.12131455 6.27111853 7.09765625 9.6328125 C7.0962413 10.38464813 7.09482635 11.13648376 7.09336853 11.91110229 C7.08776465 14.3157751 7.07521157 16.72035527 7.0625 19.125 C7.0574855 20.75390491 7.0529225 22.38281127 7.04882812 24.01171875 C7.03779397 28.00784827 7.02052679 32.00390842 7 36 C2.85421475 36.72706474 -1.03684557 37.13558582 -5.25 37.125 C-6.80460938 37.12886719 -6.80460938 37.12886719 -8.390625 37.1328125 C-11 37 -11 37 -13 36 C-12.67 35.34 -12.34 34.68 -12 34 C-11.34 34.33 -10.68 34.66 -10 35 C-5.32818984 35.41527201 -2.82491487 34.69993991 1 32 C1 32.99 1 33.98 1 35 C2.32 35 3.64 35 5 35 C5 23.78 5 12.56 5 1 C3.35 1 1.7 1 0 1 C0 0.67 0 0.34 0 0 Z " fill="#010115" transform="translate(761,225)"/>
<path d="M0 0 C0.33 0 0.66 0 1 0 C1 17.49 1 34.98 1 53 C-6.59 53 -14.18 53 -22 53 C-22 50.69 -22 48.38 -22 46 C-21.67 46 -21.34 46 -21 46 C-21 47.65 -21 49.3 -21 51 C-11.1 50.505 -11.1 50.505 -1 50 C-0.67 33.5 -0.34 17 0 0 Z " fill="#E0DBDE" transform="translate(874,134)"/>
<path d="M0 0 C6.27 0 12.54 0 19 0 C19.66 2.64 20.32 5.28 21 8 C20.01 8.33 19.02 8.66 18 9 C18 8.34 18 7.68 18 7 C17.01 6.67 16.02 6.34 15 6 C15.33 5.01 15.66 4.02 16 3 C14.989375 3.515625 13.97875 4.03125 12.9375 4.5625 C9.0413371 6.26408951 6.15707428 5.93322076 2 5 C1.34 3.35 0.68 1.7 0 0 Z " fill="#070736" transform="translate(610,251)"/>
<path d="M0 0 C0.33 0 0.66 0 1 0 C1 13.53 1 27.06 1 41 C-6.59 41 -14.18 41 -22 41 C-22 40.67 -22 40.34 -22 40 C-14.97195301 39.14626761 -8.07721931 38.87890689 -1 39 C-1.01160156 37.94425781 -1.02320313 36.88851562 -1.03515625 35.80078125 C-1.12261579 23.83795592 -0.65959061 11.94330149 0 0 Z " fill="#E7E4E6" transform="translate(604,146)"/>
<path d="M0 0 C1.32 0 2.64 0 4 0 C4 7.59 4 15.18 4 23 C2.68 23 1.36 23 0 23 C0 15.41 0 7.82 0 0 Z " fill="#FCFCFC" transform="translate(828,237)"/>
<path d="M0 0 C0.66 0.99 1.32 1.98 2 3 C3.10338257 4.85353452 3.10338257 4.85353452 5 6 C8.43793339 5.81870185 8.43793339 5.81870185 12 5 C12.969375 4.814375 13.93875 4.62875 14.9375 4.4375 C15.618125 4.293125 16.29875 4.14875 17 4 C15.5435664 7.83968859 13.71785783 9.31006462 10 11 C5.99986746 11.59576442 4.29377658 11.15520272 0.6875 9.25 C-2 7 -2 7 -3.0625 4.9375 C-3 3 -3 3 -1.5625 1.25 C-1.046875 0.8375 -0.53125 0.425 0 0 Z " fill="#E1E0E5" transform="translate(472,250)"/>
<path d="M0 0 C2.04650391 3.06975587 2.99704565 5.69084152 4.125 9.1875 C4.47820312 10.27417969 4.83140625 11.36085937 5.1953125 12.48046875 C5.46085937 13.31191406 5.72640625 14.14335937 6 15 C2.37 15 -1.26 15 -5 15 C-1.85714286 4.28571429 -1.85714286 4.28571429 0 0 Z " fill="#070728" transform="translate(348,232)"/>
<path d="M0 0 C2.45685425 0.42359556 3.6964912 0.65510363 5.375 2.5625 C7.02455855 4.30323803 7.02455855 4.30323803 10.0625 4.3125 C13.12061828 4.29827312 13.12061828 4.29827312 15 2 C17.625 1.875 17.625 1.875 20 2 C18.5435664 5.83968859 16.71785783 7.31006462 13 9 C9.03678703 9.59026576 7.28480759 9.14509066 3.6875 7.3125 C1 5 1 5 0.125 2.25 C0.08375 1.5075 0.0425 0.765 0 0 Z " fill="#FAFBFB" transform="translate(394,252)"/>
<path d="M0 0 C1.98 0 3.96 0 6 0 C6 1.98 6 3.96 6 6 C6.928125 4.7934375 6.928125 4.7934375 7.875 3.5625 C10 1 10 1 12 0 C13.70702735 -0.06996014 15.41668003 -0.08440154 17.125 -0.0625 C18.03507813 -0.05347656 18.94515625 -0.04445312 19.8828125 -0.03515625 C20.93082031 -0.01775391 20.93082031 -0.01775391 22 0 C22 0.33 22 0.66 22 1 C21.40832031 1.01417969 20.81664062 1.02835938 20.20703125 1.04296875 C15.74434335 1.31233164 13.56924796 1.53748603 10 4.4375 C8.01298758 6.80921697 8.01298758 6.80921697 7 9 C6.01 9 5.02 9 4 9 C3.67 10.32 3.34 11.64 3 13 C2.34 12.67 1.68 12.34 1 12 C2.32 8.37 3.64 4.74 5 1 C3.68 1.33 2.36 1.66 1 2 C-0.00814174 3.69140267 -0.00814174 3.69140267 -0.484375 5.81640625 C-0.69707031 6.58017578 -0.90976562 7.34394531 -1.12890625 8.13085938 C-1.33386719 8.93330078 -1.53882813 9.73574219 -1.75 10.5625 C-2.08064453 11.77196289 -2.08064453 11.77196289 -2.41796875 13.00585938 C-2.9606936 14.99978327 -3.48235236 16.99941917 -4 19 C-6 16 -6 16 -5.78515625 14.203125 C-4.76498791 11.34056308 -3.62360728 8.54799665 -2.4375 5.75 C-1.98246094 4.67234375 -1.52742187 3.5946875 -1.05859375 2.484375 C-0.70925781 1.66453125 -0.35992188 0.8446875 0 0 Z " fill="#060616" transform="translate(914,235)"/>
<path d="M0 0 C1.32 0.33 2.64 0.66 4 1 C4.45375 2.134375 4.9075 3.26875 5.375 4.4375 C6.64695105 8.26192996 6.64695105 8.26192996 10.1875 9.4375 C11.5796875 9.7159375 11.5796875 9.7159375 13 10 C13 10.99 13 11.98 13 13 C10.125 13.125 10.125 13.125 7 13 C6.34 12.34 5.68 11.68 5 11 C4.67 11.66 4.34 12.32 4 13 C2.68 13 1.36 13 0 13 C0 8.71 0 4.42 0 0 Z " fill="#FAFAFA" transform="translate(947,247)"/>
<path d="M0 0 C0.99 0.33 1.98 0.66 3 1 C3.33 4.63 3.66 8.26 4 12 C5.98 12.66 7.96 13.32 10 14 C10 15.32 10 16.64 10 18 C3.375 18.25 3.375 18.25 0 16 C-0.22107787 13.2114711 -0.28107535 10.65346819 -0.1875 7.875 C-0.17396484 7.12089844 -0.16042969 6.36679688 -0.14648438 5.58984375 C-0.11109985 3.72625873 -0.05729167 1.86304022 0 0 Z " fill="#F3F3F5" transform="translate(840,242)"/>
<path d="M0 0 C0.87454834 0.00523682 1.74909668 0.01047363 2.65014648 0.01586914 C3.59438477 0.0190918 4.53862305 0.02231445 5.51147461 0.02563477 C6.50469727 0.03401367 7.49791992 0.04239258 8.52124023 0.05102539 C9.51833008 0.05553711 10.51541992 0.06004883 11.54272461 0.06469727 C14.01478872 0.07652532 16.48673541 0.0930069 18.95874023 0.11352539 C18.20874023 6.86352539 18.20874023 6.86352539 15.95874023 9.11352539 C15.95874023 7.13352539 15.95874023 5.15352539 15.95874023 3.11352539 C10.01874023 3.44352539 4.07874023 3.77352539 -2.04125977 4.11352539 C-2.37125977 3.12352539 -2.70125977 2.13352539 -3.04125977 1.11352539 C-2.04125977 0.11352539 -2.04125977 0.11352539 0 0 Z " fill="#D7D3D4" transform="translate(765.041259765625,160.886474609375)"/>
<path d="M0 0 C0.33 0 0.66 0 1 0 C1.35789474 5.36842105 1.35789474 5.36842105 -0.0625 7.875 C-3.06732099 9.61973477 -5.60810131 9.30835443 -9 9 C-9.66 8.34 -10.32 7.68 -11 7 C-12.31747324 6.30251417 -13.64914193 5.63040043 -15 5 C-14.34 5 -13.68 5 -13 5 C-13 4.01 -13 3.02 -13 2 C-12.22914063 2.02320313 -11.45828125 2.04640625 -10.6640625 2.0703125 C-9.15972656 2.09738281 -9.15972656 2.09738281 -7.625 2.125 C-6.62726563 2.14820313 -5.62953125 2.17140625 -4.6015625 2.1953125 C-1.83737827 2.27216848 -1.83737827 2.27216848 0 0 Z " fill="#080827" transform="translate(383,257)"/>
<path d="M0 0 C0.33 0.99 0.66 1.98 1 3 C2.65 2.67 4.3 2.34 6 2 C6 7.61 6 13.22 6 19 C5.67 19 5.34 19 5 19 C4.67 15.7 4.34 12.4 4 9 C3.01 9.33 2.02 9.66 1 10 C0.67 13.96 0.34 17.92 0 22 C-0.33 22 -0.66 22 -1 22 C-1.02887814 18.52085059 -1.04675687 15.04173169 -1.0625 11.5625 C-1.07087891 10.56927734 -1.07925781 9.57605469 -1.08789062 8.55273438 C-1.09111328 7.60849609 -1.09433594 6.66425781 -1.09765625 5.69140625 C-1.10289307 4.81685791 -1.10812988 3.94230957 -1.11352539 3.04125977 C-1 1 -1 1 0 0 Z " fill="#02011F" transform="translate(652,238)"/>
<path d="M0 0 C2 2 2 2 2 5 C8.27 5 14.54 5 21 5 C21.33 4.01 21.66 3.02 22 2 C22 3.98 22 5.96 22 8 C14.74 8 7.48 8 0 8 C0 5.36 0 2.72 0 0 Z " fill="#EBE7E2" transform="translate(545,179)"/>
<path d="M0 0 C2.11044382 3.16566573 2.75552077 5.51197415 3.625 9.1875 C3.88539063 10.27417969 4.14578125 11.36085937 4.4140625 12.48046875 C4.60742188 13.31191406 4.80078125 14.14335937 5 15 C4.01 15.495 4.01 15.495 3 16 C3 15.01 3 14.02 3 13 C2.34 13 1.68 13 1 13 C0.34 14.32 -0.32 15.64 -1 17 C-2.578125 15.38671875 -2.578125 15.38671875 -4 13 C-3.671875 10.01953125 -3.671875 10.01953125 -2.75 6.8125 C-2.45609375 5.74644531 -2.1621875 4.68039063 -1.859375 3.58203125 C-1 1 -1 1 0 0 Z " fill="#06062B" transform="translate(902,244)"/>
<path d="M0 0 C0.66 0 1.32 0 2 0 C1.67 1.98 1.34 3.96 1 6 C1.99 6.33 2.98 6.66 4 7 C4 12.28 4 17.56 4 23 C2.68 23 1.36 23 0 23 C0 15.41 0 7.82 0 0 Z " fill="#FBFAFB" transform="translate(419,237)"/>
<path d="M0 0 C4.48500198 0.41720949 8.70193944 1.71058183 13 3 C11.0625 5.625 11.0625 5.625 8 8 C4.82924134 7.84623411 1.99362473 7.02396314 -1 6 C-1.625 4.125 -1.625 4.125 -2 2 C-1.34 1.34 -0.68 0.68 0 0 Z " fill="#010122" transform="translate(812,239)"/>
<path d="M0 0 C1.23556641 0.01740234 1.23556641 0.01740234 2.49609375 0.03515625 C3.32238281 0.04417969 4.14867187 0.05320313 5 0.0625 C5.63808594 0.07410156 6.27617188 0.08570313 6.93359375 0.09765625 C6.55859375 3.03515625 6.55859375 3.03515625 5.93359375 6.09765625 C3.17109339 7.47890643 0.98628276 7.28844931 -2.06640625 7.09765625 C-2.72640625 6.43765625 -3.38640625 5.77765625 -4.06640625 5.09765625 C-3.31779097 0.15679541 -3.31779097 0.15679541 0 0 Z " fill="#040422" transform="translate(639.06640625,249.90234375)"/>
<path d="M0 0 C3.5625 0.375 3.5625 0.375 5.5 2.25 C6.5625 4.375 6.5625 4.375 6.5625 6.375 C2.2725 6.375 -2.0175 6.375 -6.4375 6.375 C-4.97955607 0.5432243 -4.97955607 0.5432243 0 0 Z " fill="#080713" transform="translate(863.4375,239.625)"/>
<path d="M0 0 C3.5625 0.4375 3.5625 0.4375 5.5 2.875 C6.5625 5.4375 6.5625 5.4375 6.5625 6.4375 C2.2725 6.4375 -2.0175 6.4375 -6.4375 6.4375 C-4.98679577 0.6346831 -4.98679577 0.6346831 0 0 Z " fill="#060625" transform="translate(781.4375,239.5625)"/>
<path d="M0 0 C3.625 0.25 3.625 0.25 5.5625 1.5625 C6.625 3.25 6.625 3.25 6.625 6.25 C2.335 6.25 -1.955 6.25 -6.375 6.25 C-3.99332061 0.29580153 -3.99332061 0.29580153 0 0 Z " fill="#03031D" transform="translate(403.375,239.75)"/>
<path d="M0 0 C3.5625 0.4375 3.5625 0.4375 5.5 2.875 C6.5625 5.4375 6.5625 5.4375 6.5625 6.4375 C2.2725 6.4375 -2.0175 6.4375 -6.4375 6.4375 C-4.98679577 0.6346831 -4.98679577 0.6346831 0 0 Z " fill="#050523" transform="translate(931.4375,239.5625)"/>
<path d="M0 0 C3.5625 0.4375 3.5625 0.4375 5.5 2.875 C6.5625 5.4375 6.5625 5.4375 6.5625 6.4375 C2.2725 6.4375 -2.0175 6.4375 -6.4375 6.4375 C-4.98679577 0.6346831 -4.98679577 0.6346831 0 0 Z " fill="#040421" transform="translate(616.4375,239.5625)"/>
<path d="M0 0 C3.625 0.25 3.625 0.25 5.5625 1.5625 C6.625 3.25 6.625 3.25 6.625 6.25 C2.335 6.25 -1.955 6.25 -6.375 6.25 C-3.99332061 0.29580153 -3.99332061 0.29580153 0 0 Z " fill="#060624" transform="translate(540.375,239.75)"/>
<path d="M0 0 C1.875 1.3125 1.875 1.3125 3 3 C3 3.99 3 4.98 3 6 C-0.96 6 -4.92 6 -9 6 C-8.67 4.35 -8.34 2.7 -8 1 C-5.20129973 -0.39935013 -3.09501208 -0.25265405 0 0 Z " fill="#040419" transform="translate(482,240)"/>
<path d="M0 0 C0.33 0.66 0.66 1.32 1 2 C1.99 2.66 2.98 3.32 4 4 C3.05125 4.2475 2.1025 4.495 1.125 4.75 C-2.44117911 5.77508516 -2.44117911 5.77508516 -4 10 C0.29 10 4.58 10 9 10 C9 10.33 9 10.66 9 11 C3.72 11 -1.56 11 -7 11 C-8 6 -8 6 -6.1875 3.25 C-3.02777778 0 -3.02777778 0 0 0 Z " fill="#D9D8DF" transform="translate(779,236)"/>
<path d="M0 0 C1.93166016 0.01740234 1.93166016 0.01740234 3.90234375 0.03515625 C5.19269531 0.04417969 6.48304688 0.05320313 7.8125 0.0625 C8.81152344 0.07410156 9.81054688 0.08570313 10.83984375 0.09765625 C10.370625 0.5565625 9.90140625 1.01546875 9.41796875 1.48828125 C7.80724506 3.04788312 7.80724506 3.04788312 6.58984375 4.84765625 C4.83984375 6.09765625 4.83984375 6.09765625 1.27734375 6.03515625 C-2.16015625 5.09765625 -2.16015625 5.09765625 -3.59765625 3.03515625 C-3.87609375 2.07609375 -3.87609375 2.07609375 -4.16015625 1.09765625 C-3.16015625 0.09765625 -3.16015625 0.09765625 0 0 Z " fill="#05042D" transform="translate(477.16015625,250.90234375)"/>
<path d="M0 0 C1.32 0.33 2.64 0.66 4 1 C4.33 6.28 4.66 11.56 5 17 C3.35 17 1.7 17 0 17 C0 11.39 0 5.78 0 0 Z " fill="#F7F7F8" transform="translate(435,243)"/>
<path d="M0 0 C0.33 0 0.66 0 1 0 C1.12375 1.11375 1.2475 2.2275 1.375 3.375 C1.6465813 7.03103677 1.6465813 7.03103677 4 9 C6.57061311 9.64767793 6.57061311 9.64767793 9 10 C8.01 10.33 7.02 10.66 6 11 C6 11.99 6 12.98 6 14 C0.57306338 13.51760563 0.57306338 13.51760563 -1.9375 11.25 C-3.31471333 8.33354824 -2.98619806 7.03445556 -2 4 C-0.9375 1.6875 -0.9375 1.6875 0 0 Z " fill="#E7E7EC" transform="translate(370,246)"/>
<path d="M0 0 C0.66 0.33 1.32 0.66 2 1 C2.6328125 3.94140625 2.6328125 3.94140625 3.125 7.5625 C3.29257813 8.76003906 3.46015625 9.95757812 3.6328125 11.19140625 C3.75398437 12.11824219 3.87515625 13.04507813 4 14 C3.01 14 2.02 14 1 14 C1 13.34 1 12.68 1 12 C0.01 12 -0.98 12 -2 12 C-2 13.65 -2 15.3 -2 17 C-2.66 16.67 -3.32 16.34 -4 16 C-3.52546129 13.51986371 -3.04561015 11.04096744 -2.5625 8.5625 C-2.42779297 7.85544922 -2.29308594 7.14839844 -2.15429688 6.41992188 C-1.11328125 1.11328125 -1.11328125 1.11328125 0 0 Z " fill="#ECE9E6" transform="translate(217,117)"/>
<path d="M0 0 C1.29065057 3.8719517 0.22324098 6.44232601 -0.9375 10.1875 C-1.13279297 10.84169922 -1.32808594 11.49589844 -1.52929688 12.16992188 C-2.01182563 13.78227407 -2.50490205 15.39146289 -3 17 C-3.66 17 -4.32 17 -5 17 C-6.29243536 12.8803623 -7.26252625 9.33168317 -7 5 C-5.02 4.67 -3.04 4.34 -1 4 C-0.67 2.68 -0.34 1.36 0 0 Z " fill="#060522" transform="translate(899,236)"/>
<path d="M0 0 C0.33 0 0.66 0 1 0 C1 5.94 1 11.88 1 18 C-0.65 18 -2.3 18 -4 18 C-4 13.05 -4 8.1 -4 3 C-3.01 2.67 -2.02 2.34 -1 2 C-0.67 1.34 -0.34 0.68 0 0 Z " fill="#E0E0E7" transform="translate(729,242)"/>
<path d="M0 0 C3.3 0 6.6 0 10 0 C10.66 1.32 11.32 2.64 12 4 C8.1496895 6.56687367 6.41430237 5.83288724 2 5 C1.34 3.35 0.68 1.7 0 0 Z " fill="#0A0A2F" transform="translate(775,251)"/>
<path d="M0 0 C0.33 0 0.66 0 1 0 C1 5.28 1 10.56 1 16 C0.01 16 -0.98 16 -2 16 C-2.33 15.34 -2.66 14.68 -3 14 C-3.66 14.66 -4.32 15.32 -5 16 C-8.125 16.125 -8.125 16.125 -11 16 C-8.82575883 13.49962266 -7.26954202 12.56371414 -4 12 C-4 11.34 -4 10.68 -4 10 C-2.68 9.67 -1.36 9.34 0 9 C0 6.03 0 3.06 0 0 Z " fill="#FAFAFA" transform="translate(649,244)"/>
<path d="M0 0 C1.65 0 3.3 0 5 0 C4.06601394 3.14158949 3.33205059 4.7325148 0.75 6.8125 C-2.37701471 8.16280181 -4.6282908 8.23523553 -8 8 C-8 7.01 -8 6.02 -8 5 C-6.865625 4.54625 -5.73125 4.0925 -4.5625 3.625 C-0.95278308 2.42904194 -0.95278308 2.42904194 0 0 Z " fill="#EDEDEF" transform="translate(581,253)"/>
<path d="M0 0 C1.32 0.33 2.64 0.66 4 1 C3.91304042 3.60578866 3.80618592 6.2081279 3.6875 8.8125 C3.66494141 9.55048828 3.64238281 10.28847656 3.61914062 11.04882812 C3.39631722 15.52555298 3.29680635 16.70319365 0 20 C0 13.4 0 6.8 0 0 Z " fill="#FDFCFC" transform="translate(673,237)"/>
<path d="M0 0 C2.36810318 0.94724127 3.75207953 1.65291134 5.25 3.75 C6.19251213 6.57753638 6.1345485 9.03993304 6 12 C4.02 12 2.04 12 0 12 C0.20625 11.4225 0.4125 10.845 0.625 10.25 C1.23128627 7.97242945 1.23128627 7.97242945 0 6 C-1 4 -1 4 -0.625 1.75 C-0.41875 1.1725 -0.2125 0.595 0 0 Z " fill="#EDEDF1" transform="translate(936,237)"/>
<path d="M0 0 C1.051875 0.5878125 1.051875 0.5878125 2.125 1.1875 C1.795 2.8375 1.465 4.4875 1.125 6.1875 C-1.185 6.1875 -3.495 6.1875 -5.875 6.1875 C-6.205 5.1975 -6.535 4.2075 -6.875 3.1875 C-7.535 2.8575 -8.195 2.5275 -8.875 2.1875 C-3.58269231 -1.0125 -3.58269231 -1.0125 0 0 Z " fill="#090929" transform="translate(816.875,250.8125)"/>
<path d="M0 0 C2.31 0 4.62 0 7 0 C7.33 1.32 7.66 2.64 8 4 C9.65 3.34 11.3 2.68 13 2 C12.360625 2.99 11.72125 3.98 11.0625 5 C8.74593674 9.00282486 8.32145895 12.41921002 8 17 C7.67 17 7.34 17 7 17 C7 13.7 7 10.4 7 7 C4.36 7.66 1.72 8.32 -1 9 C-0.67 8.01 -0.34 7.02 0 6 C1.98 6 3.96 6 6 6 C6 4.35 6 2.7 6 1 C4.02 1 2.04 1 0 1 C0 0.67 0 0.34 0 0 Z " fill="#020213" transform="translate(597,235)"/>
<path d="M0 0 C0.33 0 0.66 0 1 0 C1.144375 0.763125 1.28875 1.52625 1.4375 2.3125 C1.9632594 5.08172908 1.9632594 5.08172908 3 8 C-0.25753924 9.93709638 -2.65609928 10.23715445 -6.421875 10.1953125 C-7.95908203 10.18564453 -7.95908203 10.18564453 -9.52734375 10.17578125 C-10.59082031 10.15902344 -11.65429688 10.14226562 -12.75 10.125 C-14.36841797 10.11146484 -14.36841797 10.11146484 -16.01953125 10.09765625 C-18.67991278 10.07411305 -21.33984336 10.04122799 -24 10 C-24 9.67 -24 9.34 -24 9 C-15.97667603 8.09958689 -8.07029553 7.88452677 0 8 C0 5.36 0 2.72 0 0 Z " fill="#DDDADD" transform="translate(543,128)"/>
<path d="M0 0 C0.33 0 0.66 0 1 0 C1 3.3 1 6.6 1 10 C0.01 10.495 0.01 10.495 -1 11 C-1 10.34 -1 9.68 -1 9 C-3.64 9.66 -6.28 10.32 -9 11 C-7.68 9.68 -6.36 8.36 -5 7 C-8.63 6.67 -12.26 6.34 -16 6 C-16.33 6.66 -16.66 7.32 -17 8 C-17.33 7.01 -17.66 6.02 -18 5 C-12.06 5 -6.12 5 0 5 C0 3.35 0 1.7 0 0 Z " fill="#010111" transform="translate(415,245)"/>
<path d="M0 0 C5.94 0 11.88 0 18 0 C18 0.33 18 0.66 18 1 C12.72 1 7.44 1 2 1 C2 1.66 2 2.32 2 3 C3.32 3 4.64 3 6 3 C6 3.99 6 4.98 6 6 C7.32 6.33 8.64 6.66 10 7 C10 7.33 10 7.66 10 8 C6.6875 7.8125 6.6875 7.8125 3 7 C1.07828158 4.58235424 0 3.11532786 0 0 Z " fill="#373650" transform="translate(534,249)"/>
<path d="M0 0 C0.33 0 0.66 0 1 0 C1 2.97 1 5.94 1 9 C0.67 8.34 0.34 7.68 0 7 C-3.96 7 -7.92 7 -12 7 C-12 6.01 -12 5.02 -12 4 C-8.04 4 -4.08 4 0 4 C0 2.68 0 1.36 0 0 Z " fill="#F6F6F6" transform="translate(647,243)"/>
<path d="M0 0 C0.66 0.33 1.32 0.66 2 1 C2 1.66 2 2.32 2 3 C3.65 3 5.3 3 7 3 C7.33 4.32 7.66 5.64 8 7 C1.9453125 7.1953125 1.9453125 7.1953125 0 7 C-0.66 6.34 -1.32 5.68 -2 5 C-1.46428571 1.46428571 -1.46428571 1.46428571 0 0 Z " fill="#E8E8ED" transform="translate(661,253)"/>
<path d="M0 0 C1.32 0 2.64 0 4 0 C2.84826645 2.46800047 1.95216435 4.04783565 0 6 C-2.68839385 6.26991906 -5.29141936 6.08737357 -8 6 C-8 5.01 -8 4.02 -8 3 C-6.865625 2.690625 -5.73125 2.38125 -4.5625 2.0625 C-1.21224901 1.37075469 -1.21224901 1.37075469 0 0 Z " fill="#F9F9F9" transform="translate(485,254)"/>
<path d="M0 0 C0.66 0.33 1.32 0.66 2 1 C1.814375 1.680625 1.62875 2.36125 1.4375 3.0625 C0.91476057 6.57232191 1.38621423 9.52188063 2 13 C4.97 13.495 4.97 13.495 8 14 C7.67 14.66 7.34 15.32 7 16 C1.62686567 15.52238806 1.62686567 15.52238806 -0.875 13.4375 C-2.57064713 9.76359789 -2.32072406 7.04112321 -2 3 C-1.34 2.01 -0.68 1.02 0 0 Z " fill="#0D0D22" transform="translate(750,241)"/>
<path d="M0 0 C0.33 0.99 0.66 1.98 1 3 C0.67 3.66 0.34 4.32 0 5 C-2.31 5 -4.62 5 -7 5 C-7.33 3.35 -7.66 1.7 -8 0 C-5.13822943 -1.43088528 -3.06624227 -0.59991697 0 0 Z " fill="#0C0C32" transform="translate(645,240)"/>
<path d="M0 0 C2.67576692 1.00617682 3.7785108 1.54214546 5.046875 4.1640625 C5.27890625 4.97617188 5.5109375 5.78828125 5.75 6.625 C5.99234375 7.44226563 6.2346875 8.25953125 6.484375 9.1015625 C6.73960937 10.04128906 6.73960937 10.04128906 7 11 C7.33 11 7.66 11 8 11 C8 14.96 8 18.92 8 23 C7.67 23 7.34 23 7 23 C6.87625 22.236875 6.7525 21.47375 6.625 20.6875 C6.11897208 17.79732864 6.11897208 17.79732864 4 15 C4.06510417 13.046875 4.13020833 11.09375 4.1953125 9.140625 C3.85997289 5.46530289 2.02128857 3.03193286 0 0 Z " fill="#01021C" transform="translate(700,237)"/>
<path d="M0 0 C0.33 0 0.66 0 1 0 C1 6.6 1 13.2 1 20 C-3.29 20 -7.58 20 -12 20 C-12 19.67 -12 19.34 -12 19 C-6.555 18.01 -6.555 18.01 -1 17 C-0.67 11.39 -0.34 5.78 0 0 Z " fill="#D7D5DC" transform="translate(633,102)"/>
<path d="M0 0 C1 2 1 2 0.875 5.25 C1.01126796 9.33803879 2.0329767 11.47574993 4 15 C4 15.66 4 16.32 4 17 C4.66 17.33 5.32 17.66 6 18 C5.01 18 4.02 18 3 18 C2.67 17.34 2.34 16.68 2 16 C1.01 16.66 0.02 17.32 -1 18 C-1.02684312 15.18743719 -1.04676188 12.37512759 -1.0625 9.5625 C-1.07087891 8.76005859 -1.07925781 7.95761719 -1.08789062 7.13085938 C-1.0965143 5.08704779 -1.0522815 3.04316098 -1 1 C-0.67 0.67 -0.34 0.34 0 0 Z " fill="#08082B" transform="translate(769,241)"/>
<path d="M0 0 C2.97 0.495 2.97 0.495 6 1 C4.68 1.33 3.36 1.66 2 2 C2 6.29 2 10.58 2 15 C3.65 15 5.3 15 7 15 C7 15.33 7 15.66 7 16 C5.02 16 3.04 16 1 16 C-0.50156874 12.99686252 -0.09281204 10.20932478 -0.0625 6.875 C-0.05347656 5.59367188 -0.04445313 4.31234375 -0.03515625 2.9921875 C-0.02355469 2.00476563 -0.01195312 1.01734375 0 0 Z " fill="#272737" transform="translate(662,240)"/>
<path d="M0 0 C0.99 0 1.98 0 3 0 C3.49230769 7.38461538 3.49230769 7.38461538 1 10.5 C0.34 10.995 -0.32 11.49 -1 12 C-1.99 11.67 -2.98 11.34 -4 11 C-2.68 9.68 -1.36 8.36 0 7 C-0.33 6.34 -0.66 5.68 -1 5 C-0.72057545 3.32345271 -0.39171753 1.65391846 0 0 Z " fill="#FBFAFA" transform="translate(385,257)"/>
<path d="M0 0 C1.11375 0.1546875 1.11375 0.1546875 2.25 0.3125 C0.7935664 4.15218859 -1.03214217 5.62256462 -4.75 7.3125 C-8.0625 7.5 -8.0625 7.5 -10.75 7.3125 C-9.88375 6.9721875 -9.88375 6.9721875 -9 6.625 C-6.5381208 5.38780897 -6.5381208 5.38780897 -4.8125 2.6875 C-2.75 0.3125 -2.75 0.3125 0 0 Z " fill="#E4E4E9" transform="translate(411.75,253.6875)"/>
<path d="M0 0 C0.66 0.33 1.32 0.66 2 1 C-1.34704884 5.23303235 -4.59973766 8.84329006 -9 12 C-9.99 11.67 -10.98 11.34 -12 11 C-8.04 7.37 -4.08 3.74 0 0 Z " fill="#EFECE9" transform="translate(120,67)"/>
<path d="M0 0 C0.33 0 0.66 0 1 0 C1.33 1.65 1.66 3.3 2 5 C2.33 5 2.66 5 3 5 C3.22174933 6.45635371 3.42698698 7.91522956 3.625 9.375 C3.74101562 10.18710938 3.85703125 10.99921875 3.9765625 11.8359375 C3.98429687 12.55007812 3.99203125 13.26421875 4 14 C3.34 14.66 2.68 15.32 2 16 C1.34 15.67 0.68 15.34 0 15 C0 10.05 0 5.1 0 0 Z " fill="#100F3A" transform="translate(441,241)"/>
<path d="M0 0 C5.28 0 10.56 0 16 0 C16 0.33 16 0.66 16 1 C11.545 1.495 11.545 1.495 7 2 C7 2.66 7 3.32 7 4 C4.625 3.6875 4.625 3.6875 2 3 C1.34 2.01 0.68 1.02 0 0 Z " fill="#010239" transform="translate(926,251)"/>
<path d="M0 0 C2.9375 0.1875 2.9375 0.1875 6 1 C7.375 3.0625 7.375 3.0625 8 5 C7.01 6.485 7.01 6.485 6 8 C5.34 8 4.68 8 4 8 C3.731875 7.401875 3.46375 6.80375 3.1875 6.1875 C2.01506533 4.02775192 0.80630718 2.64209744 -1 1 C-0.67 0.67 -0.34 0.34 0 0 Z " fill="#F3F3F5" transform="translate(618,237)"/>
<path d="M0 0 C0.33 0 0.66 0 1 0 C0.67 3.63 0.34 7.26 0 11 C-0.99 10.67 -1.98 10.34 -3 10 C-3.33 7.36 -3.66 4.72 -4 2 C-3.34 1.67 -2.68 1.34 -2 1 C-1.34 1.33 -0.68 1.66 0 2 C0 1.34 0 0.68 0 0 Z " fill="#ECEAE9" transform="translate(219,196)"/>
<path d="M0 0 C0.33 0.66 0.66 1.32 1 2 C1.99 1.67 2.98 1.34 4 1 C3.67 4.96 3.34 8.92 3 13 C2.67 13 2.34 13 2 13 C1.67 10.69 1.34 8.38 1 6 C-0.11375 5.9175 -1.2275 5.835 -2.375 5.75 C-6 5 -6 5 -7.4375 2.9375 C-7.7159375 1.9784375 -7.7159375 1.9784375 -8 1 C-7.01 1.33 -6.02 1.66 -5 2 C-5 2.66 -5 3.32 -5 4 C-3.35 4 -1.7 4 0 4 C0 2.68 0 1.36 0 0 Z " fill="#020311" transform="translate(465,240)"/>
<path d="M0 0 C2.92879371 0.62759865 5.36095629 1.58622659 8 3 C7.01 3.495 7.01 3.495 6 4 C6.66 4.66 7.32 5.32 8 6 C4.625 5.6875 4.625 5.6875 1 5 C0.34 4.01 -0.32 3.02 -1 2 C-0.67 1.34 -0.34 0.68 0 0 Z " fill="#E4E3E8" transform="translate(633,255)"/>
<path d="M0 0 C2.31 0 4.62 0 7 0 C6.67 0.99 6.34 1.98 6 3 C6.99 3.33 7.98 3.66 9 4 C8 5 8 5 5.625 5.25 C3 5 3 5 1.1875 3.625 C0 2 0 2 0 0 Z " fill="#050524" transform="translate(858,252)"/>
<path d="M0 0 C1.65 0 3.3 0 5 0 C5.66 1.32 6.32 2.64 7 4 C4.03 4 1.06 4 -2 4 C-1.34 2.68 -0.68 1.36 0 0 Z " fill="#010236" transform="translate(861,241)"/>
<path d="M0 0 C-0.6875 2.4375 -0.6875 2.4375 -2 5 C-4.625 5.8125 -4.625 5.8125 -7 6 C-7 4.68 -7 3.36 -7 2 C-4 0 -4 0 0 0 Z " fill="#F0F0F3" transform="translate(791,254)"/>
<path d="M0 0 C0.86625 0.4640625 0.86625 0.4640625 1.75 0.9375 C3.84294184 1.92583364 5.74535275 2.5168613 8 3 C8 2.34 8 1.68 8 1 C9.32 1.33 10.64 1.66 12 2 C10.9375 3.5625 10.9375 3.5625 9 5 C5.4375 4.9375 5.4375 4.9375 2 4 C0.5625 1.9375 0.5625 1.9375 0 0 Z " fill="#111028" transform="translate(925,252)"/>
<path d="M0 0 C4.62 0 9.24 0 14 0 C12.33333333 1.66666667 10.66666667 3.33333333 9 5 C9 3.68 9 2.36 9 1 C6.69 1.33 4.38 1.66 2 2 C2 2.99 2 3.98 2 5 C1.01 4.01 0.02 3.02 -1 2 C-0.67 1.34 -0.34 0.68 0 0 Z " fill="#0D0D3A" transform="translate(474,251)"/>
<path d="M0 0 C4.95 0 9.9 0 15 0 C15 0.33 15 0.66 15 1 C12.69 1 10.38 1 8 1 C8 1.99 8 2.98 8 4 C6.68 4 5.36 4 4 4 C4 3.01 4 2.02 4 1 C2.68 0.67 1.36 0.34 0 0 Z " fill="#02033E" transform="translate(536,251)"/>
<path d="M0 0 C1.3921875 0.3403125 1.3921875 0.3403125 2.8125 0.6875 C0.22947495 3.98803201 -2.17991477 4.07765007 -6.1875 4.6875 C-6.5175 5.3475 -6.8475 6.0075 -7.1875 6.6875 C-6.79412881 4.40594707 -6.27463789 2.82049993 -5 0.875 C-3.1875 -0.3125 -3.1875 -0.3125 0 0 Z " fill="#00001F" transform="translate(811.1875,249.3125)"/>
<path d="M0 0 C0 0.66 0 1.32 0 2 C-4.455 2.495 -4.455 2.495 -9 3 C-9 2.01 -9 1.02 -9 0 C-5.62182575 -0.84454356 -3.32534757 -1.10844919 0 0 Z " fill="#E1DEDE" transform="translate(182,161)"/>
<path d="M0 0 C3.66060821 0.58536753 5.54535164 2.083239 8.25 4.5625 C8.95640625 5.20316406 9.6628125 5.84382813 10.390625 6.50390625 C10.92171875 6.99761719 11.4528125 7.49132812 12 8 C11.34 8.66 10.68 9.32 10 10 C6.66666667 6.66666667 3.33333333 3.33333333 0 0 Z " fill="#DEDBDD" transform="translate(240,100)"/>
<path d="M0 0 C0.33 0 0.66 0 1 0 C1 4.29 1 8.58 1 13 C1.66 13 2.32 13 3 13 C3.33 12.34 3.66 11.68 4 11 C4.33 11.99 4.66 12.98 5 14 C3.35 14.66 1.7 15.32 0 16 C0 10.72 0 5.44 0 0 Z " fill="#0E0E40" transform="translate(390,242)"/>
<path d="M0 0 C1.32 0.33 2.64 0.66 4 1 C4.98120464 4.05263664 4.98120464 5.94736336 4 9 C3.34 9 2.68 9 2 9 C1.34 6.03 0.68 3.06 0 0 Z " fill="#10102A" transform="translate(892,244)"/>
<path d="M0 0 C1.65 0 3.3 0 5 0 C5 1.65 5 3.3 5 5 C3.35 5 1.7 5 0 5 C0 3.35 0 1.7 0 0 Z " fill="#DEDDE3" transform="translate(827,227)"/>
<path d="M0 0 C1.65 0 3.3 0 5 0 C5 1.65 5 3.3 5 5 C3.35 5 1.7 5 0 5 C0 3.35 0 1.7 0 0 Z " fill="#E3E3E9" transform="translate(672,227)"/>
<path d="M0 0 C1.32 0 2.64 0 4 0 C3.25 2.9375 3.25 2.9375 2 6 C-0.125 6.875 -0.125 6.875 -2 7 C-1.34 4.69 -0.68 2.38 0 0 Z " fill="#E6E6EC" transform="translate(616,225)"/>
<path d="M0 0 C3.96 0.99 3.96 0.99 8 2 C6.02 2.99 6.02 2.99 4 4 C4.33 4.66 4.66 5.32 5 6 C2.69 5.34 0.38 4.68 -2 4 C-1.34 3.67 -0.68 3.34 0 3 C0 2.01 0 1.02 0 0 Z " fill="#020316" transform="translate(370,259)"/>
<path d="M0 0 C0.33 1.32 0.66 2.64 1 4 C3.31 4 5.62 4 8 4 C8.33 3.34 8.66 2.68 9 2 C9 2.99 9 3.98 9 5 C5.37 5 1.74 5 -2 5 C-2 4.34 -2 3.68 -2 3 C-2.66 2.67 -3.32 2.34 -4 2 C-2.68 1.34 -1.36 0.68 0 0 Z " fill="#010111" transform="translate(637,241)"/>
<path d="M0 0 C0.99 0 1.98 0 3 0 C2.01 3.3 1.02 6.6 0 10 C-2 7 -2 7 -1.6875 4.4375 C-1 2 -1 2 0 0 Z " fill="#090929" transform="translate(339,236)"/>
<path d="M0 0 C1.32 0 2.64 0 4 0 C3.67 1.65 3.34 3.3 3 5 C1.02 5 -0.96 5 -3 5 C-3 4.01 -3 3.02 -3 2 C-2.01 2 -1.02 2 0 2 C0 1.34 0 0.68 0 0 Z " fill="#0B0B36" transform="translate(404,252)"/>
<path d="M0 0 C0.25 7.625 0.25 7.625 -2 11 C-2 8.03 -2 5.06 -2 2 C-3.32 1.67 -4.64 1.34 -6 1 C-3.92446352 0.4465236 -2.15634036 0 0 0 Z " fill="#2C2A37" transform="translate(544,148)"/>
<path d="M0 0 C0.66 0 1.32 0 2 0 C2.66 0.99 3.32 1.98 4 3 C7.06556598 3.73343428 7.06556598 3.73343428 10 4 C9.67 4.66 9.34 5.32 9 6 C6.69 5.67 4.38 5.34 2 5 C1.34 3.35 0.68 1.7 0 0 Z " fill="#141327" transform="translate(610,251)"/>
<path d="M0 0 C0.66 0 1.32 0 2 0 C1.01 3.96 0.02 7.92 -1 12 C-3 9 -3 9 -2.75 7.125 C-1.90092985 4.71930124 -0.98118661 2.35484786 0 0 Z " fill="#101023" transform="translate(911,242)"/>
<path d="M0 0 C1.65 0 3.3 0 5 0 C5 1.65 5 3.3 5 5 C3.68 4.67 2.36 4.34 1 4 C0.67 2.68 0.34 1.36 0 0 Z " fill="#DEDEE6" transform="translate(598,236)"/>
<path d="M0 0 C1.13199353 0.9080162 2.25532363 1.82683826 3.375 2.75 C4.00148438 3.26046875 4.62796875 3.7709375 5.2734375 4.296875 C7.08312318 6.08199481 8.00117455 7.67949644 9 10 C7.8944811 9.06409496 6.79064547 8.12620142 5.6875 7.1875 C5.07261719 6.66542969 4.45773437 6.14335937 3.82421875 5.60546875 C2.14575321 4.12827531 0.56117966 2.59960869 -1 1 C-0.67 0.67 -0.34 0.34 0 0 Z " fill="#F1EFF0" transform="translate(255,210)"/>
<path d="M0 0 C2.74501997 3.61186839 5.37012014 7.30395263 8 11 C7.01 11 6.02 11 5 11 C3.61328125 9.609375 3.61328125 9.609375 2.3125 7.75 C1.87550781 7.14671875 1.43851562 6.5434375 0.98828125 5.921875 C0 4 0 4 0 0 Z " fill="#1B192B" transform="translate(488,172)"/>
<path d="M0 0 C2.31 0 4.62 0 7 0 C7.33 0.66 7.66 1.32 8 2 C5.03 2.66 2.06 3.32 -1 4 C-0.67 2.68 -0.34 1.36 0 0 Z " fill="#01011C" transform="translate(544,252)"/>
<path d="M0 0 C0.66 0.33 1.32 0.66 2 1 C2 2.32 2 3.64 2 5 C0.02 5 -1.96 5 -4 5 C-1.125 1.125 -1.125 1.125 0 0 Z " fill="#FDFCFC" transform="translate(940,244)"/>
<path d="M0 0 C2.9375 0.375 2.9375 0.375 6 1 C6.33 1.66 6.66 2.32 7 3 C5.35 3 3.7 3 2 3 C2 3.66 2 4.32 2 5 C1.01 4.67 0.02 4.34 -1 4 C-0.67 2.68 -0.34 1.36 0 0 Z " fill="#0E0E30" transform="translate(812,239)"/>
<path d="M0 0 C1.32 0 2.64 0 4 0 C3.67 0.99 3.34 1.98 3 3 C2.67 3 2.34 3 2 3 C1.67 5.64 1.34 8.28 1 11 C0.67 11 0.34 11 0 11 C0 7.37 0 3.74 0 0 Z " fill="#EEEDF1" transform="translate(521,226)"/>
<path d="M0 0 C2.97 0.495 2.97 0.495 6 1 C4.35 2.65 2.7 4.3 1 6 C0.67 4.02 0.34 2.04 0 0 Z " fill="#101032" transform="translate(606,104)"/>
<path d="M0 0 C1.47033252 2.94066505 1 5.74474326 1 9 C1.33 9.99 1.66 10.98 2 12 C1.01 12 0.02 12 -1 12 C-1.02687279 10.18757948 -1.04633715 8.37504767 -1.0625 6.5625 C-1.07410156 5.55316406 -1.08570313 4.54382813 -1.09765625 3.50390625 C-1 1 -1 1 0 0 Z " fill="#0C0C38" transform="translate(769,241)"/>
<path d="M0 0 C0.66 0.33 1.32 0.66 2 1 C1.34 2.98 0.68 4.96 0 7 C-0.66 7 -1.32 7 -2 7 C-2.125 4.625 -2.125 4.625 -2 2 C-1.34 1.34 -0.68 0.68 0 0 Z " fill="#FCFCFC" transform="translate(808,239)"/>
<path d="M0 0 C1.32 0 2.64 0 4 0 C3.34 3.96 2.68 7.92 2 12 C1.67 12 1.34 12 1 12 C0.67 8.04 0.34 4.08 0 0 Z " fill="#EEEDF1" transform="translate(762,226)"/>
<path d="M0 0 C3.63 0 7.26 0 11 0 C8 2 8 2 6 2 C6 2.66 6 3.32 6 4 C5.34 4 4.68 4 4 4 C4 3.01 4 2.02 4 1 C2.68 0.67 1.36 0.34 0 0 Z " fill="#131321" transform="translate(419,235)"/>
<path d="M0 0 C0.99 0.66 1.98 1.32 3 2 C-2.75 5.875 -2.75 5.875 -5 7 C-5 5.68 -5 4.36 -5 3 C-2.5 1.25 -2.5 1.25 0 0 Z " fill="#0F0F31" transform="translate(423,180)"/>
<path d="M0 0 C2.64 0.66 5.28 1.32 8 2 C8 2.66 8 3.32 8 4 C5.69 3.67 3.38 3.34 1 3 C0.67 2.01 0.34 1.02 0 0 Z " fill="#262636" transform="translate(509,253)"/>
<path d="M0 0 C1.9451 2.91765 2.45276317 4.62537285 3 8 C2.34 8 1.68 8 1 8 C-1 6 -1 6 -1.1875 3.4375 C-1 1 -1 1 0 0 Z " fill="#141527" transform="translate(902,244)"/>
<path d="M0 0 C0.99 0.33 1.98 0.66 3 1 C3.33 1.99 3.66 2.98 4 4 C1.69 4 -0.62 4 -3 4 C-2.01 2.68 -1.02 1.36 0 0 Z " fill="#010132" transform="translate(480,241)"/>
<path d="M0 0 C1 2 1 2 0.0625 5.125 C-0.288125 6.07375 -0.63875 7.0225 -1 8 C-1.99 8 -2.98 8 -4 8 C-3.67 6.35 -3.34 4.7 -3 3 C-2.34 3 -1.68 3 -1 3 C-0.67 2.01 -0.34 1.02 0 0 Z " fill="#060639" transform="translate(911,240)"/>
<path d="M0 0 C2.0625 0.4375 2.0625 0.4375 4 1 C4 1.66 4 2.32 4 3 C4.66 3.33 5.32 3.66 6 4 C3.69 4 1.38 4 -1 4 C-1 1 -1 1 0 0 Z " fill="#0A092F" transform="translate(400,240)"/>
<path d="M0 0 C2.12508244 3.18762365 2.5020163 5.26512223 3 9 C2.54625 8.525625 2.0925 8.05125 1.625 7.5625 C0.06741796 5.90972192 0.06741796 5.90972192 -2 5 C-1.34 3.35 -0.68 1.7 0 0 Z " fill="#0C0C1C" transform="translate(348,232)"/>
<path d="M0 0 C1.52299523 2.93720508 2.80100302 5.9168649 4 9 C3.01 8.67 2.02 8.34 1 8 C1 7.34 1 6.68 1 6 C0.34 6 -0.32 6 -1 6 C-0.67 4.02 -0.34 2.04 0 0 Z " fill="#15142F" transform="translate(655,169)"/>
<path d="M0 0 C2.64 0.33 5.28 0.66 8 1 C4.5980513 3.09350689 1.94727588 3.17942163 -2 3 C-1.34 2.01 -0.68 1.02 0 0 Z " fill="#F9F9F8" transform="translate(256,161)"/>
<path d="M0 0 C0.66 0.33 1.32 0.66 2 1 C2 2.32 2 3.64 2 5 C2.99 5.66 3.98 6.32 5 7 C3.02 7 1.04 7 -1 7 C-0.67 4.69 -0.34 2.38 0 0 Z " fill="#C4C0CA" transform="translate(491,122)"/>
</svg>
