<?xml version="1.0" encoding="UTF-8"?>
<svg version="1.1" xmlns="http://www.w3.org/2000/svg" width="1024" height="1024">
<path d="M0 0 C1.26679234 1.00441899 2.5351137 2.00691155 3.8046875 3.0078125 C10.90194505 8.63676061 17.80511629 14.45933176 24.5 20.5625 C25.15339355 21.14612305 25.80678711 21.72974609 26.47998047 22.33105469 C27.07439941 22.8830957 27.66881836 23.43513672 28.28125 24.00390625 C29.07112305 24.72815796 29.07112305 24.72815796 29.87695312 25.46704102 C31 27 31 27 31 31 C29.91237068 32.58540726 29.91237068 32.58540726 28.35598755 34.13848877 C27.76988708 34.73297821 27.18378662 35.32746765 26.57992554 35.93997192 C25.92851593 36.58014252 25.27710632 37.22031311 24.60595703 37.87988281 C23.92641968 38.56321686 23.24688232 39.2465509 22.54675293 39.95059204 C20.2934354 42.21133151 18.02601644 44.45732895 15.7578125 46.703125 C14.19245806 48.2660962 12.62784113 49.82980637 11.06393433 51.39422607 C7.78298081 54.67204888 4.4954074 57.94303362 1.20263672 61.20898438 C-3.02697013 65.40458331 -7.24326322 69.61325636 -11.45513725 73.82664871 C-14.6852091 77.05617788 -17.92045829 80.28047687 -21.15750504 83.50301361 C-22.71450332 85.05362895 -24.27027685 86.60547505 -25.82482529 88.15854645 C-27.99395066 90.32335635 -30.16952016 92.48146309 -32.34716797 94.63769531 C-32.99452911 95.28596283 -33.64189026 95.93423035 -34.30886841 96.60214233 C-38.77104866 101 -38.77104866 101 -41 101 C-41.226875 101.5775 -41.45375 102.155 -41.6875 102.75 C-43.3408693 105.58434736 -45.42963944 106.96762189 -48 109 C-48.91786881 110.06472782 -49.81375654 111.14877303 -50.6875 112.25 C-51.8321875 113.61125 -51.8321875 113.61125 -53 115 C-55 115 -55 115 -57.296875 112.84375 C-59.03808265 111.01195929 -60.77778519 109.17873613 -62.515625 107.34375 C-94.42420901 74.15882263 -138.84719968 56.58176537 -184.5234375 55.03515625 C-226.53302463 54.31085302 -269.2918431 68.07715796 -301 96 C-301.86238281 96.7528125 -302.72476563 97.505625 -303.61328125 98.28125 C-306.10584105 100.49013456 -308.56067093 102.73256996 -311 105 C-311.99773437 105.91652344 -311.99773437 105.91652344 -313.015625 106.8515625 C-338.46343837 131.16146551 -356.46384425 166.66474469 -363 201 C-363.17587646 201.91426758 -363.35175293 202.82853516 -363.53295898 203.77050781 C-365.09328575 212.73700986 -365.36066534 221.55658635 -365.3125 230.625 C-365.31001251 231.37489197 -365.30752502 232.12478394 -365.30496216 232.8973999 C-365.2455755 244.48998332 -364.8093812 255.70907372 -362 267 C-361.76893555 267.92925293 -361.53787109 268.85850586 -361.29980469 269.81591797 C-357.96291297 282.81300628 -353.72976281 295.1413471 -347.86523438 307.21240234 C-347.13054491 308.73029068 -346.42879604 310.26405322 -345.734375 311.80078125 C-339.7867619 324.59652632 -330.77100024 336.03243623 -322 347 C-321.43410156 347.71027344 -320.86820313 348.42054688 -320.28515625 349.15234375 C-317.27891437 352.79651494 -314.02848558 355.80866399 -310.3203125 358.73828125 C-309.88460937 359.15464844 -309.44890625 359.57101562 -309 360 C-309 360.66 -309 361.32 -309 362 C-308.42894531 362.2475 -307.85789062 362.495 -307.26953125 362.75 C-304.64476031 364.19565697 -302.84143774 365.91674416 -300.6875 368 C-294.8153071 373.38645759 -288.40777326 377.65575422 -281.70117188 381.91455078 C-280.28358953 382.81905295 -278.88185093 383.74832647 -277.484375 384.68359375 C-253.99300553 399.83799119 -224.57084288 406.05538868 -197 407 C-196.02289063 407.04125 -195.04578125 407.0825 -194.0390625 407.125 C-149.42041234 408.12485771 -108.57439756 390.31641686 -75 362 C-74.34386719 361.46761719 -73.68773437 360.93523437 -73.01171875 360.38671875 C-69.27835051 357.31558878 -66.16787234 353.98344796 -63.04296875 350.30078125 C-58.91878945 345.65615102 -54.42641024 341.35437102 -50 337 C-48.34457111 338.41401218 -46.68998283 339.8290175 -45.0390625 341.24829102 C-43.76656626 342.34146158 -42.49102756 343.43111244 -41.2109375 344.51538086 C-34.58970056 350.19361983 -28.53908577 356.40729172 -22.421875 362.6171875 C-21.58140625 363.46539062 -20.7409375 364.31359375 -19.875 365.1875 C-18.75738281 366.32251953 -18.75738281 366.32251953 -17.6171875 367.48046875 C-15.55607094 369.46467798 -13.47180882 371.33461503 -11.3046875 373.19750977 C-6.39573188 377.46068213 -1.83176268 382.04294012 2.75 386.65234375 C4.09807739 388.00254356 4.09807739 388.00254356 5.47338867 389.38002014 C7.83586575 391.74711263 10.19615112 394.11634639 12.55535889 396.48669434 C14.97385181 398.91550742 17.39525946 401.34141103 19.81640625 403.76757812 C24.54692954 408.50907369 29.27457973 413.25341898 34 418 C32.34516081 421.4951345 30.38669279 423.96505115 27.75 426.8125 C25.07518074 429.72195253 22.44561521 432.63354153 19.9375 435.6875 C17.24140352 438.86636857 14.22172826 441.5077548 11.046875 444.19921875 C9.04129492 445.96366993 7.21732187 447.81713667 5.375 449.75 C0.28857674 454.89591359 -5.40231516 459.22671752 -11.15429688 463.59423828 C-12.89975578 464.92364997 -14.62982874 466.27109246 -16.359375 467.62109375 C-38.93501115 484.97325847 -64.970375 499.00034259 -92 508 C-92.79680176 508.27263672 -93.59360352 508.54527344 -94.41455078 508.82617188 C-167.48171603 533.57228328 -254.68658613 529.72677506 -324.26025391 496.05078125 C-347.87083499 484.32370981 -368.64588269 469.81474775 -388.38916016 452.41113281 C-390.40518519 450.64504844 -392.45507124 448.91995416 -394.5 447.1875 C-397.63712935 444.43327509 -400.34983141 441.45118701 -403.04296875 438.265625 C-405.32699715 435.62144043 -407.72652547 433.10328634 -410.125 430.5625 C-416.99323425 423.15740533 -423.03742526 415.14131562 -429 407 C-429.46905762 406.3611084 -429.93811523 405.7222168 -430.42138672 405.06396484 C-455.61834346 370.41247843 -472.37577334 331.6112043 -482 290 C-482.20995605 289.09894531 -482.41991211 288.19789063 -482.63623047 287.26953125 C-492.24362245 244.91593148 -490.60400633 201.95058228 -480 160 C-479.78537109 159.11006348 -479.57074219 158.22012695 -479.34960938 157.30322266 C-470.97882063 122.8301887 -454.44449981 89.77806735 -434 61 C-433.57235352 60.39381836 -433.14470703 59.78763672 -432.70410156 59.16308594 C-423.54672038 46.27520412 -412.80675751 34.51341949 -402 23 C-401.08154297 22.01773438 -401.08154297 22.01773438 -400.14453125 21.015625 C-396.08502585 16.81148164 -391.63547851 13.175993 -387.08203125 9.51953125 C-384.3016638 7.24660729 -381.59493529 4.91458984 -378.89575195 2.54736328 C-371.94624048 -3.52543469 -364.7734386 -9.00309042 -357 -14 C-356.35643555 -14.41572266 -355.71287109 -14.83144531 -355.04980469 -15.25976562 C-263.52119002 -73.9041082 -149.50410935 -79.35008312 0 0 Z " fill="#F8F2E6" transform="translate(699,125)"/>
<path d="M0 0 C10.56 0 21.12 0 32 0 C40.1689221 14.64240755 48.27121341 29.3018691 56.18847656 44.08105469 C60.33050943 51.79801367 64.57489175 59.44158528 69 67 C71.34776227 63.17123784 73.49780814 59.25738624 75.58984375 55.28515625 C76.29327093 53.95571682 76.99672242 52.62629024 77.70019531 51.296875 C78.24818787 50.25950195 78.24818787 50.25950195 78.80725098 49.20117188 C84.40568153 38.60774891 90.02571885 28.02606563 95.75 17.5 C96.21398193 16.642854 96.67796387 15.78570801 97.15600586 14.90258789 C97.59436768 14.09942139 98.03272949 13.29625488 98.484375 12.46875 C99.03689941 11.45458008 99.03689941 11.45458008 99.60058594 10.41992188 C100.06239258 9.62134766 100.52419922 8.82277344 101 8 C101.22838688 7.35031502 101.45677376 6.70063004 101.69208145 6.03125763 C102.84098237 3.39729966 103.80242515 1.8802196 106 0 C111.11632773 -1.03403521 116.13524399 -0.75304398 121.3125 -0.5 C122.73492649 -0.45984499 124.15746125 -0.42334764 125.58007812 -0.390625 C129.05564395 -0.30272435 132.52713582 -0.16484613 136 0 C136.15387421 16.37649593 136.30190823 32.75303256 136.4429636 49.12964344 C136.5085926 56.73334823 136.57614253 64.33702695 136.64819336 71.94067383 C136.71097791 78.56694628 136.77017996 85.19323932 136.82505554 91.81958216 C136.85424535 95.32912676 136.88524566 98.83863454 136.92053413 102.34812355 C136.95983227 106.26304837 136.99113316 110.17801458 137.02172852 114.09301758 C137.04114754 115.84412842 137.04114754 115.84412842 137.06095886 117.63061523 C137.0715181 119.22707634 137.0715181 119.22707634 137.08229065 120.85578918 C137.09473485 122.24539211 137.09473485 122.24539211 137.10743046 123.66306782 C137 126 137 126 136 129 C127.42 129 118.84 129 110 129 C109.2240245 124.34414697 108.88266123 120.5054014 108.90234375 115.84887695 C108.90380402 115.16031616 108.90526428 114.47175537 108.9067688 113.7623291 C108.9105544 112.27768032 108.91664915 110.79303596 108.92483521 109.30840492 C108.93766013 106.95894592 108.94412951 104.60954372 108.94897461 102.26005554 C108.96036738 97.2775114 108.97962603 92.29501445 109 87.3125 C109.02360304 81.52697779 109.04397923 75.74148207 109.05593872 69.95592308 C109.06242255 67.64093327 109.07492679 65.32602535 109.08764648 63.01106262 C109.09127825 61.59502229 109.09463007 60.17898121 109.09765625 58.76293945 C109.10551147 56.90811699 109.10551147 56.90811699 109.11352539 55.01582336 C109.13923473 51.95050801 109.13923473 51.95050801 108 49 C107.42894531 50.10472656 106.85789062 51.20945312 106.26953125 52.34765625 C99.95866417 64.48373551 93.31381005 76.40761441 86.54101562 88.29101562 C84.24234668 92.33189501 81.96380912 96.38399526 79.6875 100.4375 C79.30843506 101.11192139 78.92937012 101.78634277 78.53881836 102.48120117 C77.69229069 103.98732421 76.84609968 105.49363648 76 107 C73.65348943 107.35747622 71.36088686 107.60866631 69 107.8125 C67.700625 107.96332031 66.40125 108.11414063 65.0625 108.26953125 C61.8670068 107.87120107 61.07076145 107.08636565 58.99389648 104.55151367 C57.218732 101.70122818 55.56917749 98.84026815 53.99676514 95.87612915 C53.03038945 94.05719956 52.03089733 92.26177591 51.01611328 90.46948242 C48.99785004 86.89365931 47.02775954 83.2926514 45.0625 79.6875 C43.74226565 77.2739823 42.42002678 74.8615665 41.09765625 72.44921875 C40.47858902 71.31981369 39.85952179 70.19040863 39.22169495 69.02677917 C36.92240693 64.84759659 34.58588609 60.68978726 32.24389648 56.53442383 C31.83312614 55.80490761 31.4223558 55.07539139 30.99913788 54.32376862 C29.99975144 52.54899536 28.99992267 50.7744712 28 49 C27.9845388 50.48124611 27.9845388 50.48124611 27.96876526 51.99241638 C27.87120126 61.27805543 27.76848377 70.5636249 27.66066074 79.84915066 C27.60538912 84.62344948 27.55196248 89.39775438 27.50268555 94.17211914 C27.45510435 98.77571693 27.40276407 103.37923781 27.34705925 107.98274422 C27.3266073 109.74307413 27.30789902 111.50342515 27.29092598 113.26379204 C27.26694456 115.72077988 27.23688191 118.17762099 27.20532227 120.63452148 C27.1995668 121.36963455 27.19381134 122.10474762 27.18788147 122.86213684 C27.11405216 127.88594784 27.11405216 127.88594784 26 129 C17.42 129 8.84 129 0 129 C0 86.43 0 43.86 0 0 Z " fill="#F8F2E6" transform="translate(795,701)"/>
<path d="M0 0 C1.66758896 3.01181181 2.47831034 5.73646004 3.11328125 9.11328125 C3.40283691 10.60311523 3.40283691 10.60311523 3.69824219 12.12304688 C3.90094727 13.17556641 4.10365234 14.22808594 4.3125 15.3125 C9.19318909 39.37909908 17.43718125 61.54996164 38.71899414 75.79638672 C53.66762046 85.28994846 70.09388159 90.13840327 87 95 C88.59250615 95.46334155 90.18496146 95.92685793 91.77734375 96.390625 C94.84646998 97.27906604 97.92027854 98.14887698 101 99 C101 99.66 101 100.32 101 101 C100.33170166 101.12528076 99.66340332 101.25056152 98.97485352 101.37963867 C55.51601918 109.31319477 55.51601918 109.31319477 22.45629883 136.81201172 C11.69523699 153.28091532 6.86003842 171.29256133 3.39379883 190.47558594 C3.24064209 191.29446289 3.08748535 192.11333984 2.9296875 192.95703125 C2.79804199 193.68897705 2.66639648 194.42092285 2.53076172 195.17504883 C2 197 2 197 0 199 C-1.75563031 194.32363926 -2.71207987 189.63802695 -3.64794922 184.75097656 C-8.36992268 160.2334793 -17.21972828 137.39056652 -38.359375 122.3515625 C-58.77373755 108.69343519 -83.36284674 105.32597317 -107 101 C-104.58799951 98.12314303 -102.65083588 97.42977922 -99.01171875 96.67578125 C-98.0060083 96.45615723 -97.00029785 96.2365332 -95.96411133 96.01025391 C-94.88282959 95.77999512 -93.80154785 95.54973633 -92.6875 95.3125 C-72.04393564 90.61623465 -52.20924706 84.14695881 -35.76953125 70.34765625 C-34 69 -34 69 -31 68 C-30.29474436 66.68666961 -29.63214364 65.3500432 -29 64 C-27.99132005 62.82502416 -26.94607048 61.68089685 -25.875 60.5625 C-11.39418967 44.24524595 -6.66064733 23.97538836 -1.66088867 3.35400391 C-1 1 -1 1 0 0 Z " fill="#F8F2E6" transform="translate(557,252)"/>
<path d="M0 0 C10.4775 -0.061875 20.955 -0.12375 31.75 -0.1875 C35.03420898 -0.21481201 38.31841797 -0.24212402 41.70214844 -0.27026367 C44.3378869 -0.27903472 46.97362946 -0.28667719 49.609375 -0.29296875 C50.61100677 -0.30472893 50.61100677 -0.30472893 51.63287354 -0.31672668 C65.41152966 -0.47013611 77.84625318 1.17360731 88.6875 10.25 C96.49714487 19.53714525 100.74130935 29.06186808 100.28515625 41.4375 C98.96440404 53.30617743 94.98803913 63.97308532 86.203125 72.23828125 C82.73623755 75.01056182 78.99022164 77.07878217 75 79 C76.31647669 83.50408777 78.08571553 86.97975696 80.6875 90.875 C81.4860227 92.08876134 82.28274949 93.30370523 83.078125 94.51953125 C83.52994141 95.20869629 83.98175781 95.89786133 84.44726562 96.60791016 C87.66192037 101.56029807 90.79772892 106.56244365 93.9375 111.5625 C94.60031982 112.60970215 95.26313965 113.6569043 95.94604492 114.73583984 C96.57099854 115.73180176 97.19595215 116.72776367 97.83984375 117.75390625 C98.40050537 118.64408447 98.96116699 119.5342627 99.53881836 120.45141602 C100.95019489 122.91313023 102.01786763 125.34163928 103 128 C100.35085958 130.64914042 93.44529081 129.4949723 89.86401367 129.56982422 C88.50468114 129.60638368 87.14570361 129.66086051 85.7878418 129.73388672 C74.66415432 130.32298743 74.66415432 130.32298743 71.00170898 127.41137695 C69.37639745 125.02727759 68.20649524 122.62104632 67 120 C65.7837694 117.89665036 64.55232162 115.80205183 63.30859375 113.71484375 C62.01512244 111.45750651 60.72480749 109.198358 59.4375 106.9375 C54.38626608 98.0370814 54.38626608 98.0370814 49.03515625 89.31640625 C47 86 47 86 47 84 C40.73 84 34.46 84 28 84 C28.0721875 85.60746094 28.144375 87.21492187 28.21875 88.87109375 C29.73609835 123.79170496 29.73609835 123.79170496 28 129 C18.76 129 9.52 129 0 129 C0 86.43 0 43.86 0 0 Z M29 24 C27.85609208 27.43172375 27.87054442 30.096807 27.8671875 33.71484375 C27.86623077 34.36699356 27.86527405 35.01914337 27.86428833 35.6910553 C27.86360869 37.06869605 27.86544792 38.44634003 27.86962891 39.82397461 C27.87497165 41.92634326 27.86968113 44.02849744 27.86328125 46.13085938 C27.86394224 47.47135464 27.86522383 48.81184976 27.8671875 50.15234375 C27.86831543 51.36913818 27.86944336 52.58593262 27.87060547 53.83959961 C27.97683317 56.43416108 28.23022915 58.53895011 29 61 C33.35403865 61.08755672 37.70784877 61.14057969 42.0625 61.1875 C43.90618164 61.22520508 43.90618164 61.22520508 45.78710938 61.26367188 C55.67378331 61.34361803 61.82539251 60.00775615 69 53 C72.06965692 46.92354602 72.25602557 39.19626726 70.3125 32.703125 C68.12898664 28.44527395 65.42121785 26.56042983 61 25 C54.38281395 23.70338922 47.78402826 23.88782412 41.0625 23.9375 C39.90169922 23.94201172 38.74089844 23.94652344 37.54492188 23.95117188 C34.69656066 23.96289353 31.84830778 23.9793024 29 24 Z " fill="#F8F1E6" transform="translate(450,701)"/>
<path d="M0 0 C9.57 0 19.14 0 29 0 C40.38850789 30.10025882 51.75520473 60.20862719 63.01324463 90.35797119 C63.95519571 92.8800369 64.89820926 95.40170334 65.84130859 97.92333984 C67.18395577 101.51574975 68.52064427 105.11031298 69.85162354 108.70706177 C70.5368796 110.5558764 71.22708486 112.40285432 71.91748047 114.24975586 C72.31725098 115.33522705 72.71702148 116.42069824 73.12890625 117.5390625 C73.46994385 118.45896973 73.81098145 119.37887695 74.16235352 120.32666016 C75.06338689 123.20229857 75.57070199 126.0203599 76 129 C71.92512506 129.12366555 67.85097699 129.21436476 63.7746582 129.2746582 C62.38839696 129.29979219 61.00226813 129.33390592 59.61645508 129.37719727 C57.62378963 129.43788396 55.63015467 129.46354879 53.63671875 129.48828125 C52.43748779 129.51446533 51.23825684 129.54064941 50.00268555 129.56762695 C47 129 47 129 45.18554688 126.72802734 C43.19022007 122.13663901 43.19022007 122.13663901 42.39453125 119.86328125 C42.13349609 119.12142578 41.87246094 118.37957031 41.60351562 117.61523438 C41.34248047 116.85533203 41.08144531 116.09542969 40.8125 115.3125 C40.53986328 114.54099609 40.26722656 113.76949219 39.98632812 112.97460938 C38 107.27449483 38 107.27449483 38 105 C22.16 105 6.32 105 -10 105 C-10.99 108.3 -11.98 111.6 -13 115 C-14.60979423 119.6888091 -16.30935029 124.33928999 -18 129 C-27.57 129 -37.14 129 -47 129 C-46.23637788 123.65464513 -45.43913381 119.97182697 -43.5859375 115.06640625 C-43.33999847 114.40927139 -43.09405945 113.75213654 -42.84066772 113.0750885 C-42.02543147 110.90165732 -41.20022585 108.7321558 -40.375 106.5625 C-39.78871753 105.00529785 -39.20312112 103.44783724 -38.61816406 101.89013672 C-37.38088666 98.59839871 -36.13967589 95.30818255 -34.89550781 92.01904297 C-33.05213788 87.14309693 -31.2232997 82.26180432 -29.3984375 77.37890625 C-22.88872617 59.96718428 -16.33922506 42.57038941 -9.77697754 25.17840576 C-9.01192456 23.15057355 -8.24719224 21.12262033 -7.48278809 19.09454346 C-6.41930848 16.27355149 -5.35440344 13.45310197 -4.2890625 10.6328125 C-3.97000946 9.78585815 -3.65095642 8.93890381 -3.32223511 8.06628418 C-1.1145538 2.22910761 -1.1145538 2.22910761 0 0 Z M13 35 C12.75507813 35.81855469 12.51015625 36.63710938 12.2578125 37.48046875 C10.11143417 44.50430681 7.85539061 51.47708226 5.44140625 58.4140625 C5.21632385 59.06149918 4.99124146 59.70893585 4.75933838 60.37599182 C3.61448426 63.6642842 2.46265855 66.94997621 1.30322266 70.2331543 C0.66392822 72.06100464 0.66392822 72.06100464 0.01171875 73.92578125 C-0.56896362 75.57187378 -0.56896362 75.57187378 -1.16137695 77.2512207 C-2.1459053 79.99926125 -2.1459053 79.99926125 -2 83 C8.56 83 19.12 83 30 83 C29.13003332 77.74787277 29.13003332 77.74787277 27.65234375 72.8125 C27.38043213 72.04131836 27.10852051 71.27013672 26.82836914 70.47558594 C26.53438232 69.65864258 26.24039551 68.84169922 25.9375 68 C25.63384521 67.14438477 25.33019043 66.28876953 25.01733398 65.40722656 C21.40181139 55.25111999 17.70685562 45.12306988 14 35 C13.67 35 13.34 35 13 35 Z " fill="#F8F2E6" transform="translate(356,701)"/>
<path d="M0 0 C0.78186676 0.00359528 1.56373352 0.00719055 2.36929321 0.01089478 C3.18873917 0.01074875 4.00818512 0.01060272 4.85246277 0.01045227 C7.57416385 0.01115164 10.29579737 0.01894515 13.01748657 0.02676392 C14.89935773 0.02862801 16.78122938 0.03005195 18.6631012 0.03105164 C23.62631561 0.0348775 28.58950096 0.04470836 33.55270386 0.05575562 C38.61322639 0.06596827 43.67375359 0.07054894 48.73428345 0.07559204 C58.67114521 0.08633057 68.60798535 0.10340781 78.54483032 0.12442017 C79.55527827 3.15576401 79.59515981 4.86837959 79.42373657 8.01113892 C79.37539673 8.94893188 79.32705688 9.88672485 79.2772522 10.85293579 C79.22117798 11.82940063 79.16510376 12.80586548 79.10733032 13.81192017 C79.05512329 14.79998657 79.00291626 15.78805298 78.9491272 16.80606079 C78.81947726 19.24583692 78.6845129 21.68520122 78.54483032 24.12442017 C75.99544217 25.39911424 74.21442034 25.244582 71.36074829 25.23794556 C70.27977875 25.23787003 69.1988092 25.23779449 68.08508301 25.23771667 C66.32879074 25.22997475 66.32879074 25.22997475 64.53701782 25.22207642 C63.34126129 25.22066147 62.14550476 25.21924652 60.91351318 25.2177887 C57.08226045 25.2121768 53.25106548 25.19962225 49.41983032 25.18692017 C46.82738325 25.1819067 44.23493526 25.17734353 41.64248657 25.17324829 C35.27656083 25.16305302 28.91076047 25.14347984 22.54483032 25.12442017 C22.54483032 33.70442017 22.54483032 42.28442017 22.54483032 51.12442017 C38.38483032 51.12442017 54.22483032 51.12442017 70.54483032 51.12442017 C70.54483032 58.71442017 70.54483032 66.30442017 70.54483032 74.12442017 C54.70483032 74.12442017 38.86483032 74.12442017 22.54483032 74.12442017 C22.54483032 84.35442017 22.54483032 94.58442017 22.54483032 105.12442017 C42.34483032 105.12442017 62.14483032 105.12442017 82.54483032 105.12442017 C84.37154229 108.7778441 83.72953754 113.10281175 83.73233032 117.12442017 C83.74457642 118.05254517 83.75682251 118.98067017 83.7694397 119.93692017 C83.77137329 120.82379517 83.77330688 121.71067017 83.77529907 122.62442017 C83.77940796 123.43910767 83.78351685 124.25379517 83.78775024 125.09317017 C83.54483032 127.12442017 83.54483032 127.12442017 81.54483032 129.12442017 C78.77905763 129.31776901 76.11381139 129.38665822 73.34732056 129.36734009 C72.50007416 129.36923843 71.65282776 129.37113678 70.77990723 129.37309265 C67.97098628 129.3768065 65.16232215 129.36608842 62.35342407 129.35488892 C60.40811697 129.35369745 58.46280928 129.35324388 56.51750183 129.35350037 C52.43778897 129.3519345 48.35816373 129.34363633 44.2784729 129.33023071 C39.03679516 129.31322947 33.79521371 129.30941663 28.55351162 129.3101759 C24.53622002 129.3099046 20.51894967 129.30443009 16.50166512 129.29717445 C14.5682701 129.29398206 12.63487266 129.29201905 10.70147514 129.29128075 C8.00525646 129.28912384 5.30914202 129.28039412 2.61294556 129.26968384 C1.80616867 129.27013702 0.99939178 129.27059021 0.16816711 129.27105713 C-5.34069521 129.23889463 -5.34069521 129.23889463 -6.45516968 128.12442017 C-6.55342936 126.48183316 -6.5814893 124.83500684 -6.58215332 123.18948364 C-6.58497314 122.12095657 -6.58779297 121.0524295 -6.59069824 119.95152283 C-6.58867401 118.76914536 -6.58664978 117.58676788 -6.58456421 116.36856079 C-6.58631653 115.1313176 -6.58806885 113.8940744 -6.58987427 112.61933899 C-6.59353254 109.21652575 -6.5926593 105.81377297 -6.58949518 102.41096306 C-6.58697127 98.85731802 -6.58930921 95.30367565 -6.59088135 91.75003052 C-6.59270295 85.78123508 -6.59029698 79.81245201 -6.58554077 73.84365845 C-6.58009817 66.93347448 -6.58186083 60.02332002 -6.58736718 53.11313677 C-6.59189857 47.19042981 -6.59254873 41.26773176 -6.58992851 35.34502363 C-6.58836588 31.80316655 -6.58817158 28.26132336 -6.591465 24.71946716 C-6.59487796 20.77305953 -6.59015354 16.82668521 -6.58456421 12.88027954 C-6.58658844 11.69790207 -6.58861267 10.5155246 -6.59069824 9.2973175 C-6.58787842 8.22879044 -6.58505859 7.16026337 -6.58215332 6.05935669 C-6.58177629 5.12503563 -6.58139927 4.19071457 -6.58101082 3.22808075 C-6.32639565 -1.02826897 -3.6279764 0.00704251 0 0 Z " fill="#F8F1E6" transform="translate(689.4551696777344,700.8755798339844)"/>
<path d="M0 0 C1.25873645 1.03109262 2.51238333 2.06865042 3.75 3.125 C2.16467191 7.68064061 -0.24003081 11.43975769 -2.875 15.4375 C-3.29523438 16.08267578 -3.71546875 16.72785156 -4.1484375 17.39257812 C-5.17838241 18.97260724 -6.21365628 20.54916047 -7.25 22.125 C-11.09795765 20.92042195 -14.57654085 19.53302394 -18.125 17.625 C-27.99107924 12.67003576 -38.61115422 11.33738108 -49.48828125 13.8828125 C-54.45670268 15.59049727 -58.31632239 17.57200087 -62.25 21.125 C-62.91 21.125 -63.57 21.125 -64.25 21.125 C-64.5284375 21.70507812 -64.806875 22.28515625 -65.09375 22.8828125 C-66.54768165 25.70226103 -68.27807272 28.28923148 -70.03125 30.9296875 C-74.88371278 39.67034161 -75.62493676 52.93527961 -73.15625 62.56640625 C-69.11633397 73.97220365 -63.7071789 83.7243168 -52.5625 89.5234375 C-41.49515994 94.1677677 -31.52257558 94.1565663 -20.25 90.125 C-17.55973975 88.9048681 -14.94729773 87.60569521 -12.34375 86.2109375 C-10.25 85.125 -10.25 85.125 -7.25 84.125 C-4.12405596 86.92722168 -1.90506104 90.36404092 0.4375 93.8125 C1.06108398 94.72225586 1.06108398 94.72225586 1.69726562 95.65039062 C2.71769264 97.13997948 3.73423413 98.63222877 4.75 100.125 C-3.54762984 110.46468085 -15.02479009 116.22738569 -28.25 118.125 C-48.430953 119.49734353 -65.67282483 115.64532986 -81.25 102.125 C-82.0028125 101.47917969 -82.755625 100.83335937 -83.53125 100.16796875 C-96.390375 88.29970098 -103.07876242 71.36922096 -104.25 54.125 C-104.42363562 34.58134614 -98.70863982 18.04576295 -85.12109375 3.734375 C-60.93805939 -18.24421949 -25.9562072 -19.98183914 0 0 Z " fill="#F8F2E6" transform="translate(186.25,712.875)"/>
<path d="M0 0 C1.35513954 0.00539291 1.35513954 0.00539291 2.73765564 0.01089478 C3.68389801 0.01074875 4.63014038 0.01060272 5.60505676 0.01045227 C8.74880729 0.0111518 11.89249938 0.01894608 15.03623962 0.02676392 C17.20957405 0.02862795 19.3829089 0.03005192 21.5562439 0.03105164 C27.28884533 0.03487795 33.0214216 0.0447092 38.75401306 0.05575562 C44.59873616 0.0659673 50.44346331 0.07054873 56.28819275 0.07559204 C67.76541915 0.08633137 79.24262024 0.10392908 90.71983337 0.12442017 C90.71983337 8.37442017 90.71983337 16.62442017 90.71983337 25.12442017 C74.87983337 25.61942017 74.87983337 25.61942017 58.71983337 26.12442017 C58.38983337 60.11442017 58.05983337 94.10442017 57.71983337 129.12442017 C48.47983337 129.12442017 39.23983337 129.12442017 29.71983337 129.12442017 C29.71983337 94.80442017 29.71983337 60.48442017 29.71983337 25.12442017 C18.16983337 25.12442017 6.61983337 25.12442017 -5.28016663 25.12442017 C-7.28016663 23.12442017 -7.28016663 23.12442017 -7.52308655 20.89370728 C-7.51897766 19.98886597 -7.51486877 19.08402466 -7.51063538 18.15176392 C-7.50870178 17.17014282 -7.50676819 16.18852173 -7.504776 15.17715454 C-7.49252991 14.1491272 -7.48028381 13.12109985 -7.46766663 12.06192017 C-7.46702209 11.03002563 -7.46637756 9.9981311 -7.4657135 8.93496704 C-7.41291763 0.01246444 -7.41291763 0.01246444 0 0 Z " fill="#F8F2E6" transform="translate(573.2801666259766,700.8755798339844)"/>
<path d="M0 0 C9.24 0 18.48 0 28 0 C28 34.65 28 69.3 28 105 C45.82 105 63.64 105 82 105 C83.18807993 107.37615986 83.12914522 108.8511742 83.1328125 111.5 C83.13410156 112.386875 83.13539063 113.27375 83.13671875 114.1875 C83.13285156 115.115625 83.12898438 116.04375 83.125 117 C83.12886719 117.928125 83.13273437 118.85625 83.13671875 119.8125 C83.13542969 120.699375 83.13414062 121.58625 83.1328125 122.5 C83.13168457 123.3146875 83.13055664 124.129375 83.12939453 124.96875 C83 127 83 127 82 129 C54.94 129 27.88 129 0 129 C-0.67272258 124.96366451 -1.12525335 121.76581678 -1.12698364 117.78768921 C-1.12980347 116.78393753 -1.13262329 115.78018585 -1.13552856 114.74601746 C-1.13350433 113.66113541 -1.1314801 112.57625336 -1.12939453 111.45849609 C-1.13114685 110.30337021 -1.13289917 109.14824432 -1.13470459 107.95811462 C-1.13909972 104.14654023 -1.1361937 100.33501236 -1.1328125 96.5234375 C-1.13348612 93.87358543 -1.1344551 91.22373477 -1.13571167 88.57388306 C-1.13752833 83.02418515 -1.13513973 77.47450057 -1.13037109 71.92480469 C-1.12492407 65.51160789 -1.12669634 59.09844286 -1.1321975 52.68524683 C-1.13728323 46.50867248 -1.13674393 40.33211222 -1.13381577 34.15553665 C-1.1331479 31.52963888 -1.13397004 28.9037403 -1.13629532 26.27784348 C-1.13882897 22.61277859 -1.13497133 18.94777514 -1.12939453 15.28271484 C-1.13141876 14.19378433 -1.13344299 13.10485382 -1.13552856 11.98292542 C-1.13270874 10.98481339 -1.12988892 9.98670135 -1.12698364 8.95834351 C-1.12660662 8.09227667 -1.12622959 7.22620983 -1.12584114 6.33389854 C-1 4 -1 4 0 0 Z " fill="#F8F2E6" transform="translate(212,701)"/>
<path d="M0 0 C3.3 0 6.6 0 10 0 C12.31 7.59 14.62 15.18 17 23 C18.47657347 20.04685305 19.54365165 17.55520773 20.5078125 14.453125 C20.77207031 13.60878906 21.03632812 12.76445313 21.30859375 11.89453125 C21.57800781 11.02183594 21.84742188 10.14914062 22.125 9.25 C22.54072266 7.91775391 22.54072266 7.91775391 22.96484375 6.55859375 C23.64627239 4.37332258 24.32454602 2.18712381 25 0 C27.64 0 30.28 0 33 0 C34.17372973 3.60190542 35.33776256 7.20687151 36.5 10.8125 C36.83386719 11.83666016 37.16773438 12.86082031 37.51171875 13.91601562 C37.82753906 14.89892578 38.14335938 15.88183594 38.46875 16.89453125 C38.76201172 17.80050049 39.05527344 18.70646973 39.35742188 19.63989258 C40 22 40 22 40 25 C40.66 25 41.32 25 42 25 C42.1134375 23.85402344 42.226875 22.70804688 42.34375 21.52734375 C42.9077749 17.02209555 44.09525273 12.86905377 45.5 8.5625 C45.72558594 7.84384766 45.95117188 7.12519531 46.18359375 6.38476562 C47.85641687 1.14358313 47.85641687 1.14358313 49 0 C52.33327842 -0.1424478 55.66453893 -0.04222103 59 0 C56.81643824 8.43638682 54.24019542 16.73223242 51.55615234 25.01953125 C50.86531514 27.15493628 50.18052983 29.29222329 49.49609375 31.4296875 C49.05764962 32.789178 48.61886079 34.14855738 48.1796875 35.5078125 C47.78507324 36.73129395 47.39045898 37.95477539 46.98388672 39.21533203 C46 42 46 42 45 43 C42.32941149 43.14115161 39.67567762 43.04247107 37 43 C34.63646302 37.7808113 32.87469701 32.57030637 31.3125 27.0625 C31.08755859 26.28326172 30.86261719 25.50402344 30.63085938 24.70117188 C30.08322633 22.80193386 29.54104051 20.90112655 29 19 C28.68977905 20.0372522 28.68977905 20.0372522 28.37329102 21.09545898 C27.43965276 24.21047054 26.50114417 27.32399341 25.5625 30.4375 C25.23701172 31.52611328 24.91152344 32.61472656 24.57617188 33.73632812 C24.26357422 34.77080078 23.95097656 35.80527344 23.62890625 36.87109375 C23.34088135 37.82943115 23.05285645 38.78776855 22.75610352 39.77514648 C22 42 22 42 21 43 C18.32941149 43.14115161 15.67567762 43.04247107 13 43 C9.81063858 35.50170131 7.25413847 27.85864971 4.85302734 20.07519531 C4.24384707 18.10510138 3.6242002 16.1384943 3.00390625 14.171875 C2.61589844 12.92148437 2.22789062 11.67109375 1.828125 10.3828125 C1.4765332 9.25246582 1.12494141 8.12211914 0.76269531 6.95751953 C0 4 0 4 0 0 Z " fill="#F9F2E6" transform="translate(562,935)"/>
<path d="M0 0 C2.46484375 0.0234375 2.46484375 0.0234375 4.9375 0.8125 C8.27916067 4.40555166 10.52586521 8.56040707 12.9375 12.8125 C14.26039691 14.90247591 15.59300057 16.9863553 16.9375 19.0625 C18.4225 21.41375 18.4225 21.41375 19.9375 23.8125 C20.2675 16.2225 20.5975 8.6325 20.9375 0.8125 C24.2375 0.8125 27.5375 0.8125 30.9375 0.8125 C30.9375 15.0025 30.9375 29.1925 30.9375 43.8125 C22.9375 44.8125 22.9375 44.8125 21.09960938 43.61694336 C20.71611328 43.02147705 20.33261719 42.42601074 19.9375 41.8125 C19.50759766 41.20607666 19.07769531 40.59965332 18.63476562 39.97485352 C18.20873047 39.30381592 17.78269531 38.63277832 17.34375 37.94140625 C16.87066406 37.20212891 16.39757812 36.46285156 15.91015625 35.70117188 C15.42417969 34.93353516 14.93820312 34.16589844 14.4375 33.375 C13.47009647 31.85461117 12.50138627 30.33505282 11.53125 28.81640625 C11.10521484 28.14424072 10.67917969 27.4720752 10.24023438 26.77954102 C8.8862178 24.73506734 7.40881372 22.77425163 5.9375 20.8125 C5.6075 28.0725 5.2775 35.3325 4.9375 42.8125 C-1.0625 44.8125 -1.0625 44.8125 -3.4375 43.9375 C-3.97375 43.56625 -4.51 43.195 -5.0625 42.8125 C-5.08714638 36.99178378 -5.1053343 31.17109766 -5.11743164 25.3503418 C-5.12247267 23.36856559 -5.12930538 21.38679311 -5.13793945 19.4050293 C-5.15001515 16.56297891 -5.15573045 13.72097753 -5.16015625 10.87890625 C-5.16531754 9.98724258 -5.17047882 9.09557892 -5.17579651 8.17689514 C-5.17599177 6.05509399 -5.1246003 3.9333922 -5.0625 1.8125 C-3.5327947 0.2827947 -2.12430232 0.27328074 0 0 Z " fill="#F8F2E6" transform="translate(262.0625,866.1875)"/>
<path d="M0 0 C10 0 10 0 12.18920898 1.68066406 C12.62048096 2.45120117 13.05175293 3.22173828 13.49609375 4.015625 C13.99173828 4.85480469 14.48738281 5.69398438 14.99804688 6.55859375 C15.47306641 7.44675781 15.94808594 8.33492187 16.4375 9.25 C17.43555496 10.98474507 18.43423171 12.71913259 19.43359375 14.453125 C19.85697021 15.22817383 20.28034668 16.00322266 20.71655273 16.80175781 C22.16562205 19.38025505 22.16562205 19.38025505 25 23 C25.33 15.41 25.66 7.82 26 0 C28.97 0 31.94 0 35 0 C35.90208123 2.7062437 36.12227599 4.23850986 36.11352539 7.01245117 C36.11344986 7.81305466 36.11337433 8.61365814 36.11329651 9.43852234 C36.10813522 10.29798965 36.10297394 11.15745697 36.09765625 12.04296875 C36.0962413 12.9265657 36.09482635 13.81016266 36.09336853 14.72053528 C36.08777069 17.54289128 36.07521861 20.36516797 36.0625 23.1875 C36.05748472 25.10091031 36.05292186 27.01432187 36.04882812 28.92773438 C36.03780197 33.61852014 36.02053883 38.30924663 36 43 C26.83324498 43.64461377 26.83324498 43.64461377 23.80859375 41.3046875 C23.35613281 40.50289062 22.90367187 39.70109375 22.4375 38.875 C21.89867187 37.9778125 21.35984375 37.080625 20.8046875 36.15625 C20.20914063 35.1146875 19.61359375 34.073125 19 33 C17.82250483 31.14193423 16.62316351 29.29949398 15.41845703 27.45898438 C13.59225101 24.65226946 11.79953664 21.82388826 10 19 C9.67 26.92 9.34 34.84 9 43 C6.03 43 3.06 43 0 43 C0 28.81 0 14.62 0 0 Z " fill="#F8F2E5" transform="translate(829,867)"/>
<path d="M0 0 C5.52536375 4.26959926 8.23363852 10.32519495 9.3515625 17.14453125 C9.62948913 23.54947671 7.75789596 28.90952913 3.6875 33.75 C-2.47337829 38.90794461 -6.89820766 41.26924385 -15 41 C-21.49632913 40.09009071 -25.52783853 37.36080773 -29.5546875 32.23828125 C-33.26465812 26.49284027 -34.68874061 20.97657483 -33.56640625 14.1953125 C-31.71483072 7.01886115 -28.17673156 2.10881049 -22 -2 C-14.03045062 -5.73042737 -7.12791003 -4.64463815 0 0 Z M-22 11 C-23.84467846 14.68935692 -23.35009552 18.96435342 -23 23 C-21.29944789 27.20662891 -19.1406793 29.17039752 -15 31 C-10.98004396 31.4101996 -8.42887437 31.11060195 -5 29 C-2.09884574 25.28861346 -0.62221053 21.46034342 -1.125 16.75 C-2.38724669 11.20533067 -2.38724669 11.20533067 -6.1875 7.25 C-13.15561288 4.15306094 -16.99996317 5.99996317 -22 11 Z " fill="#F8F2E6" transform="translate(807,870)"/>
<path d="M0 0 C3.02138567 -0.08149592 6.04053905 -0.14073421 9.0625 -0.1875 C9.91005859 -0.21263672 10.75761719 -0.23777344 11.63085938 -0.26367188 C17.92950662 -0.33662918 22.87180324 0.39316937 27.875 4.5625 C30.33548579 7.70645407 30.37113693 10.06594851 30 14 C28.85137305 16.50290327 27.49143857 18.66962723 26 21 C27.2375 21.99 27.2375 21.99 28.5 23 C31.15740215 26.18888259 31.71053084 27.87285935 31.4140625 32.0078125 C30.70031413 35.44188484 29.339902 37.42010805 27 40 C21.28605346 43.11068132 16.55392016 43.40728245 10.125 43.25 C8.825625 43.24226562 8.825625 43.24226562 7.5 43.234375 C1.15481151 43.15481151 1.15481151 43.15481151 0 42 C-0.08874135 38.89748799 -0.11518455 35.8173188 -0.09765625 32.71484375 C-0.0962413 31.78402481 -0.09482635 30.85320587 -0.09336853 29.8941803 C-0.08775172 26.90858809 -0.0751964 23.92306971 -0.0625 20.9375 C-0.05748716 18.91862087 -0.05292388 16.89974057 -0.04882812 14.88085938 C-0.03777683 9.92054428 -0.02050095 4.96028468 0 0 Z M10 9 C10 11.64 10 14.28 10 17 C14.72415328 17.39875273 14.72415328 17.39875273 19 15.75 C20.2059245 14.02592983 20.2059245 14.02592983 19.8125 11.875 C19.1564434 9.81035868 19.1564434 9.81035868 17 9 C14.6670134 8.95977609 12.33293334 8.95679753 10 9 Z M10 25 C10 27.97 10 30.94 10 34 C15.7974423 34.24428343 15.7974423 34.24428343 21 32 C20.65772428 29.02934491 20.65772428 29.02934491 20 26 C17.71294169 24.85647084 16.40735238 24.89665561 13.875 24.9375 C11.956875 24.9684375 11.956875 24.9684375 10 25 Z " fill="#F9F3E6" transform="translate(672,935)"/>
<path d="M0 0 C24.26940639 0 24.26940639 0 31.0234375 5.7109375 C35.34881957 11.03640791 37.53905441 15.71256455 37.30859375 22.7890625 C36.31902735 29.87886733 33.5098147 35.33323162 27.9765625 39.84375 C18.84101787 45.18786307 11.32278605 43 0 43 C0 28.81 0 14.62 0 0 Z M9 10 C9 17.59 9 25.18 9 33 C15.81104786 33.97300684 17.36001195 34.14537795 23 31 C26.0730392 28.02939544 26.83699815 25.23804808 27 21 C26.13972646 16.95210577 24.92857635 13.90043767 21.9375 11 C17.93942481 9.46289367 17.93942481 9.46289367 9 10 Z " fill="#F8F2E6" transform="translate(285,935)"/>
<path d="M0 0 C14.08950831 0 14.08950831 0 20.0625 4.3125 C26.26445075 10.68103207 27.48418695 16.25355376 27.40625 25.01171875 C26.75830289 31.23348363 23.60675288 35.11415416 19.0625 39.1875 C12.94970731 43.51739482 8.03424208 43.57134473 0.75 43.4375 C-0.18134766 43.42847656 -1.11269531 43.41945313 -2.07226562 43.41015625 C-4.3609436 43.38668263 -6.64908672 43.35384729 -8.9375 43.3125 C-9.90977864 34.96950767 -10.09344127 26.67998587 -10.06787109 18.29296875 C-10.0624201 16.15618077 -10.06789691 14.01959487 -10.07421875 11.8828125 C-10.07355943 10.52343704 -10.07228132 9.1640617 -10.0703125 7.8046875 C-10.06918457 6.58120605 -10.06805664 5.35772461 -10.06689453 4.09716797 C-9.79721065 -1.70663274 -4.64479642 0.03488721 0 0 Z M1.0625 9.3125 C-0.47215007 10.84715007 -0.06714078 12.25650987 -0.0703125 14.390625 C-0.07160156 15.22207031 -0.07289063 16.05351563 -0.07421875 16.91015625 C-0.07035156 17.78542969 -0.06648438 18.66070313 -0.0625 19.5625 C-0.06636719 20.42230469 -0.07023437 21.28210938 -0.07421875 22.16796875 C-0.06778713 26.34208844 0.00327377 30.24372624 1.0625 34.3125 C7.10736575 34.0438393 11.28105286 33.37673007 16.0625 29.3125 C17.71869355 24.34391936 17.75135208 19.42497972 16.125 14.4375 C13.02778969 11.24643483 9.35607363 10.22776786 5.0625 9.3125 C3.7425 9.3125 2.4225 9.3125 1.0625 9.3125 Z " fill="#F8F1E4" transform="translate(425.9375,866.6875)"/>
<path d="M0 0 C0.66 0.66 1.32 1.32 2 2 C1.75 4.5625 1.75 4.5625 1 7 C0.34 7.33 -0.32 7.66 -1 8 C-0.505 8.99 -0.505 8.99 0 10 C-2.64498351 9.54657425 -4.83829059 9.0808547 -7.25 7.875 C-11.31444885 6.58176628 -14.91022384 6.83040046 -19 8 C-22.06572865 10.60586935 -22.84697935 12.45932705 -23.9375 16.3125 C-24.01095106 20.64611248 -23.35325769 24.30445092 -21 28 C-18.15823394 29.86395408 -15.60193006 30.32924147 -12.25 30.625 C-11.45078125 30.69976563 -10.6515625 30.77453125 -9.828125 30.8515625 C-9.22484375 30.90054688 -8.6215625 30.94953125 -8 31 C-8 29.02 -8 27.04 -8 25 C-10.31 24.34 -12.62 23.68 -15 23 C-15.79953138 19.71303767 -16.09658936 18.28976808 -15 15 C-9.39 15 -3.78 15 2 15 C2 22.26 2 29.52 2 37 C-6.94691161 40.83439069 -13.4933795 42.23341257 -22.80859375 39.01171875 C-28.11688331 36.56101109 -31.08656009 31.89041698 -34 27 C-35.94382514 20.61129469 -35.73813414 14.90043586 -32.9375 8.8125 C-29.77646325 3.07084285 -25.98918691 -0.60080613 -20.0625 -3.375 C-12.2501865 -4.96934969 -6.88454175 -3.91361917 0 0 Z " fill="#F9F2E5" transform="translate(200,870)"/>
<path d="M0 0 C3.16634636 -0.11760715 6.33212074 -0.18771024 9.5 -0.25 C10.386875 -0.28351562 11.27375 -0.31703125 12.1875 -0.3515625 C18.21179974 -0.44015514 23.07459653 0.31563709 28 4 C30.39197771 7.76917701 31.25269722 10.72882824 30.9375 15.125 C29.73017126 20.11529212 27.53760845 22.46239155 24 26 C24.6496875 26.91523437 25.299375 27.83046875 25.96875 28.7734375 C26.81274508 29.97378605 27.65648173 31.17431634 28.5 32.375 C28.92925781 32.97828125 29.35851562 33.5815625 29.80078125 34.203125 C33 38.7734375 33 38.7734375 33 41 C33.66 41 34.32 41 35 41 C35 41.66 35 42.32 35 43 C30.71 43 26.42 43 22 43 C20.79557292 40.52604167 19.59114583 38.05208333 18.38671875 35.578125 C17.06014747 33.11182346 15.92788454 31.03320839 14 29 C12.35 28.67 10.7 28.34 9 28 C9 32.95 9 37.9 9 43 C6.03 43 3.06 43 0 43 C-2.67470896 29.09575899 -0.77054399 14.05013189 0 0 Z M9 9 C8.97310784 10.47906892 8.95365379 11.95827483 8.9375 13.4375 C8.92589844 14.26121094 8.91429687 15.08492187 8.90234375 15.93359375 C8.76732652 17.99163938 8.76732652 17.99163938 10 19 C13.94836905 19.2632246 16.60379269 19.08997373 20 17 C20.2502157 14.08365871 20.2502157 14.08365871 20 11 C16.91111478 8.94074319 16.29064073 8.7609626 12.8125 8.875 C11.554375 8.91625 10.29625 8.9575 9 9 Z " fill="#F8F2E5" transform="translate(578,867)"/>
<path d="M0 0 C6.6515625 -0.0309375 6.6515625 -0.0309375 13.4375 -0.0625 C14.83798584 -0.071604 16.23847168 -0.08070801 17.68139648 -0.09008789 C19.32217163 -0.09383423 19.32217163 -0.09383423 20.99609375 -0.09765625 C22.12200928 -0.10289307 23.2479248 -0.10812988 24.40795898 -0.11352539 C27 0 27 0 28 1 C28.1328125 2.8125 28.1328125 2.8125 28.125 5 C28.12886719 6.0828125 28.12886719 6.0828125 28.1328125 7.1875 C28 9 28 9 27 10 C24.13732433 10.07325168 21.299281 10.09238205 18.4375 10.0625 C17.63119141 10.05798828 16.82488281 10.05347656 15.99414062 10.04882812 C13.99606244 10.03700518 11.99802217 10.01906914 10 10 C10 12.31 10 14.62 10 17 C13.96 16.67 17.92 16.34 22 16 C24 21 24 21 24 26 C19.38 26 14.76 26 10 26 C10.33 28.31 10.66 30.62 11 33 C12.14339844 32.98839844 13.28679687 32.97679687 14.46484375 32.96484375 C15.95572754 32.95546712 17.44661309 32.94636679 18.9375 32.9375 C19.69224609 32.92912109 20.44699219 32.92074219 21.22460938 32.91210938 C23.14994313 32.90347559 25.07535581 32.94775667 27 33 C28 34 28 34 28 43 C18.76 43 9.52 43 0 43 C0 28.81 0 14.62 0 0 Z " fill="#F8F2E6" transform="translate(335,935)"/>
<path d="M0 0 C1.12591553 0.00523682 2.25183105 0.01047363 3.41186523 0.01586914 C4.62680664 0.0190918 5.84174805 0.02231445 7.09350586 0.02563477 C8.37290039 0.03401367 9.65229492 0.04239258 10.97045898 0.05102539 C12.2537207 0.05553711 13.53698242 0.06004883 14.85913086 0.06469727 C18.04211921 0.07652994 21.22501661 0.09301471 24.40795898 0.11352539 C24.43485115 1.59259431 24.4543052 3.07180022 24.47045898 4.55102539 C24.48206055 5.37473633 24.49366211 6.19844727 24.50561523 7.04711914 C24.40795898 9.11352539 24.40795898 9.11352539 23.40795898 10.11352539 C20.54528331 10.18677707 17.70723999 10.20590744 14.84545898 10.17602539 C14.03915039 10.17151367 13.2328418 10.16700195 12.40209961 10.16235352 C10.40402142 10.15053057 8.40598115 10.13259453 6.40795898 10.11352539 C6.40795898 12.42352539 6.40795898 14.73352539 6.40795898 17.11352539 C7.79821289 17.09612305 7.79821289 17.09612305 9.21655273 17.07836914 C10.4140918 17.0693457 11.61163086 17.06032227 12.84545898 17.05102539 C14.04041992 17.03942383 15.23538086 17.02782227 16.46655273 17.01586914 C19.40795898 17.11352539 19.40795898 17.11352539 20.40795898 18.11352539 C20.5491106 20.7841139 20.45043006 23.43784777 20.40795898 26.11352539 C15.38669972 26.89268631 11.43091902 27.2436914 6.40795898 26.11352539 C6.40795898 28.75352539 6.40795898 31.39352539 6.40795898 34.11352539 C7.61194336 34.01813477 8.81592773 33.92274414 10.05639648 33.82446289 C11.63187776 33.71192851 13.20740093 33.59997966 14.78295898 33.48852539 C15.97405273 33.3918457 15.97405273 33.3918457 17.18920898 33.29321289 C19.25824122 33.15293952 21.33421435 33.12594302 23.40795898 33.11352539 C25.40795898 35.11352539 25.40795898 35.11352539 25.40795898 43.11352539 C15.83795898 43.11352539 6.26795898 43.11352539 -3.59204102 43.11352539 C-3.61494697 37.15034309 -3.63487497 31.18731228 -3.64697266 25.22412109 C-3.6520138 23.19384241 -3.65884658 21.16356737 -3.66748047 19.13330078 C-3.67955569 16.22175192 -3.68527136 13.31025089 -3.68969727 10.39868164 C-3.69485855 9.4851442 -3.70001984 8.57160675 -3.70533752 7.63038635 C-3.7055327 5.45777112 -3.65415906 3.28525243 -3.59204102 1.11352539 C-2.59204102 0.11352539 -2.59204102 0.11352539 0 0 Z " fill="#F8F2E5" transform="translate(355.592041015625,866.886474609375)"/>
<path d="M0 0 C9.24 0 18.48 0 28 0 C28 8 28 8 27 10 C21.72 10 16.44 10 11 10 C10.67 12.31 10.34 14.62 10 17 C11.39025391 16.98259766 11.39025391 16.98259766 12.80859375 16.96484375 C14.00613281 16.95582031 15.20367188 16.94679688 16.4375 16.9375 C17.63246094 16.92589844 18.82742188 16.91429687 20.05859375 16.90234375 C23 17 23 17 24 18 C24.14115161 20.67058851 24.04247107 23.32432238 24 26 C21.16443413 27.41778293 19.0091294 26.86257622 15.875 26.5625 C14.77929688 26.46066406 13.68359375 26.35882812 12.5546875 26.25390625 C11.71164062 26.17011719 10.86859375 26.08632813 10 26 C10 28.64 10 31.28 10 34 C15.28 34 20.56 34 26 34 C26.33 33.34 26.66 32.68 27 32 C28.59555725 35.49028148 29.32049797 38.15402433 29 42 C28 43 28 43 25.31616211 43.11352539 C24.14835205 43.10828857 22.98054199 43.10305176 21.77734375 43.09765625 C20.64288818 43.09515869 19.50843262 43.09266113 18.33959961 43.09008789 C16.1605603 43.07643188 16.1605603 43.07643188 13.9375 43.0625 C7.0384375 43.0315625 7.0384375 43.0315625 0 43 C0 28.81 0 14.62 0 0 Z " fill="#F8F2E5" transform="translate(624,867)"/>
<path d="M0 0 C9.24 0 18.48 0 28 0 C28 3.3 28 6.6 28 10 C22.06 10 16.12 10 10 10 C10 12.31 10 14.62 10 17 C14.62 17 19.24 17 24 17 C25 22 25 22 24 26 C19.38 26 14.76 26 10 26 C10.60788553 31.46084261 10.60788553 31.46084261 12 34 C17.28 34 22.56 34 28 34 C29 39 29 39 28 43 C18.76 43 9.52 43 0 43 C0 28.81 0 14.62 0 0 Z " fill="#F8F2E5" transform="translate(465,867)"/>
<path d="M0 0 C3.3 0 6.6 0 10 0 C11.47676354 3.60646505 12.95167336 7.21368263 14.42504883 10.8215332 C15.16590688 12.63465458 15.90812836 14.44721866 16.65039062 16.25976562 C19.08722605 22.22919468 21.50188215 28.20732836 23.86328125 34.20703125 C24.27489502 35.24964111 24.68650879 36.29225098 25.1105957 37.36645508 C26 40 26 40 26 43 C22.7 43 19.4 43 16 43 C14.515 38.545 14.515 38.545 13 34 C7.72 34 2.44 34 -3 34 C-3.99 36.97 -4.98 39.94 -6 43 C-10.455 43.495 -10.455 43.495 -15 44 C-16.1346488 40.5960536 -15.91089998 40.08560073 -14.64477539 36.89575195 C-14.32436783 36.07512772 -14.00396027 35.25450348 -13.67384338 34.40901184 C-13.31870163 33.52767075 -12.96355988 32.64632965 -12.59765625 31.73828125 C-12.24110458 30.83248825 -11.88455292 29.92669525 -11.51719666 28.99345398 C-10.37440919 26.09624083 -9.21863949 23.2044075 -8.0625 20.3125 C-7.28624994 18.3512514 -6.51084838 16.38966674 -5.73632812 14.42773438 C-3.83404901 9.61453224 -1.92010956 4.80611539 0 0 Z M4 13 C3.49440092 14.43554025 2.9957251 15.8735202 2.5 17.3125 C2.2215625 18.11300781 1.943125 18.91351562 1.65625 19.73828125 C0.86066893 22.08769422 0.86066893 22.08769422 1 25 C3.97 25 6.94 25 10 25 C8.68 21.04 7.36 17.08 6 13 C5.34 13 4.68 13 4 13 Z " fill="#F9F2E6" transform="translate(676,867)"/>
<path d="M0 0 C8.91 0 17.82 0 27 0 C28 5 28 5 27 10 C21.06 10 15.12 10 9 10 C9.33 12.31 9.66 14.62 10 17 C14.29 17 18.58 17 23 17 C23.33 19.97 23.66 22.94 24 26 C19.05 26 14.1 26 9 26 C9.66 28.31 10.32 30.62 11 33 C11.89203125 32.98839844 12.7840625 32.97679687 13.703125 32.96484375 C14.87359375 32.95582031 16.0440625 32.94679688 17.25 32.9375 C18.41015625 32.92589844 19.5703125 32.91429687 20.765625 32.90234375 C23.40977128 32.98217908 25.49826091 33.21356222 28 34 C28.09765625 40.15234375 28.09765625 40.15234375 28 42 C27 43 27 43 24.40795898 43.11352539 C23.28204346 43.10828857 22.15612793 43.10305176 20.99609375 43.09765625 C19.90224365 43.09515869 18.80839355 43.09266113 17.68139648 43.09008789 C15.58066772 43.07643188 15.58066772 43.07643188 13.4375 43.0625 C6.7859375 43.0315625 6.7859375 43.0315625 0 43 C0 28.81 0 14.62 0 0 Z " fill="#F8F2E6" transform="translate(632,935)"/>
<path d="M0 0 C3.3 0 6.6 0 10 0 C11.17435097 2.81612134 12.34805664 5.63250912 13.52099609 8.44921875 C14.49417414 10.78561716 15.46842869 13.12156751 16.44384766 15.45703125 C17.90739445 18.9683613 19.36066727 22.48381232 20.8125 26 C21.31458984 27.20011719 21.81667969 28.40023437 22.33398438 29.63671875 C23.04458008 31.36341797 23.04458008 31.36341797 23.76953125 33.125 C24.19854736 34.15882813 24.62756348 35.19265625 25.06958008 36.2578125 C26 39 26 39 26 43 C22.7 43 19.4 43 16 43 C14.68 40.36 13.36 37.72 12 35 C7.38 35 2.76 35 -2 35 C-2.99 37.64 -3.98 40.28 -5 43 C-8.3 43 -11.6 43 -15 43 C-13.48017039 34.71331 -10.53737967 27.07296178 -7.5 19.25 C-6.99552424 17.93641649 -6.49161402 16.62261565 -5.98828125 15.30859375 C-4.02490176 10.19257018 -2.04500573 5.08404557 0 0 Z M4 13 C3.49440092 14.43554025 2.9957251 15.8735202 2.5 17.3125 C2.2215625 18.11300781 1.943125 18.91351562 1.65625 19.73828125 C0.86066893 22.08769422 0.86066893 22.08769422 1 25 C3.97 25 6.94 25 10 25 C8.68 21.04 7.36 17.08 6 13 C5.34 13 4.68 13 4 13 Z " fill="#F8F2E5" transform="translate(133,867)"/>
<path d="M0 0 C8.91 0 17.82 0 27 0 C27.33 2.97 27.66 5.94 28 9 C25.88074396 11.11925604 21.3803907 10.41831017 18.4375 10.5625 C17.63119141 10.60568359 16.82488281 10.64886719 15.99414062 10.69335938 C13.99631195 10.79975262 11.9981793 10.90040888 10 11 C10 12.65 10 14.3 10 16 C14.29 16.33 18.58 16.66 23 17 C23 19.97 23 22.94 23 26 C16.565 26.495 16.565 26.495 10 27 C10 28.65 10 30.3 10 32 C15.94 32.66 21.88 33.32 28 34 C28 36.64 28 39.28 28 42 C27 43 27 43 24.40795898 43.11352539 C23.28204346 43.10828857 22.15612793 43.10305176 20.99609375 43.09765625 C19.78115234 43.09443359 18.56621094 43.09121094 17.31445312 43.08789062 C16.03505859 43.07951172 14.75566406 43.07113281 13.4375 43.0625 C12.15423828 43.05798828 10.87097656 43.05347656 9.54882812 43.04882812 C6.36583978 43.03699545 3.18294238 43.02051068 0 43 C-0.96135627 28.5352856 -0.84070207 14.47875788 0 0 Z " fill="#F8F1E5" transform="translate(505,935)"/>
<path d="M0 0 C9.24 0 18.48 0 28 0 C28 2.97 28 5.94 28 9 C24.01957092 9.99510727 20.8346834 10.10032114 16.75 10.0625 C15.48671875 10.05347656 14.2234375 10.04445313 12.921875 10.03515625 C11.95765625 10.02355469 10.9934375 10.01195312 10 10 C10 11.98 10 13.96 10 16 C10.85464844 16.06058594 11.70929688 16.12117187 12.58984375 16.18359375 C13.69457031 16.26738281 14.79929688 16.35117187 15.9375 16.4375 C17.59072266 16.55931641 17.59072266 16.55931641 19.27734375 16.68359375 C22 17 22 17 23 18 C23.14115161 20.67058851 23.04247107 23.32432238 23 26 C18.61414671 26.70173653 14.44209357 27.10834375 10 27 C10 29.31 10 31.62 10 34 C15.94 34 21.88 34 28 34 C28 36.97 28 39.94 28 43 C18.76 43 9.52 43 0 43 C-1.125 36.25 -1.125 36.25 -1.02172852 32.92236328 C-1.00163223 32.18204865 -0.98153595 31.44173401 -0.96083069 30.6789856 C-0.93379562 29.90062347 -0.90676056 29.12226135 -0.87890625 28.3203125 C-0.85529526 27.50754852 -0.83168427 26.69478455 -0.80735779 25.85739136 C-0.73122314 23.27972728 -0.64698527 20.70240253 -0.5625 18.125 C-0.50922895 16.36980787 -0.45648895 14.61459954 -0.40429688 12.859375 C-0.27666727 8.57264096 -0.13806738 4.28646122 0 0 Z " fill="#F8F2E5" transform="translate(217,867)"/>
<path d="M0 0 C1.87907267 0.9496028 3.697652 2.01725864 5.5 3.10546875 C4.75561083 6.24397445 3.74162641 9.12556536 2.5 12.10546875 C1.30375 11.61046875 0.1075 11.11546875 -1.125 10.60546875 C-4.71101476 9.2463564 -7.63404799 8.81552235 -11.5 9.10546875 C-11.5 10.42546875 -11.5 11.74546875 -11.5 13.10546875 C-10.53578125 13.48058594 -9.5715625 13.85570312 -8.578125 14.2421875 C-7.30177696 14.75835766 -6.02575204 15.2753273 -4.75 15.79296875 C-4.11578125 16.03724609 -3.4815625 16.28152344 -2.828125 16.53320312 C1.50683148 18.31685709 3.94993685 20.17799922 6.5 24.10546875 C7.77403141 28.0124984 7.60247857 29.79263944 6.3125 33.73046875 C3.68546069 38.62219711 2.10808964 40.53309786 -3.1875 42.41796875 C-10.26446743 43.84646773 -15.51269942 43.05404343 -21.5625 39.04296875 C-22.861875 38.07359375 -24.16125 37.10421875 -25.5 36.10546875 C-23.52 33.46546875 -21.54 30.82546875 -19.5 28.10546875 C-18.860625 28.57984375 -18.22125 29.05421875 -17.5625 29.54296875 C-13.08626048 31.82676442 -8.48444013 32.10546875 -3.5 32.10546875 C-3.73323715 30.15981252 -3.73323715 30.15981252 -4.5 28.10546875 C-6.05020702 26.89810745 -6.05020702 26.89810745 -8.02734375 26.10546875 C-8.73697266 25.77546875 -9.44660156 25.44546875 -10.17773438 25.10546875 C-10.92345703 24.77546875 -11.66917969 24.44546875 -12.4375 24.10546875 C-13.91015576 23.45038643 -15.37788692 22.78409241 -16.83984375 22.10546875 C-17.49331787 21.81671875 -18.14679199 21.52796875 -18.82006836 21.23046875 C-20.94682489 19.80624348 -21.56546373 18.45999608 -22.5 16.10546875 C-23.26806044 12.11007744 -23.36098715 8.56941852 -21.26171875 5 C-15.81087567 -1.55994762 -8.10982547 -2.90179693 0 0 Z " fill="#F8F2E6" transform="translate(416.5,935.89453125)"/>
<path d="M0 0 C1.11916472 0.79171372 2.22971679 1.59671418 3.3125 2.4375 C2.18798273 5.4094385 1.08956209 7.77190687 -0.6875 10.4375 C-6.4375 8.5625 -6.4375 8.5625 -8.6875 7.4375 C-12.88696671 7.39696461 -16.56015006 7.76109003 -20.1875 9.9375 C-22.41967667 13.65779445 -22.86700554 17.12936693 -22.6875 21.4375 C-21.42598235 25.44467371 -20.36671756 26.95896036 -16.9375 29.375 C-11.7344369 31.0760014 -8.15066065 30.10257302 -3.25 27.875 C-2.404375 27.400625 -1.55875 26.92625 -0.6875 26.4375 C0.9625 28.7475 2.6125 31.0575 4.3125 33.4375 C-0.36838176 38.65848351 -5.40625606 40.93291576 -12.31640625 41.50390625 C-18.51424429 41.33032594 -24.42106963 38.94772639 -28.6875 34.4375 C-32.52721648 28.12474578 -34.63504735 21.91259577 -33.6875 14.4375 C-31.55368519 7.47940821 -28.17459817 2.81893289 -22.125 -1.3125 C-15.03999524 -4.94583577 -6.68660264 -4.20743446 0 0 Z " fill="#F8F2E5" transform="translate(562.6875,869.5625)"/>
<path d="M0 0 C0.495 0.433125 0.99 0.86625 1.5 1.3125 C1.15120368 4.56793229 0.47866739 5.33123107 -2.0625 7.5625 C-2.866875 8.14 -3.67125 8.7175 -4.5 9.3125 C-5.53125 8.8175 -6.5625 8.3225 -7.625 7.8125 C-11.08512035 6.35450574 -13.71111367 5.73593034 -17.5 6.3125 C-20.49184025 7.8764165 -22.02883486 9.20312026 -23.359375 12.3359375 C-24.44881163 16.22868059 -24.86398589 19.34821513 -23.4375 23.1875 C-21.29235973 26.64740366 -20.33725597 27.97780227 -16.5 29.3125 C-11.53255739 29.35765857 -6.98997487 28.48506849 -2.5 26.3125 C-0.79115995 27.93589805 0.87446717 29.60569053 2.5 31.3125 C2.5 31.9725 2.5 32.6325 2.5 33.3125 C-1.83544277 37.31444717 -6.88035123 40.31842414 -12.88671875 40.30859375 C-19.50142517 39.84388343 -24.08296754 38.39227212 -29.1875 34 C-33.35450095 29.15726916 -35.18768049 24.43569508 -35.8125 18.1875 C-35.29334477 11.7499751 -33.19220564 6.35182475 -29.0625 1.375 C-19.82049978 -6.06368311 -9.9672714 -6.72790819 0 0 Z " fill="#F8F2E6" transform="translate(339.5,870.6875)"/>
<path d="M0 0 C11.22 0 22.44 0 34 0 C35 5 35 5 34 10 C30.04 10 26.08 10 22 10 C22 20.89 22 31.78 22 43 C18.7 43 15.4 43 12 43 C11.67 32.11 11.34 21.22 11 10 C7.7 10 4.4 10 1 10 C0.67 9.67 0.34 9.34 0 9 C0 6.03 0 3.06 0 0 Z " fill="#F8F2E6" transform="translate(706,867)"/>
<path d="M0 0 C0.71353638 0.00202423 1.42707275 0.00404846 2.16223145 0.00613403 C2.89091431 0.00517731 3.61959717 0.00422058 4.37036133 0.00323486 C5.91377855 0.00255318 7.45719861 0.00440666 9.00061035 0.00857544 C11.37095544 0.01392391 13.74111104 0.00863011 16.1114502 0.00222778 C17.60754437 0.00288857 19.10363842 0.00416973 20.59973145 0.00613403 C21.31326782 0.0041098 22.0268042 0.00208557 22.76196289 0 C27.76602953 0.02399462 27.76602953 0.02399462 28.88098145 1.13894653 C29.02291482 4.14225671 28.92334523 7.13111787 28.88098145 10.13894653 C24.59098145 10.13894653 20.30098145 10.13894653 15.88098145 10.13894653 C16.12461426 11.73416138 16.12461426 11.73416138 16.37316895 13.36160278 C17.08798038 19.0914605 17.02675982 24.81044864 17.00598145 30.57644653 C17.01178223 32.2267688 17.01178223 32.2267688 17.0177002 33.91043091 C17.01641113 34.953927 17.01512207 35.9974231 17.01379395 37.07254028 C17.01266602 38.02185425 17.01153809 38.97116821 17.01037598 39.94924927 C16.88098145 42.13894653 16.88098145 42.13894653 15.88098145 43.13894653 C12.91098145 43.13894653 9.94098145 43.13894653 6.88098145 43.13894653 C6.88098145 32.24894653 6.88098145 21.35894653 6.88098145 10.13894653 C2.92098145 10.13894653 -1.03901855 10.13894653 -5.11901855 10.13894653 C-6.11901855 9.13894653 -6.11901855 9.13894653 -6.25183105 7.32644653 C-6.24925293 6.60457153 -6.2466748 5.88269653 -6.24401855 5.13894653 C-6.24659668 4.41707153 -6.2491748 3.69519653 -6.25183105 2.95144653 C-5.96791193 -0.9232144 -3.25629297 0.015614 0 0 Z " fill="#F8F2E6" transform="translate(465.1190185546875,934.8610534667969)"/>
<path d="M0 0 C3.3 0 6.6 0 10 0 C10 14.19 10 28.38 10 43 C6.7 43 3.4 43 0 43 C0 28.81 0 14.62 0 0 Z " fill="#F9F3E6" transform="translate(750,867)"/>
<path d="M0 0 C2.97 0 5.94 0 9 0 C10.92257175 1.92257175 10.12908424 4.78085108 10.13894653 7.33874512 C10.1369223 8.22727173 10.13489807 9.11579834 10.1328125 10.03125 C10.13376923 10.93750122 10.13472595 11.84375244 10.13571167 12.77746582 C10.13639353 14.69751047 10.13453882 16.61755741 10.13037109 18.53759766 C10.12502292 21.48735704 10.13031588 24.43696414 10.13671875 27.38671875 C10.13605797 29.24739617 10.13477681 31.1080735 10.1328125 32.96875 C10.13483673 33.85727661 10.13686096 34.74580322 10.13894653 35.66125488 C10.11494988 41.88505012 10.11494988 41.88505012 9 43 C6.03 43 3.06 43 0 43 C0 28.81 0 14.62 0 0 Z " fill="#F8F2E6" transform="translate(438,935)"/>
<path d="M0 0 C0.66 0 1.32 0 2 0 C2.33 2.97 2.66 5.94 3 9 C-5.415 9.495 -5.415 9.495 -14 10 C-14 11.65 -14 13.3 -14 15 C-12.26043342 16.73956658 -9.8063378 16.37190386 -7.4375 16.5625 C-6.42558594 16.64628906 -5.41367187 16.73007812 -4.37109375 16.81640625 C-3.19740234 16.90728516 -3.19740234 16.90728516 -2 17 C-2 19.31 -2 21.62 -2 24 C-6.29 24 -10.58 24 -15 24 C-15 23.67 -15 23.34 -15 23 C-11.04 23 -7.08 23 -3 23 C-3 21.35 -3 19.7 -3 18 C-7.29 18 -11.58 18 -16 18 C-17.62651522 14.74696956 -17.11453156 11.60774398 -17 8 C-16 7 -16 7 -12.18359375 6.90234375 C-10.60153318 6.90901911 -9.01948841 6.92098125 -7.4375 6.9375 C-6.63119141 6.94201172 -5.82488281 6.94652344 -4.99414062 6.95117188 C-2.99606244 6.96299482 -0.99802217 6.98093086 1 7 C0.67 4.69 0.34 2.38 0 0 Z " fill="#FCF7EC" transform="translate(529,936)"/>
<path d="M0 0 C0.74886475 0.00523682 1.49772949 0.01047363 2.26928711 0.01586914 C3.07817383 0.0190918 3.88706055 0.02231445 4.72045898 0.02563477 C5.5705957 0.03401367 6.42073242 0.04239258 7.29663086 0.05102539 C8.15063477 0.05553711 9.00463867 0.06004883 9.88452148 0.06469727 C12.00108749 0.07652166 14.11761771 0.0944577 16.23413086 0.11352539 C16.23413086 0.44352539 16.23413086 0.77352539 16.23413086 1.11352539 C10.95413086 1.11352539 5.67413086 1.11352539 0.23413086 1.11352539 C0.23413086 12.66352539 0.23413086 24.21352539 0.23413086 36.11352539 C-0.09586914 36.11352539 -0.42586914 36.11352539 -0.76586914 36.11352539 C-1.84049487 28.81882023 -2.12551708 21.53954518 -2.39086914 14.17602539 C-2.44243164 12.93272461 -2.49399414 11.68942383 -2.54711914 10.40844727 C-2.59094727 9.22959961 -2.63477539 8.05075195 -2.67993164 6.83618164 C-2.72069824 5.76118408 -2.76146484 4.68618652 -2.8034668 3.57861328 C-2.75158361 0.17689567 -2.75158361 0.17689567 0 0 Z " fill="#FCF8ED" transform="translate(418.765869140625,867.886474609375)"/>
<path d="M0 0 C0.33 0.99 0.66 1.98 1 3 C-4.91773554 6.12347235 -9.34535297 6.25397347 -15.9375 5.6875 C-16.81212891 5.62626953 -17.68675781 5.56503906 -18.58789062 5.50195312 C-20.72641024 5.35003643 -22.86342338 5.1771587 -25 5 C-25 4.67 -25 4.34 -25 4 C-23.85402344 3.95101562 -22.70804687 3.90203125 -21.52734375 3.8515625 C-19.99737465 3.77647199 -18.46742782 3.70092694 -16.9375 3.625 C-16.18533203 3.5940625 -15.43316406 3.563125 -14.65820312 3.53125 C-6.77305741 3.32739418 -6.77305741 3.32739418 0 0 Z " fill="#FCF7EB" transform="translate(443,904)"/>
<path d="M0 0 C0.66 0.33 1.32 0.66 2 1 C2 2.98 2 4.96 2 7 C-2.95 6.67 -7.9 6.34 -13 6 C-13 5.67 -13 5.34 -13 5 C-9.04 5 -5.08 5 -1 5 C-0.67 3.35 -0.34 1.7 0 0 Z " fill="#FCF8ED" transform="translate(357,954)"/>
<path d="M0 0 C0.33 0.99 0.66 1.98 1 3 C-1 5 -1 5 -4.625 5.125 C-5.73875 5.08375 -6.8525 5.0425 -8 5 C-7.4225 4.731875 -6.845 4.46375 -6.25 4.1875 C-3.9674132 2.98280141 -2.0262058 1.59201885 0 0 Z " fill="#FCF8EC" transform="translate(699,971)"/>
<path d="M0 0 C3 1 3 1 3 1 Z " fill="#F9F4E8" transform="translate(287,911)"/>
<path d="M0 0 C0.66 0.66 1.32 1.32 2 2 C1.34 2 0.68 2 0 2 C0 1.34 0 0.68 0 0 Z " fill="#F9F4E8" transform="translate(476,881)"/>
<path d="M0 0 C3 1 3 1 3 1 Z " fill="#F9F4E8" transform="translate(148,726)"/>
<path d="M0 0 C2 1 2 1 2 1 Z " fill="#F9F4E8" transform="translate(754,911)"/>
<path d="M0 0 C2 1 2 1 2 1 Z " fill="#F9F4E8" transform="translate(721,911)"/>
<path d="M0 0 C2 1 2 1 2 1 Z " fill="#F9F4E8" transform="translate(372,911)"/>
<path d="M0 0 C2 1 2 1 2 1 Z " fill="#F9F4E8" transform="translate(262,911)"/>
<path d="M0 0 C2 1 2 1 2 1 Z " fill="#F9F4E8" transform="translate(120,911)"/>
<path d="M0 0 C2 1 2 1 2 1 Z " fill="#F9F4E8" transform="translate(144,903)"/>
<path d="" fill="#F9F4E8" transform="translate(0,0)"/>
<path d="" fill="#F9F4E8" transform="translate(0,0)"/>
<path d="M0 0 C2 1 2 1 2 1 Z " fill="#F9F4E8" transform="translate(789,878)"/>
<path d="" fill="#F9F4E8" transform="translate(0,0)"/>
<path d="" fill="#F9F4E8" transform="translate(0,0)"/>
<path d="" fill="#F9F4E8" transform="translate(0,0)"/>
<path d="" fill="#F9F4E8" transform="translate(0,0)"/>
<path d="" fill="#F9F4E8" transform="translate(0,0)"/>
<path d="" fill="#F9F4E8" transform="translate(0,0)"/>
<path d="" fill="#F9F4E8" transform="translate(0,0)"/>
<path d="" fill="#F9F4E8" transform="translate(0,0)"/>
<path d="" fill="#F9F4E8" transform="translate(0,0)"/>
<path d="" fill="#F9F3E8" transform="translate(0,0)"/>
<path d="" fill="#F9F4E8" transform="translate(0,0)"/>
<path d="" fill="#F9F4E8" transform="translate(0,0)"/>
<path d="" fill="#F9F4E8" transform="translate(0,0)"/>
<path d="" fill="#F9F4E8" transform="translate(0,0)"/>
<path d="" fill="#F9F4E8" transform="translate(0,0)"/>
<path d="" fill="#F9F4E8" transform="translate(0,0)"/>
<path d="" fill="#F9F4E8" transform="translate(0,0)"/>
<path d="" fill="#F9F4E8" transform="translate(0,0)"/>
<path d="" fill="#F9F4E8" transform="translate(0,0)"/>
<path d="" fill="#F9F4E8" transform="translate(0,0)"/>
<path d="" fill="#F9F4E8" transform="translate(0,0)"/>
<path d="" fill="#F9F4E8" transform="translate(0,0)"/>
<path d="" fill="#F9F4E8" transform="translate(0,0)"/>
<path d="" fill="#F9F4E8" transform="translate(0,0)"/>
<path d="" fill="#F9F4E8" transform="translate(0,0)"/>
<path d="" fill="#F9F4E8" transform="translate(0,0)"/>
<path d="" fill="#F9F4E8" transform="translate(0,0)"/>
<path d="" fill="#F9F4E8" transform="translate(0,0)"/>
<path d="" fill="#F9F4E8" transform="translate(0,0)"/>
<path d="" fill="#F9F4E8" transform="translate(0,0)"/>
<path d="" fill="#F9F4E8" transform="translate(0,0)"/>
<path d="" fill="#F9F4E8" transform="translate(0,0)"/>
<path d="" fill="#F9F4E8" transform="translate(0,0)"/>
<path d="" fill="#F9F4E8" transform="translate(0,0)"/>
<path d="" fill="#F9F4E8" transform="translate(0,0)"/>
<path d="" fill="#F9F4E8" transform="translate(0,0)"/>
<path d="" fill="#F9F4E8" transform="translate(0,0)"/>
<path d="" fill="#F9F4E8" transform="translate(0,0)"/>
<path d="" fill="#F9F4E8" transform="translate(0,0)"/>
<path d="" fill="#F9F4E8" transform="translate(0,0)"/>
<path d="" fill="#F9F4E8" transform="translate(0,0)"/>
<path d="" fill="#F9F4E8" transform="translate(0,0)"/>
<path d="" fill="#F9F4E8" transform="translate(0,0)"/>
<path d="" fill="#F9F4E8" transform="translate(0,0)"/>
<path d="" fill="#F9F4E8" transform="translate(0,0)"/>
</svg>
